{"glyphs":{"0":{"ha":836,"x_min":75,"x_max":761,"o":"m 418 843 q 670 743 579 843 q 761 408 761 643 q 669 75 761 175 q 418 -25 578 -25 q 166 75 257 -25 q 75 408 75 175 q 166 743 75 643 q 418 843 257 843 m 418 718 q 318 694 360 718 q 251 601 276 669 q 226 408 226 533 q 277 165 226 229 q 418 100 328 100 q 559 165 508 100 q 610 408 610 229 q 585 601 610 533 q 518 694 560 669 q 418 718 476 718 z "},"1":{"ha":686,"x_min":46,"x_max":656,"o":"m 354 832 l 444 832 l 443 124 l 656 124 l 656 0 l 78 0 l 78 124 l 303 124 l 303 622 l 126 476 l 46 575 l 354 832 z "},"2":{"ha":757,"x_min":47,"x_max":713,"o":"m 47 115 q 211 261 107 171 q 389 422 329 364 q 462 510 438 468 q 488 596 486 553 q 449 688 488 654 q 346 721 410 721 q 242 697 294 721 q 147 632 189 674 l 60 719 q 356 847 188 847 q 499 817 435 847 q 600 731 563 788 q 638 601 638 675 q 596 476 638 539 q 476 344 554 414 q 321 210 418 290 l 219 124 l 540 124 l 608 232 l 713 175 l 608 0 l 83 0 l 47 115 z "},"3":{"ha":715,"x_min":38,"x_max":657,"o":"m 343 483 q 441 518 404 483 q 478 608 478 553 q 438 690 478 660 q 331 721 397 721 q 226 701 278 721 q 140 647 174 681 l 50 735 q 175 815 100 788 q 338 843 250 843 q 543 781 467 843 q 619 617 619 718 q 580 498 619 551 q 479 425 540 444 q 608 356 560 408 q 657 228 657 303 q 573 44 657 113 q 346 -25 489 -25 q 172 1 244 -25 q 38 82 99 28 l 121 185 q 228 119 178 139 q 344 99 278 99 q 464 134 418 99 q 510 229 510 169 q 459 324 510 288 q 325 360 408 360 l 247 360 l 247 483 l 343 483 z "},"4":{"ha":778,"x_min":32,"x_max":715,"o":"m 300 0 l 300 124 l 457 124 l 457 231 l 32 231 l 32 325 l 336 867 l 447 804 l 188 349 l 457 349 l 457 672 l 599 672 l 599 349 l 715 350 l 715 231 l 599 231 l 599 124 l 710 124 l 710 0 l 300 0 z "},"5":{"ha":732,"x_min":63,"x_max":675,"o":"m 242 506 q 404 553 314 553 q 541 520 479 553 q 639 426 603 488 q 675 278 675 364 q 589 54 675 132 q 347 -24 503 -24 q 192 6 267 -24 q 63 90 117 35 l 156 178 q 354 96 242 96 q 488 140 442 96 q 533 268 533 185 q 483 391 533 346 q 363 436 433 436 q 271 416 317 436 q 189 357 225 396 l 106 396 l 106 818 l 611 818 l 611 694 l 242 694 l 242 506 z "},"6":{"ha":776,"x_min":74,"x_max":722,"o":"m 622 672 q 549 703 599 686 q 457 721 499 721 q 327 680 379 721 q 249 574 275 639 q 222 436 224 510 q 321 500 263 475 q 443 525 379 525 q 643 462 564 525 q 722 253 722 399 q 694 128 722 192 q 594 20 665 65 q 406 -25 524 -25 q 156 83 238 -25 q 74 404 74 190 q 120 628 74 528 q 253 785 167 728 q 454 843 339 843 q 583 821 522 843 q 674 779 644 799 l 622 672 m 426 413 q 308 389 363 413 q 226 326 253 365 q 288 143 236 192 q 415 94 339 94 q 503 118 467 94 q 559 178 540 142 q 578 253 578 215 q 538 372 578 332 q 426 413 499 413 z "},"7":{"ha":704,"x_min":36,"x_max":686,"o":"m 686 738 q 472 358 542 553 q 403 0 403 164 l 258 0 q 329 338 269 168 q 511 694 389 507 l 182 694 l 161 601 l 36 629 l 71 818 l 686 818 l 686 738 z "},"8":{"ha":751,"x_min":69,"x_max":681,"o":"m 375 843 q 581 781 500 843 q 663 604 663 719 q 624 493 663 546 q 522 424 586 440 q 640 350 599 406 q 681 226 681 294 q 593 39 681 103 q 376 -25 506 -25 q 158 39 246 -25 q 69 226 69 103 q 111 350 69 294 q 229 424 153 406 q 127 493 165 440 q 89 604 89 546 q 169 781 89 719 q 375 843 250 843 m 375 726 q 272 692 310 726 q 235 604 235 658 q 272 513 235 549 q 375 476 310 476 q 478 513 440 476 q 517 604 517 549 q 479 692 517 658 q 375 726 442 726 m 376 363 q 260 324 300 363 q 221 226 221 286 q 263 129 221 167 q 375 92 306 92 q 488 128 444 92 q 531 226 531 165 q 490 324 531 286 q 376 363 450 363 z "},"9":{"ha":772,"x_min":60,"x_max":713,"o":"m 160 146 q 238 114 186 131 q 339 97 289 97 q 503 175 449 97 q 560 363 557 253 q 461 297 518 322 q 340 272 404 272 q 140 339 219 272 q 60 558 60 406 q 88 687 60 622 q 188 797 117 751 q 378 843 258 843 q 629 734 546 843 q 713 413 713 625 q 660 166 713 264 q 522 22 608 68 q 335 -25 436 -25 q 200 -3 263 -25 q 108 39 138 19 l 160 146 m 367 724 q 247 673 289 724 q 206 550 206 622 q 246 429 206 474 q 356 385 286 385 q 477 411 424 385 q 557 479 531 438 q 497 673 549 622 q 367 724 446 724 z "},"\u0000":{"ha":0,"x_min":0,"x_max":0,"o":""},"\r":{"ha":338,"x_min":0,"x_max":0,"o":""}," ":{"ha":338,"x_min":0,"x_max":0,"o":""},"A":{"ha":929,"x_min":11,"x_max":918,"o":"m 11 0 l 11 124 l 146 124 l 364 694 l 238 694 l 238 818 l 536 818 l 790 124 l 918 124 l 918 0 l 567 0 l 567 124 l 646 124 l 603 246 l 317 246 l 272 124 l 356 124 l 356 0 l 11 0 m 354 350 l 567 350 l 464 667 l 354 350 z "},"Á":{"ha":929,"x_min":11,"x_max":918,"o":"m 11 0 l 11 124 l 146 124 l 364 694 l 238 694 l 238 818 l 536 818 l 790 124 l 918 124 l 918 0 l 567 0 l 567 124 l 646 124 l 603 246 l 317 246 l 272 124 l 356 124 l 356 0 l 11 0 m 354 350 l 567 350 l 464 667 l 354 350 m 667 1088 l 699 967 l 349 908 l 329 967 l 667 1088 z "},"Ă":{"ha":929,"x_min":11,"x_max":918,"o":"m 11 0 l 11 124 l 146 124 l 364 694 l 238 694 l 238 818 l 536 818 l 790 124 l 918 124 l 918 0 l 567 0 l 567 124 l 646 124 l 603 246 l 317 246 l 272 124 l 356 124 l 356 0 l 11 0 m 354 350 l 567 350 l 464 667 l 354 350 m 451 910 q 294 957 353 910 q 221 1094 235 1004 l 321 1110 q 451 1008 333 1008 q 546 1034 513 1008 q 583 1110 579 1060 l 685 1094 q 611 957 669 1004 q 451 910 553 910 z "},"Ắ":{"ha":929,"x_min":11,"x_max":918,"o":"m 11 0 l 11 124 l 146 124 l 364 694 l 238 694 l 238 818 l 536 818 l 790 124 l 918 124 l 918 0 l 567 0 l 567 124 l 646 124 l 603 246 l 317 246 l 272 124 l 356 124 l 356 0 l 11 0 m 354 350 l 567 350 l 464 667 l 354 350 m 451 910 q 294 957 353 910 q 221 1094 235 1004 l 321 1110 q 451 1008 333 1008 q 546 1034 513 1008 q 583 1110 579 1060 l 685 1094 q 611 957 669 1004 q 451 910 553 910 m 689 1311 l 721 1190 l 371 1132 l 351 1190 l 689 1311 z "},"Ặ":{"ha":929,"x_min":11,"x_max":918,"o":"m 11 0 l 11 124 l 146 124 l 364 694 l 238 694 l 238 818 l 536 818 l 790 124 l 918 124 l 918 0 l 567 0 l 567 124 l 646 124 l 603 246 l 317 246 l 272 124 l 356 124 l 356 0 l 11 0 m 354 350 l 567 350 l 464 667 l 354 350 m 463 -81 q 530 -106 504 -81 q 556 -174 556 -132 q 530 -240 556 -215 q 463 -265 504 -265 q 397 -240 422 -265 q 372 -174 372 -215 q 397 -106 372 -132 q 463 -81 422 -81 m 451 910 q 294 957 353 910 q 221 1094 235 1004 l 321 1110 q 451 1008 333 1008 q 546 1034 513 1008 q 583 1110 579 1060 l 685 1094 q 611 957 669 1004 q 451 910 553 910 z "},"Ằ":{"ha":929,"x_min":11,"x_max":918,"o":"m 11 0 l 11 124 l 146 124 l 364 694 l 238 694 l 238 818 l 536 818 l 790 124 l 918 124 l 918 0 l 567 0 l 567 124 l 646 124 l 603 246 l 317 246 l 272 124 l 356 124 l 356 0 l 11 0 m 354 350 l 567 350 l 464 667 l 354 350 m 451 910 q 294 957 353 910 q 221 1094 235 1004 l 321 1110 q 451 1008 333 1008 q 546 1034 513 1008 q 583 1110 579 1060 l 685 1094 q 611 957 669 1004 q 451 910 553 910 m 231 1308 l 568 1188 l 550 1131 l 199 1189 l 231 1308 z "},"Ẳ":{"ha":929,"x_min":11,"x_max":918,"o":"m 11 0 l 11 124 l 146 124 l 364 694 l 238 694 l 238 818 l 536 818 l 790 124 l 918 124 l 918 0 l 567 0 l 567 124 l 646 124 l 603 246 l 317 246 l 272 124 l 356 124 l 356 0 l 11 0 m 354 350 l 567 350 l 464 667 l 354 350 m 450 910 q 292 957 351 910 q 219 1094 233 1004 l 319 1110 q 450 1008 332 1008 q 544 1034 511 1008 q 582 1110 578 1060 l 683 1094 q 610 957 668 1004 q 450 910 551 910 m 404 1158 q 442 1199 428 1176 q 456 1243 456 1222 q 444 1273 456 1261 q 413 1285 433 1285 q 343 1246 378 1285 l 286 1310 q 431 1382 349 1382 q 520 1350 486 1382 q 554 1264 554 1318 q 528 1185 554 1225 q 450 1111 503 1146 l 404 1158 z "},"Ẵ":{"ha":929,"x_min":11,"x_max":918,"o":"m 11 0 l 11 124 l 146 124 l 364 694 l 238 694 l 238 818 l 536 818 l 790 124 l 918 124 l 918 0 l 567 0 l 567 124 l 646 124 l 603 246 l 317 246 l 272 124 l 356 124 l 356 0 l 11 0 m 354 350 l 567 350 l 464 667 l 354 350 m 222 1244 q 299 1289 268 1276 q 371 1301 329 1301 q 422 1294 400 1301 q 474 1269 443 1286 q 515 1251 500 1257 q 549 1244 531 1244 q 592 1253 572 1244 q 650 1289 611 1263 l 671 1204 q 603 1158 632 1171 q 535 1144 574 1144 q 450 1174 500 1144 q 403 1194 421 1188 q 365 1201 386 1201 q 318 1195 338 1201 q 276 1178 299 1189 q 243 1163 254 1168 l 222 1244 m 451 910 q 294 957 353 910 q 221 1094 235 1004 l 321 1110 q 451 1008 333 1008 q 546 1034 513 1008 q 583 1110 579 1060 l 685 1094 q 611 957 669 1004 q 451 910 553 910 z "},"Â":{"ha":929,"x_min":11,"x_max":918,"o":"m 11 0 l 11 124 l 146 124 l 364 694 l 238 694 l 238 818 l 536 818 l 790 124 l 918 124 l 918 0 l 567 0 l 567 124 l 646 124 l 603 246 l 317 246 l 272 124 l 356 124 l 356 0 l 11 0 m 354 350 l 567 350 l 464 667 l 354 350 m 453 1096 l 697 954 l 661 901 l 453 981 l 240 901 l 207 954 l 453 1096 z "},"Ấ":{"ha":929,"x_min":11,"x_max":918,"o":"m 11 0 l 11 124 l 146 124 l 364 694 l 238 694 l 238 818 l 536 818 l 790 124 l 918 124 l 918 0 l 567 0 l 567 124 l 646 124 l 603 246 l 317 246 l 272 124 l 356 124 l 356 0 l 11 0 m 354 350 l 567 350 l 464 667 l 354 350 m 549 1322 l 607 1218 l 333 1106 l 307 1158 l 549 1322 m 453 1096 l 697 954 l 661 901 l 453 981 l 240 901 l 207 954 l 453 1096 z "},"Ậ":{"ha":929,"x_min":11,"x_max":918,"o":"m 11 0 l 11 124 l 146 124 l 364 694 l 238 694 l 238 818 l 536 818 l 790 124 l 918 124 l 918 0 l 567 0 l 567 124 l 646 124 l 603 246 l 317 246 l 272 124 l 356 124 l 356 0 l 11 0 m 354 350 l 567 350 l 464 667 l 354 350 m 463 -81 q 530 -106 504 -81 q 556 -174 556 -132 q 530 -240 556 -215 q 463 -265 504 -265 q 397 -240 422 -265 q 372 -174 372 -215 q 397 -106 372 -132 q 463 -81 422 -81 m 453 1096 l 697 954 l 661 901 l 453 981 l 240 901 l 207 954 l 453 1096 z "},"Ầ":{"ha":929,"x_min":11,"x_max":918,"o":"m 11 0 l 11 124 l 146 124 l 364 694 l 238 694 l 238 818 l 536 818 l 790 124 l 918 124 l 918 0 l 567 0 l 567 124 l 646 124 l 603 246 l 317 246 l 272 124 l 356 124 l 356 0 l 11 0 m 354 350 l 567 350 l 464 667 l 354 350 m 367 1310 l 608 1146 l 582 1093 l 307 1206 l 367 1310 m 453 1096 l 697 954 l 661 901 l 453 981 l 240 901 l 207 954 l 453 1096 z "},"Ẩ":{"ha":929,"x_min":11,"x_max":918,"o":"m 11 0 l 11 124 l 146 124 l 364 694 l 238 694 l 238 818 l 536 818 l 790 124 l 918 124 l 918 0 l 567 0 l 567 124 l 646 124 l 603 246 l 317 246 l 272 124 l 356 124 l 356 0 l 11 0 m 354 350 l 567 350 l 464 667 l 354 350 m 453 1096 l 697 954 l 661 901 l 453 981 l 240 901 l 207 954 l 453 1096 m 568 1093 q 606 1134 592 1111 q 619 1178 619 1157 q 608 1208 619 1196 q 576 1219 597 1219 q 507 1181 542 1219 l 450 1244 q 594 1317 513 1317 q 684 1285 650 1317 q 718 1199 718 1253 q 692 1120 718 1160 q 614 1046 667 1081 l 568 1093 z "},"Ẫ":{"ha":929,"x_min":11,"x_max":918,"o":"m 11 0 l 11 124 l 146 124 l 364 694 l 238 694 l 238 818 l 536 818 l 790 124 l 918 124 l 918 0 l 567 0 l 567 124 l 646 124 l 603 246 l 317 246 l 272 124 l 356 124 l 356 0 l 11 0 m 354 350 l 567 350 l 464 667 l 354 350 m 236 1208 q 313 1253 282 1240 q 385 1265 343 1265 q 433 1258 413 1265 q 488 1235 454 1251 q 529 1216 514 1222 q 563 1210 544 1210 q 607 1219 588 1210 q 664 1254 626 1228 l 685 1169 q 617 1123 646 1136 q 547 1110 588 1110 q 508 1117 526 1110 q 463 1139 489 1125 q 418 1160 436 1153 q 379 1167 400 1167 q 332 1160 351 1167 q 290 1144 313 1154 q 257 1128 268 1133 l 236 1208 m 456 1094 l 700 953 l 664 900 l 456 979 l 243 900 l 210 953 l 456 1094 z "},"Ȁ":{"ha":929,"x_min":11,"x_max":918,"o":"m 11 0 l 11 124 l 146 124 l 364 694 l 238 694 l 238 818 l 536 818 l 790 124 l 918 124 l 918 0 l 567 0 l 567 124 l 646 124 l 603 246 l 317 246 l 272 124 l 356 124 l 356 0 l 11 0 m 354 350 l 567 350 l 464 667 l 354 350 m 365 1143 l 564 947 l 526 906 l 294 1056 l 365 1143 m 140 1083 l 389 958 l 364 908 l 96 981 l 140 1083 z "},"Ä":{"ha":929,"x_min":11,"x_max":918,"o":"m 11 0 l 11 124 l 146 124 l 364 694 l 238 694 l 238 818 l 536 818 l 790 124 l 918 124 l 918 0 l 567 0 l 567 124 l 646 124 l 603 246 l 317 246 l 272 124 l 356 124 l 356 0 l 11 0 m 354 350 l 567 350 l 464 667 l 354 350 m 322 1100 q 384 1074 357 1100 q 411 1011 411 1047 q 385 949 411 975 q 322 922 358 922 q 260 949 286 922 q 233 1011 233 975 q 260 1074 233 1047 q 322 1100 286 1100 m 581 1100 q 642 1074 615 1100 q 668 1011 668 1047 q 642 949 668 975 q 581 922 617 922 q 518 949 544 922 q 492 1011 492 975 q 518 1074 492 1047 q 581 1100 544 1100 z "},"Ạ":{"ha":929,"x_min":11,"x_max":918,"o":"m 11 0 l 11 124 l 146 124 l 364 694 l 238 694 l 238 818 l 536 818 l 790 124 l 918 124 l 918 0 l 567 0 l 567 124 l 646 124 l 603 246 l 317 246 l 272 124 l 356 124 l 356 0 l 11 0 m 354 350 l 567 350 l 464 667 l 354 350 m 463 -81 q 530 -106 504 -81 q 556 -174 556 -132 q 530 -240 556 -215 q 463 -265 504 -265 q 397 -240 422 -265 q 372 -174 372 -215 q 397 -106 372 -132 q 463 -81 422 -81 z "},"À":{"ha":929,"x_min":11,"x_max":918,"o":"m 11 0 l 11 124 l 146 124 l 364 694 l 238 694 l 238 818 l 536 818 l 790 124 l 918 124 l 918 0 l 567 0 l 567 124 l 646 124 l 603 246 l 317 246 l 272 124 l 356 124 l 356 0 l 11 0 m 354 350 l 567 350 l 464 667 l 354 350 m 208 1085 l 546 964 l 528 907 l 176 965 l 208 1085 z "},"Ả":{"ha":929,"x_min":11,"x_max":918,"o":"m 11 0 l 11 124 l 146 124 l 364 694 l 238 694 l 238 818 l 536 818 l 790 124 l 918 124 l 918 0 l 567 0 l 567 124 l 646 124 l 603 246 l 317 246 l 272 124 l 356 124 l 356 0 l 11 0 m 354 350 l 567 350 l 464 667 l 354 350 m 428 935 q 465 976 451 953 q 479 1019 479 999 q 468 1049 479 1038 q 436 1061 457 1061 q 367 1022 401 1061 l 310 1086 q 454 1158 372 1158 q 544 1126 510 1158 q 578 1040 578 1094 q 552 962 578 1001 q 474 888 526 922 l 428 935 z "},"Ȃ":{"ha":929,"x_min":11,"x_max":918,"o":"m 11 0 l 11 124 l 146 124 l 364 694 l 238 694 l 238 818 l 536 818 l 790 124 l 918 124 l 918 0 l 567 0 l 567 124 l 646 124 l 603 246 l 317 246 l 272 124 l 356 124 l 356 0 l 11 0 m 354 350 l 567 350 l 464 667 l 354 350 m 451 1124 q 611 1076 553 1124 q 685 939 669 1029 l 583 924 q 546 999 579 974 q 451 1025 513 1025 q 321 924 333 1025 l 221 939 q 294 1076 235 1029 q 451 1124 353 1124 z "},"Ā":{"ha":929,"x_min":11,"x_max":918,"o":"m 11 0 l 11 124 l 146 124 l 364 694 l 238 694 l 238 818 l 536 818 l 790 124 l 918 124 l 918 0 l 567 0 l 567 124 l 646 124 l 603 246 l 317 246 l 272 124 l 356 124 l 356 0 l 11 0 m 354 350 l 567 350 l 464 667 l 354 350 m 229 1050 l 675 1050 l 675 954 l 229 954 l 229 1050 z "},"Ą":{"ha":929,"x_min":11,"x_max":918,"o":"m 774 0 q 661 -147 661 -60 q 684 -196 661 -178 q 744 -214 707 -214 q 813 -200 774 -214 l 813 -294 q 694 -321 751 -321 q 572 -285 618 -321 q 525 -192 525 -249 q 660 0 525 -76 l 567 0 l 567 124 l 646 124 l 603 246 l 317 246 l 272 124 l 356 124 l 356 0 l 11 0 l 11 124 l 146 124 l 364 694 l 238 694 l 238 818 l 536 818 l 790 124 l 918 124 l 918 0 l 774 0 m 354 350 l 567 350 l 464 667 l 354 350 z "},"Å":{"ha":960,"x_min":11,"x_max":918,"o":"m 918 124 l 918 0 l 567 0 l 567 124 l 646 124 l 603 246 l 317 246 l 272 124 l 356 124 l 356 0 l 11 0 l 11 124 l 146 124 l 364 694 l 238 694 l 238 818 l 383 818 q 343 919 343 856 q 380 1017 343 981 q 478 1054 417 1054 q 576 1017 539 1054 q 613 919 613 981 q 594 846 613 878 q 543 799 576 814 l 790 124 l 918 124 m 478 982 q 432 965 450 982 q 414 919 414 947 q 432 874 414 892 q 478 857 450 857 q 523 874 506 857 q 540 919 540 892 q 523 965 540 947 q 478 982 506 982 m 354 350 l 567 350 l 464 667 l 354 350 z "},"Ǻ":{"ha":960,"x_min":11,"x_max":918,"o":"m 918 124 l 918 0 l 567 0 l 567 124 l 646 124 l 603 246 l 317 246 l 272 124 l 356 124 l 356 0 l 11 0 l 11 124 l 146 124 l 364 694 l 238 694 l 238 818 l 383 818 q 343 919 343 856 q 380 1017 343 981 q 478 1054 417 1054 q 576 1017 539 1054 q 613 919 613 981 q 594 846 613 878 q 543 799 576 814 l 790 124 l 918 124 m 478 982 q 432 965 450 982 q 414 919 414 947 q 432 874 414 892 q 478 857 450 857 q 523 874 506 857 q 540 919 540 892 q 523 965 540 947 q 478 982 506 982 m 354 350 l 567 350 l 464 667 l 354 350 m 689 1275 l 721 1154 l 371 1096 l 351 1154 l 689 1275 z "},"Ã":{"ha":929,"x_min":11,"x_max":918,"o":"m 11 0 l 11 124 l 146 124 l 364 694 l 238 694 l 238 818 l 536 818 l 790 124 l 918 124 l 918 0 l 567 0 l 567 124 l 646 124 l 603 246 l 317 246 l 272 124 l 356 124 l 356 0 l 11 0 m 354 350 l 567 350 l 464 667 l 354 350 m 233 1007 q 315 1057 281 1043 q 394 1071 349 1071 q 444 1063 422 1071 q 499 1040 465 1056 q 572 1015 542 1015 q 617 1024 597 1015 q 674 1058 638 1033 l 710 974 q 636 922 668 936 q 560 908 604 908 q 520 916 539 908 q 475 938 501 924 q 431 958 449 951 q 392 965 413 965 q 344 959 364 965 q 303 942 325 953 q 269 926 281 932 l 233 1007 z "},"Æ":{"ha":1293,"x_min":39,"x_max":1249,"o":"m 39 0 l 39 124 l 174 124 l 529 694 l 394 694 l 394 818 l 1140 818 l 1218 585 l 1101 544 l 1047 694 l 801 694 l 801 472 l 1025 472 l 1025 350 l 800 350 l 800 124 l 1079 124 l 1132 267 l 1249 226 l 1172 0 l 535 0 l 535 124 l 658 124 l 658 233 l 379 233 l 313 124 l 389 124 l 389 0 l 39 0 m 451 356 l 658 356 l 660 694 l 451 356 z "},"Ǽ":{"ha":1293,"x_min":39,"x_max":1249,"o":"m 39 0 l 39 124 l 174 124 l 529 694 l 394 694 l 394 818 l 1140 818 l 1218 585 l 1101 544 l 1047 694 l 801 694 l 801 472 l 1025 472 l 1025 350 l 800 350 l 800 124 l 1079 124 l 1132 267 l 1249 226 l 1172 0 l 535 0 l 535 124 l 658 124 l 658 233 l 379 233 l 313 124 l 389 124 l 389 0 l 39 0 m 451 356 l 658 356 l 660 694 l 451 356 m 944 1088 l 976 967 l 626 908 l 607 967 l 944 1088 z "},"B":{"ha":804,"x_min":56,"x_max":763,"o":"m 56 124 l 178 124 l 178 694 l 56 694 l 56 818 l 415 818 q 655 763 572 818 q 738 600 738 707 q 708 494 738 542 q 626 419 678 446 q 726 348 689 399 q 763 224 763 297 q 692 60 763 119 q 486 0 622 0 l 56 0 l 56 124 m 479 467 q 559 497 531 467 q 588 581 588 526 q 431 694 588 694 l 321 694 l 321 467 l 479 467 m 469 124 q 577 154 540 124 q 614 243 614 185 q 578 328 614 299 q 478 357 543 357 l 321 357 l 319 124 l 469 124 z "},"C":{"ha":826,"x_min":60,"x_max":768,"o":"m 618 696 q 561 714 604 704 q 469 724 518 724 q 276 642 344 724 q 208 410 208 560 q 277 177 208 260 q 469 94 346 94 q 618 126 535 94 l 647 243 l 767 215 l 728 32 q 690 15 728 31 q 595 -12 653 0 q 469 -25 538 -25 q 172 88 282 -25 q 60 410 61 201 q 110 640 60 542 q 251 790 160 738 q 465 843 343 843 q 604 828 544 843 q 698 794 664 813 q 732 774 732 776 l 768 592 l 647 565 l 618 696 z "},"Ć":{"ha":826,"x_min":60,"x_max":768,"o":"m 618 696 q 561 714 604 704 q 469 724 518 724 q 276 642 344 724 q 208 410 208 560 q 277 177 208 260 q 469 94 346 94 q 618 126 535 94 l 647 243 l 767 215 l 728 32 q 690 15 728 31 q 595 -12 653 0 q 469 -25 538 -25 q 172 88 282 -25 q 60 410 61 201 q 110 640 60 542 q 251 790 160 738 q 465 843 343 843 q 604 828 544 843 q 698 794 664 813 q 732 774 732 776 l 768 592 l 647 565 l 618 696 m 681 1088 l 713 967 l 363 908 l 343 967 l 681 1088 z "},"Č":{"ha":826,"x_min":60,"x_max":768,"o":"m 618 696 q 561 714 604 704 q 469 724 518 724 q 276 642 344 724 q 208 410 208 560 q 277 177 208 260 q 469 94 346 94 q 618 126 535 94 l 647 243 l 767 215 l 728 32 q 690 15 728 31 q 595 -12 653 0 q 469 -25 538 -25 q 172 88 282 -25 q 60 410 61 201 q 110 640 60 542 q 251 790 160 738 q 465 843 343 843 q 604 828 544 843 q 698 794 664 813 q 732 774 732 776 l 768 592 l 647 565 l 618 696 m 468 889 l 243 1040 l 286 1106 l 469 1007 l 646 1107 l 689 1040 l 468 889 z "},"Ç":{"ha":826,"x_min":60,"x_max":768,"o":"m 647 243 l 767 215 l 728 32 q 694 17 721 28 q 619 -7 667 6 q 514 -24 571 -19 l 514 -78 q 638 -103 597 -75 q 679 -192 679 -132 q 633 -286 679 -253 q 513 -319 588 -319 q 419 -301 457 -319 q 349 -261 381 -283 l 388 -200 q 511 -239 444 -239 q 576 -189 576 -239 q 558 -153 576 -165 q 496 -142 540 -142 l 426 -142 l 426 -24 q 159 101 257 -11 q 60 410 61 213 q 110 640 60 542 q 251 790 160 738 q 465 843 343 843 q 604 828 544 843 q 698 794 664 813 q 732 774 732 776 l 768 592 l 647 565 l 618 696 q 561 714 604 704 q 469 724 518 724 q 276 642 344 724 q 208 410 208 560 q 277 177 208 260 q 469 94 346 94 q 618 126 535 94 l 647 243 z "},"Ḉ":{"ha":826,"x_min":60,"x_max":768,"o":"m 713 967 l 363 908 l 343 967 l 681 1088 l 713 967 m 647 243 l 767 215 l 728 32 q 694 17 721 28 q 619 -7 667 6 q 514 -24 571 -19 l 514 -78 q 638 -103 597 -75 q 679 -192 679 -132 q 633 -286 679 -253 q 513 -319 588 -319 q 419 -301 457 -319 q 349 -261 381 -283 l 388 -200 q 511 -239 444 -239 q 576 -189 576 -239 q 558 -153 576 -165 q 496 -142 540 -142 l 426 -142 l 426 -24 q 159 101 257 -11 q 60 410 61 213 q 110 640 60 542 q 251 790 160 738 q 465 843 343 843 q 604 828 544 843 q 698 794 664 813 q 732 774 732 776 l 768 592 l 647 565 l 618 696 q 561 714 604 704 q 469 724 518 724 q 276 642 344 724 q 208 410 208 560 q 277 177 208 260 q 469 94 346 94 q 618 126 535 94 l 647 243 z "},"Ĉ":{"ha":826,"x_min":60,"x_max":768,"o":"m 618 696 q 561 714 604 704 q 469 724 518 724 q 276 642 344 724 q 208 410 208 560 q 277 177 208 260 q 469 94 346 94 q 618 126 535 94 l 647 243 l 767 215 l 728 32 q 690 15 728 31 q 595 -12 653 0 q 469 -25 538 -25 q 172 88 282 -25 q 60 410 61 201 q 110 640 60 542 q 251 790 160 738 q 465 843 343 843 q 604 828 544 843 q 698 794 664 813 q 732 774 732 776 l 768 592 l 647 565 l 618 696 m 467 1096 l 711 954 l 675 901 l 467 981 l 254 901 l 221 954 l 467 1096 z "},"Ċ":{"ha":826,"x_min":60,"x_max":768,"o":"m 618 696 q 561 714 604 704 q 469 724 518 724 q 276 642 344 724 q 208 410 208 560 q 277 177 208 260 q 469 94 346 94 q 618 126 535 94 l 647 243 l 767 215 l 728 32 q 690 15 728 31 q 595 -12 653 0 q 469 -25 538 -25 q 172 88 282 -25 q 60 410 61 201 q 110 640 60 542 q 251 790 160 738 q 465 843 343 843 q 604 828 544 843 q 698 794 664 813 q 732 774 732 776 l 768 592 l 647 565 l 618 696 m 465 1118 q 533 1092 507 1118 q 558 1025 558 1067 q 533 958 558 983 q 465 933 507 933 q 400 958 425 933 q 375 1025 375 983 q 400 1092 375 1067 q 465 1118 425 1118 z "},"D":{"ha":919,"x_min":56,"x_max":861,"o":"m 431 818 q 747 706 633 818 q 861 394 861 594 q 750 104 861 208 q 442 0 639 0 l 56 0 l 56 124 l 178 124 l 178 694 l 56 694 l 56 818 l 431 818 m 417 124 q 638 192 563 124 q 713 394 713 260 q 641 618 713 542 q 431 694 569 694 l 321 694 l 321 124 l 417 124 z "},"Ð":{"ha":940,"x_min":75,"x_max":881,"o":"m 450 818 q 769 719 657 818 q 881 394 881 621 q 765 101 881 201 q 461 0 650 0 l 75 0 l 75 124 l 197 124 l 197 363 l 75 363 l 75 482 l 197 482 l 197 694 l 75 694 l 75 818 l 450 818 m 436 124 q 660 187 588 124 q 732 394 732 250 q 701 576 732 511 q 608 668 669 642 q 450 694 547 694 l 340 694 l 340 482 l 482 482 l 482 363 l 340 363 l 340 124 l 436 124 z "},"Ď":{"ha":919,"x_min":56,"x_max":861,"o":"m 431 818 q 747 706 633 818 q 861 394 861 594 q 750 104 861 208 q 442 0 639 0 l 56 0 l 56 124 l 178 124 l 178 694 l 56 694 l 56 818 l 431 818 m 417 124 q 638 192 563 124 q 713 394 713 260 q 641 618 713 542 q 431 694 569 694 l 321 694 l 321 124 l 417 124 m 408 892 l 163 1032 l 196 1086 l 408 1006 l 617 1086 l 653 1032 l 408 892 z "},"Đ":{"ha":940,"x_min":75,"x_max":881,"o":"m 450 818 q 769 719 657 818 q 881 394 881 621 q 765 101 881 201 q 461 0 650 0 l 75 0 l 75 124 l 197 124 l 197 363 l 75 363 l 75 482 l 197 482 l 197 694 l 75 694 l 75 818 l 450 818 m 436 124 q 660 187 588 124 q 732 394 732 250 q 701 576 732 511 q 608 668 669 642 q 450 694 547 694 l 340 694 l 340 482 l 482 482 l 482 363 l 340 363 l 340 124 l 436 124 z "},"Ḍ":{"ha":919,"x_min":56,"x_max":861,"o":"m 431 818 q 747 706 633 818 q 861 394 861 594 q 750 104 861 208 q 442 0 639 0 l 56 0 l 56 124 l 178 124 l 178 694 l 56 694 l 56 818 l 431 818 m 417 124 q 638 192 563 124 q 713 394 713 260 q 641 618 713 542 q 431 694 569 694 l 321 694 l 321 124 l 417 124 m 428 -81 q 495 -106 469 -81 q 521 -174 521 -132 q 495 -240 521 -215 q 428 -265 469 -265 q 363 -240 388 -265 q 338 -174 338 -215 q 363 -106 338 -132 q 428 -81 388 -81 z "},"Ḏ":{"ha":919,"x_min":56,"x_max":861,"o":"m 431 818 q 747 706 633 818 q 861 394 861 594 q 750 104 861 208 q 442 0 639 0 l 56 0 l 56 124 l 178 124 l 178 694 l 56 694 l 56 818 l 431 818 m 417 124 q 638 192 563 124 q 713 394 713 260 q 641 618 713 542 q 431 694 569 694 l 321 694 l 321 124 l 417 124 m 208 -68 l 653 -68 l 653 -167 l 208 -167 l 208 -68 z "},"E":{"ha":835,"x_min":56,"x_max":790,"o":"m 57 818 l 682 818 l 760 585 l 643 544 l 589 694 l 322 694 l 322 481 l 567 481 l 567 358 l 322 358 l 322 124 l 622 124 l 674 267 l 790 226 l 713 0 l 56 0 l 56 124 l 179 124 l 181 694 l 57 694 l 57 818 z "},"É":{"ha":835,"x_min":56,"x_max":790,"o":"m 57 818 l 682 818 l 760 585 l 643 544 l 589 694 l 322 694 l 322 481 l 567 481 l 567 358 l 322 358 l 322 124 l 622 124 l 674 267 l 790 226 l 713 0 l 56 0 l 56 124 l 179 124 l 181 694 l 57 694 l 57 818 m 626 1088 l 658 967 l 308 908 l 289 967 l 626 1088 z "},"Ĕ":{"ha":835,"x_min":56,"x_max":790,"o":"m 57 818 l 682 818 l 760 585 l 643 544 l 589 694 l 322 694 l 322 481 l 567 481 l 567 358 l 322 358 l 322 124 l 622 124 l 674 267 l 790 226 l 713 0 l 56 0 l 56 124 l 179 124 l 181 694 l 57 694 l 57 818 m 411 910 q 253 957 313 910 q 181 1094 194 1004 l 281 1110 q 411 1008 293 1008 q 506 1034 472 1008 q 543 1110 539 1060 l 644 1094 q 571 957 629 1004 q 411 910 513 910 z "},"Ě":{"ha":835,"x_min":56,"x_max":790,"o":"m 57 818 l 682 818 l 760 585 l 643 544 l 589 694 l 322 694 l 322 481 l 567 481 l 567 358 l 322 358 l 322 124 l 622 124 l 674 267 l 790 226 l 713 0 l 56 0 l 56 124 l 179 124 l 181 694 l 57 694 l 57 818 m 414 889 l 189 1040 l 232 1106 l 415 1007 l 592 1107 l 635 1040 l 414 889 z "},"Ḝ":{"ha":835,"x_min":56,"x_max":790,"o":"m 57 818 l 682 818 l 760 585 l 643 544 l 589 694 l 322 694 l 322 481 l 567 481 l 567 358 l 322 358 l 322 124 l 622 124 l 674 267 l 790 226 l 713 0 l 56 0 l 56 124 l 179 124 l 181 694 l 57 694 l 57 818 m 499 -319 q 405 -301 443 -319 q 335 -261 367 -283 l 374 -200 q 497 -239 431 -239 q 563 -189 563 -239 q 544 -153 563 -165 q 482 -142 526 -142 l 413 -142 l 413 0 l 500 0 l 500 -78 q 624 -103 583 -75 q 665 -192 665 -132 q 619 -286 665 -253 q 499 -319 574 -319 m 411 910 q 253 957 313 910 q 181 1094 194 1004 l 281 1110 q 411 1008 293 1008 q 506 1034 472 1008 q 543 1110 539 1060 l 644 1094 q 571 957 629 1004 q 411 910 513 910 z "},"Ê":{"ha":835,"x_min":56,"x_max":790,"o":"m 57 818 l 682 818 l 760 585 l 643 544 l 589 694 l 322 694 l 322 481 l 567 481 l 567 358 l 322 358 l 322 124 l 622 124 l 674 267 l 790 226 l 713 0 l 56 0 l 56 124 l 179 124 l 181 694 l 57 694 l 57 818 m 413 1096 l 657 954 l 621 901 l 413 981 l 200 901 l 167 954 l 413 1096 z "},"Ế":{"ha":835,"x_min":56,"x_max":790,"o":"m 57 818 l 682 818 l 760 585 l 643 544 l 589 694 l 322 694 l 322 481 l 567 481 l 567 358 l 322 358 l 322 124 l 622 124 l 674 267 l 790 226 l 713 0 l 56 0 l 56 124 l 179 124 l 181 694 l 57 694 l 57 818 m 508 1322 l 567 1218 l 293 1106 l 267 1158 l 508 1322 m 413 1096 l 657 954 l 621 901 l 413 981 l 200 901 l 167 954 l 413 1096 z "},"Ệ":{"ha":835,"x_min":56,"x_max":790,"o":"m 57 818 l 682 818 l 760 585 l 643 544 l 589 694 l 322 694 l 322 481 l 567 481 l 567 358 l 322 358 l 322 124 l 622 124 l 674 267 l 790 226 l 713 0 l 56 0 l 56 124 l 179 124 l 181 694 l 57 694 l 57 818 m 410 -81 q 477 -106 451 -81 q 503 -174 503 -132 q 477 -240 503 -215 q 410 -265 451 -265 q 344 -240 369 -265 q 319 -174 319 -215 q 344 -106 319 -132 q 410 -81 369 -81 m 413 1096 l 657 954 l 621 901 l 413 981 l 200 901 l 167 954 l 413 1096 z "},"Ề":{"ha":835,"x_min":56,"x_max":790,"o":"m 57 818 l 682 818 l 760 585 l 643 544 l 589 694 l 322 694 l 322 481 l 567 481 l 567 358 l 322 358 l 322 124 l 622 124 l 674 267 l 790 226 l 713 0 l 56 0 l 56 124 l 179 124 l 181 694 l 57 694 l 57 818 m 326 1310 l 568 1146 l 542 1093 l 267 1206 l 326 1310 m 413 1096 l 657 954 l 621 901 l 413 981 l 200 901 l 167 954 l 413 1096 z "},"Ể":{"ha":835,"x_min":56,"x_max":790,"o":"m 57 818 l 682 818 l 760 585 l 643 544 l 589 694 l 322 694 l 322 481 l 567 481 l 567 358 l 322 358 l 322 124 l 622 124 l 674 267 l 790 226 l 713 0 l 56 0 l 56 124 l 179 124 l 181 694 l 57 694 l 57 818 m 413 1096 l 657 954 l 621 901 l 413 981 l 200 901 l 167 954 l 413 1096 m 528 1093 q 565 1134 551 1111 q 579 1178 579 1157 q 568 1208 579 1196 q 536 1219 557 1219 q 467 1181 501 1219 l 410 1244 q 554 1317 472 1317 q 644 1285 610 1317 q 678 1199 678 1253 q 652 1120 678 1160 q 574 1046 626 1081 l 528 1093 z "},"Ễ":{"ha":835,"x_min":56,"x_max":790,"o":"m 57 818 l 682 818 l 760 585 l 643 544 l 589 694 l 322 694 l 322 481 l 567 481 l 567 358 l 322 358 l 322 124 l 622 124 l 674 267 l 790 226 l 713 0 l 56 0 l 56 124 l 179 124 l 181 694 l 57 694 l 57 818 m 196 1208 q 272 1253 242 1240 q 344 1265 303 1265 q 393 1258 372 1265 q 447 1235 414 1251 q 489 1216 474 1222 q 522 1210 504 1210 q 567 1219 547 1210 q 624 1254 586 1228 l 644 1169 q 576 1123 606 1136 q 507 1110 547 1110 q 467 1117 486 1110 q 422 1139 449 1125 q 378 1160 396 1153 q 339 1167 360 1167 q 292 1160 311 1167 q 250 1144 272 1154 q 217 1128 228 1133 l 196 1208 m 415 1094 l 660 953 l 624 900 l 415 979 l 203 900 l 169 953 l 415 1094 z "},"Ȅ":{"ha":835,"x_min":56,"x_max":790,"o":"m 57 818 l 682 818 l 760 585 l 643 544 l 589 694 l 322 694 l 322 481 l 567 481 l 567 358 l 322 358 l 322 124 l 622 124 l 674 267 l 790 226 l 713 0 l 56 0 l 56 124 l 179 124 l 181 694 l 57 694 l 57 818 m 397 1218 l 575 944 l 514 901 l 299 1144 l 397 1218 m 139 1189 l 367 956 l 314 901 l 58 1101 l 139 1189 z "},"Ë":{"ha":835,"x_min":56,"x_max":790,"o":"m 57 818 l 682 818 l 760 585 l 643 544 l 589 694 l 322 694 l 322 481 l 567 481 l 567 358 l 322 358 l 322 124 l 622 124 l 674 267 l 790 226 l 713 0 l 56 0 l 56 124 l 179 124 l 181 694 l 57 694 l 57 818 m 282 1100 q 344 1074 317 1100 q 371 1011 371 1047 q 344 949 371 975 q 282 922 318 922 q 219 949 246 922 q 193 1011 193 975 q 219 1074 193 1047 q 282 1100 246 1100 m 540 1100 q 601 1074 575 1100 q 628 1011 628 1047 q 602 949 628 975 q 540 922 576 922 q 478 949 504 922 q 451 1011 451 975 q 478 1074 451 1047 q 540 1100 504 1100 z "},"Ė":{"ha":835,"x_min":56,"x_max":790,"o":"m 57 818 l 682 818 l 760 585 l 643 544 l 589 694 l 322 694 l 322 481 l 567 481 l 567 358 l 322 358 l 322 124 l 622 124 l 674 267 l 790 226 l 713 0 l 56 0 l 56 124 l 179 124 l 181 694 l 57 694 l 57 818 m 411 1118 q 478 1092 453 1118 q 504 1025 504 1067 q 478 958 504 983 q 411 933 453 933 q 346 958 371 933 q 321 1025 321 983 q 346 1092 321 1067 q 411 1118 371 1118 z "},"Ẹ":{"ha":835,"x_min":56,"x_max":790,"o":"m 57 818 l 682 818 l 760 585 l 643 544 l 589 694 l 322 694 l 322 481 l 567 481 l 567 358 l 322 358 l 322 124 l 622 124 l 674 267 l 790 226 l 713 0 l 56 0 l 56 124 l 179 124 l 181 694 l 57 694 l 57 818 m 410 -81 q 477 -106 451 -81 q 503 -174 503 -132 q 477 -240 503 -215 q 410 -265 451 -265 q 344 -240 369 -265 q 319 -174 319 -215 q 344 -106 319 -132 q 410 -81 369 -81 z "},"È":{"ha":835,"x_min":56,"x_max":790,"o":"m 57 818 l 682 818 l 760 585 l 643 544 l 589 694 l 322 694 l 322 481 l 567 481 l 567 358 l 322 358 l 322 124 l 622 124 l 674 267 l 790 226 l 713 0 l 56 0 l 56 124 l 179 124 l 181 694 l 57 694 l 57 818 m 168 1085 l 506 964 l 488 907 l 136 965 l 168 1085 z "},"Ẻ":{"ha":835,"x_min":56,"x_max":790,"o":"m 57 818 l 682 818 l 760 585 l 643 544 l 589 694 l 322 694 l 322 481 l 567 481 l 567 358 l 322 358 l 322 124 l 622 124 l 674 267 l 790 226 l 713 0 l 56 0 l 56 124 l 179 124 l 181 694 l 57 694 l 57 818 m 388 935 q 425 976 411 953 q 439 1019 439 999 q 428 1049 439 1038 q 396 1061 417 1061 q 326 1022 361 1061 l 269 1086 q 414 1158 332 1158 q 503 1126 469 1158 q 538 1040 538 1094 q 512 962 538 1001 q 433 888 486 922 l 388 935 z "},"Ȇ":{"ha":835,"x_min":56,"x_max":790,"o":"m 57 818 l 682 818 l 760 585 l 643 544 l 589 694 l 322 694 l 322 481 l 567 481 l 567 358 l 322 358 l 322 124 l 622 124 l 674 267 l 790 226 l 713 0 l 56 0 l 56 124 l 179 124 l 181 694 l 57 694 l 57 818 m 411 1124 q 571 1076 513 1124 q 644 939 629 1029 l 543 924 q 506 999 539 974 q 411 1025 472 1025 q 281 924 293 1025 l 181 939 q 253 1076 194 1029 q 411 1124 313 1124 z "},"Ē":{"ha":835,"x_min":56,"x_max":790,"o":"m 57 818 l 682 818 l 760 585 l 643 544 l 589 694 l 322 694 l 322 481 l 567 481 l 567 358 l 322 358 l 322 124 l 622 124 l 674 267 l 790 226 l 713 0 l 56 0 l 56 124 l 179 124 l 181 694 l 57 694 l 57 818 m 189 1050 l 635 1050 l 635 954 l 189 954 l 189 1050 z "},"Ḗ":{"ha":835,"x_min":56,"x_max":790,"o":"m 57 818 l 682 818 l 760 585 l 643 544 l 589 694 l 322 694 l 322 481 l 567 481 l 567 358 l 322 358 l 322 124 l 622 124 l 674 267 l 790 226 l 713 0 l 56 0 l 56 124 l 179 124 l 181 694 l 57 694 l 57 818 m 189 1050 l 635 1050 l 635 954 l 189 954 l 189 1050 m 639 1293 l 671 1172 l 321 1114 l 301 1172 l 639 1293 z "},"Ḕ":{"ha":835,"x_min":56,"x_max":790,"o":"m 57 818 l 682 818 l 760 585 l 643 544 l 589 694 l 322 694 l 322 481 l 567 481 l 567 358 l 322 358 l 322 124 l 622 124 l 674 267 l 790 226 l 713 0 l 56 0 l 56 124 l 179 124 l 181 694 l 57 694 l 57 818 m 189 1050 l 635 1050 l 635 954 l 189 954 l 189 1050 m 181 1290 l 518 1169 l 500 1113 l 149 1171 l 181 1290 z "},"Ę":{"ha":835,"x_min":56,"x_max":790,"o":"m 600 -147 q 623 -196 600 -178 q 683 -214 646 -214 q 751 -200 713 -214 l 751 -294 q 633 -321 690 -321 q 510 -285 557 -321 q 464 -192 464 -249 q 599 0 464 -76 l 56 0 l 56 124 l 179 124 l 181 694 l 57 694 l 57 818 l 682 818 l 760 585 l 643 544 l 589 694 l 322 694 l 322 481 l 567 481 l 567 358 l 322 358 l 322 124 l 622 124 l 674 267 l 790 226 l 713 0 q 600 -147 600 -60 z "},"Ẽ":{"ha":835,"x_min":56,"x_max":790,"o":"m 57 818 l 682 818 l 760 585 l 643 544 l 589 694 l 322 694 l 322 481 l 567 481 l 567 358 l 322 358 l 322 124 l 622 124 l 674 267 l 790 226 l 713 0 l 56 0 l 56 124 l 179 124 l 181 694 l 57 694 l 57 818 m 193 1007 q 274 1057 240 1043 q 354 1071 308 1071 q 403 1063 382 1071 q 458 1040 425 1056 q 532 1015 501 1015 q 577 1024 557 1015 q 633 1058 597 1033 l 669 974 q 596 922 628 936 q 519 908 564 908 q 480 916 499 908 q 435 938 461 924 q 390 958 408 951 q 351 965 372 965 q 304 959 324 965 q 263 942 285 953 q 229 926 240 932 l 193 1007 z "},"F":{"ha":799,"x_min":56,"x_max":761,"o":"m 56 818 l 682 818 l 761 579 l 644 540 l 589 694 l 321 694 l 321 475 l 540 475 l 540 351 l 319 351 l 319 124 l 493 124 l 493 0 l 56 0 l 56 124 l 179 124 l 181 694 l 56 694 l 56 818 z "},"G":{"ha":851,"x_min":60,"x_max":776,"o":"m 768 79 q 626 -1 689 24 q 464 -25 563 -25 q 254 26 346 -25 q 111 176 163 78 q 60 410 60 274 q 110 638 60 540 q 253 790 160 736 q 472 843 346 843 q 738 761 632 843 l 776 590 l 657 563 l 629 686 q 558 715 593 706 q 475 725 524 725 q 343 687 404 725 q 245 577 282 649 q 208 410 208 506 q 280 177 208 258 q 463 96 351 96 q 555 107 517 96 q 633 142 593 118 l 633 299 l 456 299 l 456 414 l 768 414 l 768 79 z "},"Ğ":{"ha":851,"x_min":60,"x_max":776,"o":"m 768 79 q 626 -1 689 24 q 464 -25 563 -25 q 254 26 346 -25 q 111 176 163 78 q 60 410 60 274 q 110 638 60 540 q 253 790 160 736 q 472 843 346 843 q 738 761 632 843 l 776 590 l 657 563 l 629 686 q 558 715 593 706 q 475 725 524 725 q 343 687 404 725 q 245 577 282 649 q 208 410 208 506 q 280 177 208 258 q 463 96 351 96 q 555 107 517 96 q 633 142 593 118 l 633 299 l 456 299 l 456 414 l 768 414 l 768 79 m 475 910 q 317 957 376 910 q 244 1094 258 1004 l 344 1110 q 475 1008 357 1008 q 569 1034 536 1008 q 607 1110 603 1060 l 708 1094 q 635 957 693 1004 q 475 910 576 910 z "},"Ǧ":{"ha":851,"x_min":60,"x_max":776,"o":"m 768 79 q 626 -1 689 24 q 464 -25 563 -25 q 254 26 346 -25 q 111 176 163 78 q 60 410 60 274 q 110 638 60 540 q 253 790 160 736 q 472 843 346 843 q 738 761 632 843 l 776 590 l 657 563 l 629 686 q 558 715 593 706 q 475 725 524 725 q 343 687 404 725 q 245 577 282 649 q 208 410 208 506 q 280 177 208 258 q 463 96 351 96 q 555 107 517 96 q 633 142 593 118 l 633 299 l 456 299 l 456 414 l 768 414 l 768 79 m 478 889 l 253 1040 l 296 1106 l 479 1007 l 656 1107 l 699 1040 l 478 889 z "},"Ĝ":{"ha":851,"x_min":60,"x_max":776,"o":"m 768 79 q 626 -1 689 24 q 464 -25 563 -25 q 254 26 346 -25 q 111 176 163 78 q 60 410 60 274 q 110 638 60 540 q 253 790 160 736 q 472 843 346 843 q 738 761 632 843 l 776 590 l 657 563 l 629 686 q 558 715 593 706 q 475 725 524 725 q 343 687 404 725 q 245 577 282 649 q 208 410 208 506 q 280 177 208 258 q 463 96 351 96 q 555 107 517 96 q 633 142 593 118 l 633 299 l 456 299 l 456 414 l 768 414 l 768 79 m 476 1096 l 721 954 l 685 901 l 476 981 l 264 901 l 231 954 l 476 1096 z "},"Ģ":{"ha":851,"x_min":60,"x_max":776,"o":"m 768 79 q 626 -1 689 24 q 464 -25 563 -25 q 254 26 346 -25 q 111 176 163 78 q 60 410 60 274 q 110 638 60 540 q 253 790 160 736 q 472 843 346 843 q 738 761 632 843 l 776 590 l 657 563 l 629 686 q 558 715 593 706 q 475 725 524 725 q 343 687 404 725 q 245 577 282 649 q 208 410 208 506 q 280 177 208 258 q 463 96 351 96 q 555 107 517 96 q 633 142 593 118 l 633 299 l 456 299 l 456 414 l 768 414 l 768 79 m 388 -394 q 417 -351 394 -385 q 453 -286 439 -317 q 393 -253 414 -279 q 372 -194 372 -228 q 401 -123 372 -150 q 475 -96 429 -96 q 549 -128 517 -96 q 581 -201 581 -160 q 438 -444 582 -311 l 388 -394 z "},"Ġ":{"ha":851,"x_min":60,"x_max":776,"o":"m 768 79 q 626 -1 689 24 q 464 -25 563 -25 q 254 26 346 -25 q 111 176 163 78 q 60 410 60 274 q 110 638 60 540 q 253 790 160 736 q 472 843 346 843 q 738 761 632 843 l 776 590 l 657 563 l 629 686 q 558 715 593 706 q 475 725 524 725 q 343 687 404 725 q 245 577 282 649 q 208 410 208 506 q 280 177 208 258 q 463 96 351 96 q 555 107 517 96 q 633 142 593 118 l 633 299 l 456 299 l 456 414 l 768 414 l 768 79 m 475 1118 q 542 1092 517 1118 q 568 1025 568 1067 q 542 958 568 983 q 475 933 517 933 q 410 958 435 933 q 385 1025 385 983 q 410 1092 385 1067 q 475 1118 435 1118 z "},"Ḡ":{"ha":851,"x_min":60,"x_max":776,"o":"m 768 79 q 626 -1 689 24 q 464 -25 563 -25 q 254 26 346 -25 q 111 176 163 78 q 60 410 60 274 q 110 638 60 540 q 253 790 160 736 q 472 843 346 843 q 738 761 632 843 l 776 590 l 657 563 l 629 686 q 558 715 593 706 q 475 725 524 725 q 343 687 404 725 q 245 577 282 649 q 208 410 208 506 q 280 177 208 258 q 463 96 351 96 q 555 107 517 96 q 633 142 593 118 l 633 299 l 456 299 l 456 414 l 768 414 l 768 79 m 253 1050 l 699 1050 l 699 954 l 253 954 l 253 1050 z "},"H":{"ha":1011,"x_min":56,"x_max":956,"o":"m 56 818 l 406 818 l 406 694 l 322 694 l 321 478 l 690 478 l 690 694 l 608 694 l 608 818 l 956 818 l 956 694 l 833 694 l 831 124 l 954 124 l 954 0 l 608 0 l 608 124 l 690 124 l 690 354 l 321 354 l 321 124 l 403 124 l 403 0 l 56 0 l 56 124 l 179 124 l 179 694 l 56 694 l 56 818 z "},"Ħ":{"ha":1011,"x_min":56,"x_max":956,"o":"m 956 694 l 833 694 l 833 629 l 933 629 l 933 553 l 833 553 l 831 124 l 954 124 l 954 0 l 608 0 l 608 124 l 690 124 l 690 354 l 321 354 l 321 124 l 403 124 l 403 0 l 56 0 l 56 124 l 179 124 l 179 553 l 71 553 l 71 629 l 179 629 l 179 694 l 56 694 l 56 818 l 406 818 l 406 694 l 322 694 l 322 629 l 690 629 l 690 694 l 608 694 l 608 818 l 956 818 l 956 694 m 690 478 l 690 553 l 321 553 l 321 478 l 690 478 z "},"Ḫ":{"ha":1011,"x_min":56,"x_max":956,"o":"m 56 818 l 406 818 l 406 694 l 322 694 l 321 478 l 690 478 l 690 694 l 608 694 l 608 818 l 956 818 l 956 694 l 833 694 l 831 124 l 954 124 l 954 0 l 608 0 l 608 124 l 690 124 l 690 354 l 321 354 l 321 124 l 403 124 l 403 0 l 56 0 l 56 124 l 179 124 l 179 694 l 56 694 l 56 818 m 504 -272 q 347 -225 406 -272 q 274 -87 288 -178 l 374 -72 q 504 -174 386 -174 q 599 -148 565 -174 q 636 -72 632 -122 l 738 -87 q 664 -225 722 -178 q 504 -272 606 -272 z "},"Ĥ":{"ha":1011,"x_min":56,"x_max":956,"o":"m 56 818 l 406 818 l 406 694 l 322 694 l 321 478 l 690 478 l 690 694 l 608 694 l 608 818 l 956 818 l 956 694 l 833 694 l 831 124 l 954 124 l 954 0 l 608 0 l 608 124 l 690 124 l 690 354 l 321 354 l 321 124 l 403 124 l 403 0 l 56 0 l 56 124 l 179 124 l 179 694 l 56 694 l 56 818 m 506 1096 l 750 954 l 714 901 l 506 981 l 293 901 l 260 954 l 506 1096 z "},"Ḥ":{"ha":1011,"x_min":56,"x_max":956,"o":"m 56 818 l 406 818 l 406 694 l 322 694 l 321 478 l 690 478 l 690 694 l 608 694 l 608 818 l 956 818 l 956 694 l 833 694 l 831 124 l 954 124 l 954 0 l 608 0 l 608 124 l 690 124 l 690 354 l 321 354 l 321 124 l 403 124 l 403 0 l 56 0 l 56 124 l 179 124 l 179 694 l 56 694 l 56 818 m 503 -81 q 570 -106 544 -81 q 596 -174 596 -132 q 570 -240 596 -215 q 503 -265 544 -265 q 438 -240 463 -265 q 413 -174 413 -215 q 438 -106 413 -132 q 503 -81 463 -81 z "},"I":{"ha":517,"x_min":56,"x_max":463,"o":"m 57 818 l 463 818 l 463 694 l 332 694 l 331 124 l 463 124 l 463 0 l 56 0 l 56 124 l 189 124 l 189 694 l 57 694 l 57 818 z "},"Í":{"ha":517,"x_min":56,"x_max":506,"o":"m 57 818 l 463 818 l 463 694 l 332 694 l 331 124 l 463 124 l 463 0 l 56 0 l 56 124 l 189 124 l 189 694 l 57 694 l 57 818 m 474 1088 l 506 967 l 156 908 l 136 967 l 474 1088 z "},"Ĭ":{"ha":517,"x_min":28,"x_max":492,"o":"m 57 818 l 463 818 l 463 694 l 332 694 l 331 124 l 463 124 l 463 0 l 56 0 l 56 124 l 189 124 l 189 694 l 57 694 l 57 818 m 258 910 q 101 957 160 910 q 28 1094 42 1004 l 128 1110 q 258 1008 140 1008 q 353 1034 319 1008 q 390 1110 386 1060 l 492 1094 q 418 957 476 1004 q 258 910 360 910 z "},"Î":{"ha":517,"x_min":14,"x_max":504,"o":"m 57 818 l 463 818 l 463 694 l 332 694 l 331 124 l 463 124 l 463 0 l 56 0 l 56 124 l 189 124 l 189 694 l 57 694 l 57 818 m 260 1096 l 504 954 l 468 901 l 260 981 l 47 901 l 14 954 l 260 1096 z "},"Ȉ":{"ha":517,"x_min":-94,"x_max":463,"o":"m 57 818 l 463 818 l 463 694 l 332 694 l 331 124 l 463 124 l 463 0 l 56 0 l 56 124 l 189 124 l 189 694 l 57 694 l 57 818 m 244 1218 l 422 944 l 361 901 l 146 1144 l 244 1218 m -14 1189 l 214 956 l 161 901 l -94 1101 l -14 1189 z "},"Ï":{"ha":517,"x_min":40,"x_max":475,"o":"m 57 818 l 463 818 l 463 694 l 332 694 l 331 124 l 463 124 l 463 0 l 56 0 l 56 124 l 189 124 l 189 694 l 57 694 l 57 818 m 129 1100 q 191 1074 164 1100 q 218 1011 218 1047 q 192 949 218 975 q 129 922 165 922 q 67 949 93 922 q 40 1011 40 975 q 67 1074 40 1047 q 129 1100 93 1100 m 388 1100 q 449 1074 422 1100 q 475 1011 475 1047 q 449 949 475 975 q 388 922 424 922 q 325 949 351 922 q 299 1011 299 975 q 325 1074 299 1047 q 388 1100 351 1100 z "},"Ḯ":{"ha":517,"x_min":40,"x_max":506,"o":"m 57 818 l 463 818 l 463 694 l 332 694 l 331 124 l 463 124 l 463 0 l 56 0 l 56 124 l 189 124 l 189 694 l 57 694 l 57 818 m 129 1100 q 191 1074 164 1100 q 218 1011 218 1047 q 192 949 218 975 q 129 922 165 922 q 67 949 93 922 q 40 1011 40 975 q 67 1074 40 1047 q 129 1100 93 1100 m 388 1100 q 449 1074 422 1100 q 475 1011 475 1047 q 449 949 475 975 q 388 922 424 922 q 325 949 351 922 q 299 1011 299 975 q 325 1074 299 1047 q 388 1100 351 1100 m 474 1292 l 506 1171 l 156 1113 l 136 1171 l 474 1292 z "},"İ":{"ha":517,"x_min":56,"x_max":463,"o":"m 57 818 l 463 818 l 463 694 l 332 694 l 331 124 l 463 124 l 463 0 l 56 0 l 56 124 l 189 124 l 189 694 l 57 694 l 57 818 m 258 1118 q 326 1092 300 1118 q 351 1025 351 1067 q 326 958 351 983 q 258 933 300 933 q 193 958 218 933 q 168 1025 168 983 q 193 1092 168 1067 q 258 1118 218 1118 z "},"Ị":{"ha":517,"x_min":56,"x_max":463,"o":"m 57 818 l 463 818 l 463 694 l 332 694 l 331 124 l 463 124 l 463 0 l 56 0 l 56 124 l 189 124 l 189 694 l 57 694 l 57 818 m 264 -81 q 331 -106 306 -81 q 357 -174 357 -132 q 331 -240 357 -215 q 264 -265 306 -265 q 199 -240 224 -265 q 174 -174 174 -215 q 199 -106 174 -132 q 264 -81 224 -81 z "},"Ì":{"ha":517,"x_min":-17,"x_max":463,"o":"m 57 818 l 463 818 l 463 694 l 332 694 l 331 124 l 463 124 l 463 0 l 56 0 l 56 124 l 189 124 l 189 694 l 57 694 l 57 818 m 15 1085 l 353 964 l 335 907 l -17 965 l 15 1085 z "},"Ỉ":{"ha":517,"x_min":56,"x_max":463,"o":"m 57 818 l 463 818 l 463 694 l 332 694 l 331 124 l 463 124 l 463 0 l 56 0 l 56 124 l 189 124 l 189 694 l 57 694 l 57 818 m 235 935 q 272 976 258 953 q 286 1019 286 999 q 275 1049 286 1038 q 243 1061 264 1061 q 174 1022 208 1061 l 117 1086 q 261 1158 179 1158 q 351 1126 317 1158 q 385 1040 385 1094 q 359 962 385 1001 q 281 888 333 922 l 235 935 z "},"Ȋ":{"ha":517,"x_min":28,"x_max":492,"o":"m 57 818 l 463 818 l 463 694 l 332 694 l 331 124 l 463 124 l 463 0 l 56 0 l 56 124 l 189 124 l 189 694 l 57 694 l 57 818 m 258 1124 q 418 1076 360 1124 q 492 939 476 1029 l 390 924 q 353 999 386 974 q 258 1025 319 1025 q 128 924 140 1025 l 28 939 q 101 1076 42 1029 q 258 1124 160 1124 z "},"Ī":{"ha":517,"x_min":36,"x_max":482,"o":"m 57 818 l 463 818 l 463 694 l 332 694 l 331 124 l 463 124 l 463 0 l 56 0 l 56 124 l 189 124 l 189 694 l 57 694 l 57 818 m 36 1050 l 482 1050 l 482 954 l 36 954 l 36 1050 z "},"Į":{"ha":517,"x_min":56,"x_max":501,"o":"m 433 -214 q 501 -200 463 -214 l 501 -294 q 383 -321 440 -321 q 260 -285 307 -321 q 214 -192 214 -249 q 349 0 214 -76 l 56 0 l 56 124 l 189 124 l 189 694 l 57 694 l 57 818 l 463 818 l 463 694 l 332 694 l 331 124 l 463 124 l 463 0 q 350 -147 350 -60 q 373 -196 350 -178 q 433 -214 396 -214 z "},"Ĩ":{"ha":517,"x_min":40,"x_max":517,"o":"m 57 818 l 463 818 l 463 694 l 332 694 l 331 124 l 463 124 l 463 0 l 56 0 l 56 124 l 189 124 l 189 694 l 57 694 l 57 818 m 40 1007 q 122 1057 88 1043 q 201 1071 156 1071 q 251 1063 229 1071 q 306 1040 272 1056 q 379 1015 349 1015 q 424 1024 404 1015 q 481 1058 444 1033 l 517 974 q 443 922 475 936 q 367 908 411 908 q 327 916 346 908 q 282 938 308 924 q 238 958 256 951 q 199 965 219 965 q 151 959 171 965 q 110 942 132 953 q 76 926 88 932 l 40 1007 z "},"J":{"ha":726,"x_min":33,"x_max":688,"o":"m 564 331 q 492 67 564 160 q 278 -25 421 -25 q 178 -11 226 -25 q 72 28 129 3 l 33 215 l 154 244 l 183 113 q 272 93 231 93 q 382 150 343 93 q 421 310 421 207 l 421 694 l 244 694 l 244 818 l 688 818 l 688 694 l 564 694 l 564 331 z "},"Ĵ":{"ha":726,"x_min":33,"x_max":728,"o":"m 564 331 q 492 67 564 160 q 278 -25 421 -25 q 178 -11 226 -25 q 72 28 129 3 l 33 215 l 154 244 l 183 113 q 272 93 231 93 q 382 150 343 93 q 421 310 421 207 l 421 694 l 244 694 l 244 818 l 688 818 l 688 694 l 564 694 l 564 331 m 483 1096 l 728 954 l 692 901 l 483 981 l 271 901 l 238 954 l 483 1096 z "},"K":{"ha":950,"x_min":56,"x_max":901,"o":"m 56 818 l 401 818 l 401 694 l 318 694 l 318 469 l 432 469 l 597 694 l 515 694 l 515 818 l 868 818 l 868 694 l 740 694 l 542 436 l 763 124 l 901 124 l 901 0 l 506 0 l 506 124 l 608 124 l 451 350 l 318 350 l 319 124 l 401 124 l 401 0 l 56 0 l 56 124 l 178 124 l 178 694 l 56 694 l 56 818 z "},"Ķ":{"ha":950,"x_min":56,"x_max":901,"o":"m 56 818 l 401 818 l 401 694 l 318 694 l 318 469 l 432 469 l 597 694 l 515 694 l 515 818 l 868 818 l 868 694 l 740 694 l 542 436 l 763 124 l 901 124 l 901 0 l 506 0 l 506 124 l 608 124 l 451 350 l 318 350 l 319 124 l 401 124 l 401 0 l 56 0 l 56 124 l 178 124 l 178 694 l 56 694 l 56 818 m 368 -394 q 397 -351 375 -385 q 433 -286 419 -317 q 374 -253 394 -279 q 353 -194 353 -228 q 381 -123 353 -150 q 456 -96 410 -96 q 529 -128 497 -96 q 561 -201 561 -160 q 418 -444 563 -311 l 368 -394 z "},"L":{"ha":775,"x_min":56,"x_max":743,"o":"m 56 818 l 488 818 l 488 694 l 339 694 l 338 124 l 575 124 l 626 265 l 743 225 l 665 0 l 56 0 l 56 124 l 197 124 l 199 694 l 56 694 l 56 818 z "},"Ĺ":{"ha":775,"x_min":56,"x_max":743,"o":"m 56 818 l 488 818 l 488 694 l 339 694 l 338 124 l 575 124 l 626 265 l 743 225 l 665 0 l 56 0 l 56 124 l 197 124 l 199 694 l 56 694 l 56 818 m 500 1088 l 532 967 l 182 908 l 163 967 l 500 1088 z "},"Ľ":{"ha":775,"x_min":56,"x_max":743,"o":"m 56 818 l 488 818 l 488 694 l 339 694 l 338 124 l 575 124 l 626 265 l 743 225 l 665 0 l 56 0 l 56 124 l 197 124 l 199 694 l 56 694 l 56 818 m 617 860 l 736 833 l 638 524 l 564 538 l 617 860 z "},"Ļ":{"ha":775,"x_min":56,"x_max":743,"o":"m 56 818 l 488 818 l 488 694 l 339 694 l 338 124 l 575 124 l 626 265 l 743 225 l 665 0 l 56 0 l 56 124 l 197 124 l 199 694 l 56 694 l 56 818 m 288 -394 q 317 -351 294 -385 q 353 -286 339 -317 q 293 -253 314 -279 q 272 -194 272 -228 q 301 -123 272 -150 q 375 -96 329 -96 q 449 -128 417 -96 q 481 -201 481 -160 q 338 -444 482 -311 l 288 -394 z "},"Ŀ":{"ha":833,"x_min":56,"x_max":743,"o":"m 56 818 l 488 818 l 488 694 l 339 694 l 338 124 l 575 124 l 626 265 l 743 225 l 665 0 l 56 0 l 56 124 l 197 124 l 199 694 l 56 694 l 56 818 m 508 563 q 579 533 549 563 q 610 461 610 503 q 579 390 610 419 q 508 360 549 360 q 437 390 467 360 q 407 461 407 419 q 437 533 407 503 q 508 563 467 563 z "},"Ḷ":{"ha":775,"x_min":56,"x_max":743,"o":"m 56 818 l 488 818 l 488 694 l 339 694 l 338 124 l 575 124 l 626 265 l 743 225 l 665 0 l 56 0 l 56 124 l 197 124 l 199 694 l 56 694 l 56 818 m 374 -81 q 441 -106 415 -81 q 467 -174 467 -132 q 441 -240 467 -215 q 374 -265 415 -265 q 308 -240 333 -265 q 283 -174 283 -215 q 308 -106 283 -132 q 374 -81 333 -81 z "},"Ḻ":{"ha":775,"x_min":56,"x_max":743,"o":"m 56 818 l 488 818 l 488 694 l 339 694 l 338 124 l 575 124 l 626 265 l 743 225 l 665 0 l 56 0 l 56 124 l 197 124 l 199 694 l 56 694 l 56 818 m 154 -68 l 599 -68 l 599 -167 l 154 -167 l 154 -68 z "},"Ł":{"ha":775,"x_min":56,"x_max":743,"o":"m 626 265 l 743 225 l 665 0 l 56 0 l 56 124 l 197 124 l 197 275 l 104 224 l 104 336 l 197 388 l 199 694 l 56 694 l 56 818 l 488 818 l 488 694 l 339 694 l 339 465 l 594 606 l 594 493 l 338 353 l 338 124 l 575 124 l 626 265 z "},"M":{"ha":1194,"x_min":54,"x_max":1139,"o":"m 57 818 l 401 818 l 606 278 l 797 818 l 1139 818 l 1139 694 l 1017 694 l 1017 124 l 1139 124 l 1139 0 l 786 0 l 786 124 l 875 124 l 875 711 l 817 526 l 661 99 l 543 99 l 369 539 l 311 706 l 308 124 l 400 124 l 400 0 l 54 0 l 54 124 l 178 124 l 179 694 l 57 694 l 57 818 z "},"Ṃ":{"ha":1194,"x_min":54,"x_max":1139,"o":"m 57 818 l 401 818 l 606 278 l 797 818 l 1139 818 l 1139 694 l 1017 694 l 1017 124 l 1139 124 l 1139 0 l 786 0 l 786 124 l 875 124 l 875 711 l 817 526 l 661 99 l 543 99 l 369 539 l 311 706 l 308 124 l 400 124 l 400 0 l 54 0 l 54 124 l 178 124 l 179 694 l 57 694 l 57 818 m 596 -81 q 663 -106 638 -81 q 689 -174 689 -132 q 663 -240 689 -215 q 596 -265 638 -265 q 531 -240 556 -265 q 506 -174 506 -215 q 531 -106 506 -132 q 596 -81 556 -81 z "},"N":{"ha":1017,"x_min":56,"x_max":978,"o":"m 57 818 l 396 818 l 714 207 l 714 694 l 604 694 l 604 818 l 978 818 l 978 694 l 846 694 l 846 0 l 678 0 l 311 696 l 313 124 l 429 124 l 429 0 l 56 0 l 56 124 l 181 124 l 179 694 l 57 694 l 57 818 z "},"Ń":{"ha":1017,"x_min":56,"x_max":978,"o":"m 57 818 l 396 818 l 714 207 l 714 694 l 604 694 l 604 818 l 978 818 l 978 694 l 846 694 l 846 0 l 678 0 l 311 696 l 313 124 l 429 124 l 429 0 l 56 0 l 56 124 l 181 124 l 179 694 l 57 694 l 57 818 m 726 1088 l 758 967 l 408 908 l 389 967 l 726 1088 z "},"Ň":{"ha":1017,"x_min":56,"x_max":978,"o":"m 57 818 l 396 818 l 714 207 l 714 694 l 604 694 l 604 818 l 978 818 l 978 694 l 846 694 l 846 0 l 678 0 l 311 696 l 313 124 l 429 124 l 429 0 l 56 0 l 56 124 l 181 124 l 179 694 l 57 694 l 57 818 m 514 889 l 289 1040 l 332 1106 l 515 1007 l 692 1107 l 735 1040 l 514 889 z "},"Ņ":{"ha":1017,"x_min":56,"x_max":978,"o":"m 57 818 l 396 818 l 714 207 l 714 694 l 604 694 l 604 818 l 978 818 l 978 694 l 846 694 l 846 0 l 678 0 l 311 696 l 313 124 l 429 124 l 429 0 l 56 0 l 56 124 l 181 124 l 179 694 l 57 694 l 57 818 m 424 -394 q 453 -351 431 -385 q 489 -286 475 -317 q 429 -253 450 -279 q 408 -194 408 -228 q 437 -123 408 -150 q 511 -96 465 -96 q 585 -128 553 -96 q 617 -201 617 -160 q 474 -444 618 -311 l 424 -394 z "},"Ṅ":{"ha":1017,"x_min":56,"x_max":978,"o":"m 57 818 l 396 818 l 714 207 l 714 694 l 604 694 l 604 818 l 978 818 l 978 694 l 846 694 l 846 0 l 678 0 l 311 696 l 313 124 l 429 124 l 429 0 l 56 0 l 56 124 l 181 124 l 179 694 l 57 694 l 57 818 m 511 1118 q 578 1092 553 1118 q 604 1025 604 1067 q 578 958 604 983 q 511 933 553 933 q 446 958 471 933 q 421 1025 421 983 q 446 1092 421 1067 q 511 1118 471 1118 z "},"Ṇ":{"ha":1017,"x_min":56,"x_max":978,"o":"m 57 818 l 396 818 l 714 207 l 714 694 l 604 694 l 604 818 l 978 818 l 978 694 l 846 694 l 846 0 l 678 0 l 311 696 l 313 124 l 429 124 l 429 0 l 56 0 l 56 124 l 181 124 l 179 694 l 57 694 l 57 818 m 510 -81 q 577 -106 551 -81 q 603 -174 603 -132 q 577 -240 603 -215 q 510 -265 551 -265 q 444 -240 469 -265 q 419 -174 419 -215 q 444 -106 419 -132 q 510 -81 469 -81 z "},"Ŋ":{"ha":1017,"x_min":56,"x_max":978,"o":"m 592 -325 q 397 -285 492 -325 l 432 -182 q 565 -208 503 -208 q 667 -169 629 -208 q 711 -54 704 -131 l 311 696 l 313 124 l 429 124 l 429 0 l 56 0 l 56 124 l 181 124 l 179 694 l 57 694 l 57 818 l 396 818 l 714 207 l 714 694 l 604 694 l 604 818 l 978 818 l 978 694 l 846 694 l 846 -7 q 776 -242 843 -160 q 592 -325 710 -325 z "},"Ṉ":{"ha":1017,"x_min":56,"x_max":978,"o":"m 57 818 l 396 818 l 714 207 l 714 694 l 604 694 l 604 818 l 978 818 l 978 694 l 846 694 l 846 0 l 678 0 l 311 696 l 313 124 l 429 124 l 429 0 l 56 0 l 56 124 l 181 124 l 179 694 l 57 694 l 57 818 m 290 -68 l 735 -68 l 735 -167 l 290 -167 l 290 -68 z "},"Ñ":{"ha":1017,"x_min":56,"x_max":978,"o":"m 57 818 l 396 818 l 714 207 l 714 694 l 604 694 l 604 818 l 978 818 l 978 694 l 846 694 l 846 0 l 678 0 l 311 696 l 313 124 l 429 124 l 429 0 l 56 0 l 56 124 l 181 124 l 179 694 l 57 694 l 57 818 m 293 1007 q 374 1057 340 1043 q 454 1071 408 1071 q 503 1063 482 1071 q 558 1040 525 1056 q 632 1015 601 1015 q 677 1024 657 1015 q 733 1058 697 1033 l 769 974 q 696 922 728 936 q 619 908 664 908 q 580 916 599 908 q 535 938 561 924 q 490 958 508 951 q 451 965 472 965 q 404 959 424 965 q 363 942 385 953 q 329 926 340 932 l 293 1007 z "},"O":{"ha":911,"x_min":60,"x_max":851,"o":"m 454 843 q 662 791 572 843 q 801 641 751 739 q 851 410 851 543 q 802 178 851 276 q 663 27 753 79 q 456 -25 574 -25 q 249 28 339 -25 q 110 178 160 81 q 60 410 60 276 q 109 641 60 543 q 248 791 158 739 q 454 843 338 843 m 456 722 q 272 642 336 722 q 208 410 208 561 q 272 177 208 258 q 456 96 336 96 q 639 177 575 96 q 703 410 703 258 q 639 642 703 561 q 456 722 575 722 z "},"Ó":{"ha":911,"x_min":60,"x_max":851,"o":"m 454 843 q 662 791 572 843 q 801 641 751 739 q 851 410 851 543 q 802 178 851 276 q 663 27 753 79 q 456 -25 574 -25 q 249 28 339 -25 q 110 178 160 81 q 60 410 60 276 q 109 641 60 543 q 248 791 158 739 q 454 843 338 843 m 456 722 q 272 642 336 722 q 208 410 208 561 q 272 177 208 258 q 456 96 336 96 q 639 177 575 96 q 703 410 703 258 q 639 642 703 561 q 456 722 575 722 m 669 1088 l 701 967 l 351 908 l 332 967 l 669 1088 z "},"Ŏ":{"ha":911,"x_min":60,"x_max":851,"o":"m 454 843 q 662 791 572 843 q 801 641 751 739 q 851 410 851 543 q 802 178 851 276 q 663 27 753 79 q 456 -25 574 -25 q 249 28 339 -25 q 110 178 160 81 q 60 410 60 276 q 109 641 60 543 q 248 791 158 739 q 454 843 338 843 m 456 722 q 272 642 336 722 q 208 410 208 561 q 272 177 208 258 q 456 96 336 96 q 639 177 575 96 q 703 410 703 258 q 639 642 703 561 q 456 722 575 722 m 454 910 q 297 957 356 910 q 224 1094 238 1004 l 324 1110 q 454 1008 336 1008 q 549 1034 515 1008 q 586 1110 582 1060 l 688 1094 q 614 957 672 1004 q 454 910 556 910 z "},"Ô":{"ha":911,"x_min":60,"x_max":851,"o":"m 454 843 q 662 791 572 843 q 801 641 751 739 q 851 410 851 543 q 802 178 851 276 q 663 27 753 79 q 456 -25 574 -25 q 249 28 339 -25 q 110 178 160 81 q 60 410 60 276 q 109 641 60 543 q 248 791 158 739 q 454 843 338 843 m 456 722 q 272 642 336 722 q 208 410 208 561 q 272 177 208 258 q 456 96 336 96 q 639 177 575 96 q 703 410 703 258 q 639 642 703 561 q 456 722 575 722 m 456 1096 l 700 954 l 664 901 l 456 981 l 243 901 l 210 954 l 456 1096 z "},"Ố":{"ha":911,"x_min":60,"x_max":851,"o":"m 454 843 q 662 791 572 843 q 801 641 751 739 q 851 410 851 543 q 802 178 851 276 q 663 27 753 79 q 456 -25 574 -25 q 249 28 339 -25 q 110 178 160 81 q 60 410 60 276 q 109 641 60 543 q 248 791 158 739 q 454 843 338 843 m 456 722 q 272 642 336 722 q 208 410 208 561 q 272 177 208 258 q 456 96 336 96 q 639 177 575 96 q 703 410 703 258 q 639 642 703 561 q 456 722 575 722 m 551 1322 l 610 1218 l 336 1106 l 310 1158 l 551 1322 m 456 1096 l 700 954 l 664 901 l 456 981 l 243 901 l 210 954 l 456 1096 z "},"Ộ":{"ha":911,"x_min":60,"x_max":851,"o":"m 454 843 q 662 791 572 843 q 801 641 751 739 q 851 410 851 543 q 802 178 851 276 q 663 27 753 79 q 456 -25 574 -25 q 249 28 339 -25 q 110 178 160 81 q 60 410 60 276 q 109 641 60 543 q 248 791 158 739 q 454 843 338 843 m 456 722 q 272 642 336 722 q 208 410 208 561 q 272 177 208 258 q 456 96 336 96 q 639 177 575 96 q 703 410 703 258 q 639 642 703 561 q 456 722 575 722 m 453 -81 q 520 -106 494 -81 q 546 -174 546 -132 q 520 -240 546 -215 q 453 -265 494 -265 q 388 -240 413 -265 q 363 -174 363 -215 q 388 -106 363 -132 q 453 -81 413 -81 m 456 1096 l 700 954 l 664 901 l 456 981 l 243 901 l 210 954 l 456 1096 z "},"Ồ":{"ha":911,"x_min":60,"x_max":851,"o":"m 454 843 q 662 791 572 843 q 801 641 751 739 q 851 410 851 543 q 802 178 851 276 q 663 27 753 79 q 456 -25 574 -25 q 249 28 339 -25 q 110 178 160 81 q 60 410 60 276 q 109 641 60 543 q 248 791 158 739 q 454 843 338 843 m 456 722 q 272 642 336 722 q 208 410 208 561 q 272 177 208 258 q 456 96 336 96 q 639 177 575 96 q 703 410 703 258 q 639 642 703 561 q 456 722 575 722 m 369 1310 l 611 1146 l 585 1093 l 310 1206 l 369 1310 m 456 1096 l 700 954 l 664 901 l 456 981 l 243 901 l 210 954 l 456 1096 z "},"Ổ":{"ha":911,"x_min":60,"x_max":851,"o":"m 454 843 q 662 791 572 843 q 801 641 751 739 q 851 410 851 543 q 802 178 851 276 q 663 27 753 79 q 456 -25 574 -25 q 249 28 339 -25 q 110 178 160 81 q 60 410 60 276 q 109 641 60 543 q 248 791 158 739 q 454 843 338 843 m 456 722 q 272 642 336 722 q 208 410 208 561 q 272 177 208 258 q 456 96 336 96 q 639 177 575 96 q 703 410 703 258 q 639 642 703 561 q 456 722 575 722 m 456 1096 l 700 954 l 664 901 l 456 981 l 243 901 l 210 954 l 456 1096 m 571 1093 q 608 1134 594 1111 q 622 1178 622 1157 q 611 1208 622 1196 q 579 1219 600 1219 q 510 1181 544 1219 l 453 1244 q 597 1317 515 1317 q 687 1285 653 1317 q 721 1199 721 1253 q 695 1120 721 1160 q 617 1046 669 1081 l 571 1093 z "},"Ỗ":{"ha":911,"x_min":60,"x_max":851,"o":"m 454 843 q 662 791 572 843 q 801 641 751 739 q 851 410 851 543 q 802 178 851 276 q 663 27 753 79 q 456 -25 574 -25 q 249 28 339 -25 q 110 178 160 81 q 60 410 60 276 q 109 641 60 543 q 248 791 158 739 q 454 843 338 843 m 456 722 q 272 642 336 722 q 208 410 208 561 q 272 177 208 258 q 456 96 336 96 q 639 177 575 96 q 703 410 703 258 q 639 642 703 561 q 456 722 575 722 m 239 1208 q 315 1253 285 1240 q 388 1265 346 1265 q 436 1258 415 1265 q 490 1235 457 1251 q 532 1216 517 1222 q 565 1210 547 1210 q 610 1219 590 1210 q 667 1254 629 1228 l 688 1169 q 619 1123 649 1136 q 550 1110 590 1110 q 510 1117 529 1110 q 465 1139 492 1125 q 421 1160 439 1153 q 382 1167 403 1167 q 335 1160 354 1167 q 293 1144 315 1154 q 260 1128 271 1133 l 239 1208 m 458 1094 l 703 953 l 667 900 l 458 979 l 246 900 l 213 953 l 458 1094 z "},"Ȍ":{"ha":911,"x_min":60,"x_max":851,"o":"m 454 843 q 662 791 572 843 q 801 641 751 739 q 851 410 851 543 q 802 178 851 276 q 663 27 753 79 q 456 -25 574 -25 q 249 28 339 -25 q 110 178 160 81 q 60 410 60 276 q 109 641 60 543 q 248 791 158 739 q 454 843 338 843 m 456 722 q 272 642 336 722 q 208 410 208 561 q 272 177 208 258 q 456 96 336 96 q 639 177 575 96 q 703 410 703 258 q 639 642 703 561 q 456 722 575 722 m 440 1218 l 618 944 l 557 901 l 342 1144 l 440 1218 m 182 1189 l 410 956 l 357 901 l 101 1101 l 182 1189 z "},"Ö":{"ha":911,"x_min":60,"x_max":851,"o":"m 454 843 q 662 791 572 843 q 801 641 751 739 q 851 410 851 543 q 802 178 851 276 q 663 27 753 79 q 456 -25 574 -25 q 249 28 339 -25 q 110 178 160 81 q 60 410 60 276 q 109 641 60 543 q 248 791 158 739 q 454 843 338 843 m 456 722 q 272 642 336 722 q 208 410 208 561 q 272 177 208 258 q 456 96 336 96 q 639 177 575 96 q 703 410 703 258 q 639 642 703 561 q 456 722 575 722 m 325 1100 q 387 1074 360 1100 q 414 1011 414 1047 q 388 949 414 975 q 325 922 361 922 q 263 949 289 922 q 236 1011 236 975 q 263 1074 236 1047 q 325 1100 289 1100 m 583 1100 q 644 1074 618 1100 q 671 1011 671 1047 q 645 949 671 975 q 583 922 619 922 q 521 949 547 922 q 494 1011 494 975 q 521 1074 494 1047 q 583 1100 547 1100 z "},"Ȫ":{"ha":911,"x_min":60,"x_max":851,"o":"m 454 843 q 662 791 572 843 q 801 641 751 739 q 851 410 851 543 q 802 178 851 276 q 663 27 753 79 q 456 -25 574 -25 q 249 28 339 -25 q 110 178 160 81 q 60 410 60 276 q 109 641 60 543 q 248 791 158 739 q 454 843 338 843 m 456 722 q 272 642 336 722 q 208 410 208 561 q 272 177 208 258 q 456 96 336 96 q 639 177 575 96 q 703 410 703 258 q 639 642 703 561 q 456 722 575 722 m 325 1100 q 387 1074 360 1100 q 414 1011 414 1047 q 388 949 414 975 q 325 922 361 922 q 263 949 289 922 q 236 1011 236 975 q 263 1074 236 1047 q 325 1100 289 1100 m 583 1100 q 644 1074 618 1100 q 671 1011 671 1047 q 645 949 671 975 q 583 922 619 922 q 521 949 547 922 q 494 1011 494 975 q 521 1074 494 1047 q 583 1100 547 1100 m 232 1254 l 678 1254 l 678 1158 l 232 1158 l 232 1254 z "},"Ȱ":{"ha":911,"x_min":60,"x_max":851,"o":"m 454 843 q 662 791 572 843 q 801 641 751 739 q 851 410 851 543 q 802 178 851 276 q 663 27 753 79 q 456 -25 574 -25 q 249 28 339 -25 q 110 178 160 81 q 60 410 60 276 q 109 641 60 543 q 248 791 158 739 q 454 843 338 843 m 456 722 q 272 642 336 722 q 208 410 208 561 q 272 177 208 258 q 456 96 336 96 q 639 177 575 96 q 703 410 703 258 q 639 642 703 561 q 456 722 575 722 m 454 1118 q 522 1092 496 1118 q 547 1025 547 1067 q 522 958 547 983 q 454 933 496 933 q 389 958 414 933 q 364 1025 364 983 q 389 1092 364 1067 q 454 1118 414 1118 m 235 1258 l 681 1258 l 681 1163 l 235 1163 l 235 1258 z "},"Ọ":{"ha":911,"x_min":60,"x_max":851,"o":"m 454 843 q 662 791 572 843 q 801 641 751 739 q 851 410 851 543 q 802 178 851 276 q 663 27 753 79 q 456 -25 574 -25 q 249 28 339 -25 q 110 178 160 81 q 60 410 60 276 q 109 641 60 543 q 248 791 158 739 q 454 843 338 843 m 456 722 q 272 642 336 722 q 208 410 208 561 q 272 177 208 258 q 456 96 336 96 q 639 177 575 96 q 703 410 703 258 q 639 642 703 561 q 456 722 575 722 m 453 -81 q 520 -106 494 -81 q 546 -174 546 -132 q 520 -240 546 -215 q 453 -265 494 -265 q 388 -240 413 -265 q 363 -174 363 -215 q 388 -106 363 -132 q 453 -81 413 -81 z "},"Ò":{"ha":911,"x_min":60,"x_max":851,"o":"m 454 843 q 662 791 572 843 q 801 641 751 739 q 851 410 851 543 q 802 178 851 276 q 663 27 753 79 q 456 -25 574 -25 q 249 28 339 -25 q 110 178 160 81 q 60 410 60 276 q 109 641 60 543 q 248 791 158 739 q 454 843 338 843 m 456 722 q 272 642 336 722 q 208 410 208 561 q 272 177 208 258 q 456 96 336 96 q 639 177 575 96 q 703 410 703 258 q 639 642 703 561 q 456 722 575 722 m 211 1085 l 549 964 l 531 907 l 179 965 l 211 1085 z "},"Ỏ":{"ha":911,"x_min":60,"x_max":851,"o":"m 454 843 q 662 791 572 843 q 801 641 751 739 q 851 410 851 543 q 802 178 851 276 q 663 27 753 79 q 456 -25 574 -25 q 249 28 339 -25 q 110 178 160 81 q 60 410 60 276 q 109 641 60 543 q 248 791 158 739 q 454 843 338 843 m 456 722 q 272 642 336 722 q 208 410 208 561 q 272 177 208 258 q 456 96 336 96 q 639 177 575 96 q 703 410 703 258 q 639 642 703 561 q 456 722 575 722 m 431 935 q 468 976 454 953 q 482 1019 482 999 q 471 1049 482 1038 q 439 1061 460 1061 q 369 1022 404 1061 l 313 1086 q 457 1158 375 1158 q 547 1126 513 1158 q 581 1040 581 1094 q 555 962 581 1001 q 476 888 529 922 l 431 935 z "},"Ơ":{"ha":911,"x_min":60,"x_max":851,"o":"m 721 747 q 817 604 783 690 q 851 410 851 518 q 802 178 851 276 q 663 27 753 79 q 456 -25 574 -25 q 249 28 339 -25 q 110 178 160 81 q 60 410 60 276 q 109 641 60 543 q 248 791 158 739 q 454 843 338 843 q 601 819 533 843 q 660 851 640 824 q 681 928 681 879 l 792 928 q 721 747 792 801 m 456 96 q 639 177 575 96 q 703 410 703 258 q 639 642 703 561 q 456 722 575 722 q 272 642 336 722 q 208 410 208 561 q 272 177 208 258 q 456 96 336 96 z "},"Ớ":{"ha":911,"x_min":60,"x_max":851,"o":"m 721 747 q 817 604 783 690 q 851 410 851 518 q 802 178 851 276 q 663 27 753 79 q 456 -25 574 -25 q 249 28 339 -25 q 110 178 160 81 q 60 410 60 276 q 109 641 60 543 q 248 791 158 739 q 454 843 338 843 q 601 819 533 843 q 660 851 640 824 q 681 928 681 879 l 792 928 q 721 747 792 801 m 456 96 q 639 177 575 96 q 703 410 703 258 q 639 642 703 561 q 456 722 575 722 q 272 642 336 722 q 208 410 208 561 q 272 177 208 258 q 456 96 336 96 m 669 1088 l 701 967 l 351 908 l 332 967 l 669 1088 z "},"Ợ":{"ha":911,"x_min":60,"x_max":851,"o":"m 721 747 q 817 604 783 690 q 851 410 851 518 q 802 178 851 276 q 663 27 753 79 q 456 -25 574 -25 q 249 28 339 -25 q 110 178 160 81 q 60 410 60 276 q 109 641 60 543 q 248 791 158 739 q 454 843 338 843 q 601 819 533 843 q 660 851 640 824 q 681 928 681 879 l 792 928 q 721 747 792 801 m 456 96 q 639 177 575 96 q 703 410 703 258 q 639 642 703 561 q 456 722 575 722 q 272 642 336 722 q 208 410 208 561 q 272 177 208 258 q 456 96 336 96 m 453 -81 q 520 -106 494 -81 q 546 -174 546 -132 q 520 -240 546 -215 q 453 -265 494 -265 q 388 -240 413 -265 q 363 -174 363 -215 q 388 -106 363 -132 q 453 -81 413 -81 z "},"Ờ":{"ha":911,"x_min":60,"x_max":851,"o":"m 721 747 q 817 604 783 690 q 851 410 851 518 q 802 178 851 276 q 663 27 753 79 q 456 -25 574 -25 q 249 28 339 -25 q 110 178 160 81 q 60 410 60 276 q 109 641 60 543 q 248 791 158 739 q 454 843 338 843 q 601 819 533 843 q 660 851 640 824 q 681 928 681 879 l 792 928 q 721 747 792 801 m 456 96 q 639 177 575 96 q 703 410 703 258 q 639 642 703 561 q 456 722 575 722 q 272 642 336 722 q 208 410 208 561 q 272 177 208 258 q 456 96 336 96 m 285 1085 l 622 964 l 604 907 l 253 965 l 285 1085 z "},"Ở":{"ha":911,"x_min":60,"x_max":851,"o":"m 721 747 q 817 604 783 690 q 851 410 851 518 q 802 178 851 276 q 663 27 753 79 q 456 -25 574 -25 q 249 28 339 -25 q 110 178 160 81 q 60 410 60 276 q 109 641 60 543 q 248 791 158 739 q 454 843 338 843 q 601 819 533 843 q 660 851 640 824 q 681 928 681 879 l 792 928 q 721 747 792 801 m 456 96 q 639 177 575 96 q 703 410 703 258 q 639 642 703 561 q 456 722 575 722 q 272 642 336 722 q 208 410 208 561 q 272 177 208 258 q 456 96 336 96 m 431 935 q 468 976 454 953 q 482 1019 482 999 q 471 1049 482 1038 q 439 1061 460 1061 q 369 1022 404 1061 l 313 1086 q 457 1158 375 1158 q 547 1126 513 1158 q 581 1040 581 1094 q 555 962 581 1001 q 476 888 529 922 l 431 935 z "},"Ỡ":{"ha":911,"x_min":60,"x_max":851,"o":"m 721 747 q 817 604 783 690 q 851 410 851 518 q 802 178 851 276 q 663 27 753 79 q 456 -25 574 -25 q 249 28 339 -25 q 110 178 160 81 q 60 410 60 276 q 109 641 60 543 q 248 791 158 739 q 454 843 338 843 q 601 819 533 843 q 660 851 640 824 q 681 928 681 879 l 792 928 q 721 747 792 801 m 456 96 q 639 177 575 96 q 703 410 703 258 q 639 642 703 561 q 456 722 575 722 q 272 642 336 722 q 208 410 208 561 q 272 177 208 258 q 456 96 336 96 m 219 1018 q 301 1068 267 1054 q 381 1082 335 1082 q 430 1074 408 1082 q 485 1051 451 1067 q 558 1026 528 1026 q 603 1035 583 1026 q 660 1069 624 1044 l 696 985 q 622 933 654 947 q 546 919 590 919 q 506 927 525 919 q 461 949 488 935 q 417 969 435 963 q 378 976 399 976 q 331 970 350 976 q 289 953 311 964 q 256 938 267 943 l 219 1018 z "},"Ő":{"ha":911,"x_min":60,"x_max":851,"o":"m 454 843 q 662 791 572 843 q 801 641 751 739 q 851 410 851 543 q 802 178 851 276 q 663 27 753 79 q 456 -25 574 -25 q 249 28 339 -25 q 110 178 160 81 q 60 410 60 276 q 109 641 60 543 q 248 791 158 739 q 454 843 338 843 m 456 722 q 272 642 336 722 q 208 410 208 561 q 272 177 208 258 q 456 96 336 96 q 639 177 575 96 q 703 410 703 258 q 639 642 703 561 q 456 722 575 722 m 543 1143 l 614 1056 l 382 906 l 346 947 l 543 1143 m 769 1083 l 814 981 l 546 908 l 521 958 l 769 1083 z "},"Ȏ":{"ha":911,"x_min":60,"x_max":851,"o":"m 454 843 q 662 791 572 843 q 801 641 751 739 q 851 410 851 543 q 802 178 851 276 q 663 27 753 79 q 456 -25 574 -25 q 249 28 339 -25 q 110 178 160 81 q 60 410 60 276 q 109 641 60 543 q 248 791 158 739 q 454 843 338 843 m 456 722 q 272 642 336 722 q 208 410 208 561 q 272 177 208 258 q 456 96 336 96 q 639 177 575 96 q 703 410 703 258 q 639 642 703 561 q 456 722 575 722 m 454 1124 q 614 1076 556 1124 q 688 939 672 1029 l 586 924 q 549 999 582 974 q 454 1025 515 1025 q 324 924 336 1025 l 224 939 q 297 1076 238 1029 q 454 1124 356 1124 z "},"Ō":{"ha":911,"x_min":60,"x_max":851,"o":"m 454 843 q 662 791 572 843 q 801 641 751 739 q 851 410 851 543 q 802 178 851 276 q 663 27 753 79 q 456 -25 574 -25 q 249 28 339 -25 q 110 178 160 81 q 60 410 60 276 q 109 641 60 543 q 248 791 158 739 q 454 843 338 843 m 456 722 q 272 642 336 722 q 208 410 208 561 q 272 177 208 258 q 456 96 336 96 q 639 177 575 96 q 703 410 703 258 q 639 642 703 561 q 456 722 575 722 m 232 1050 l 678 1050 l 678 954 l 232 954 l 232 1050 z "},"Ṓ":{"ha":911,"x_min":60,"x_max":851,"o":"m 454 843 q 662 791 572 843 q 801 641 751 739 q 851 410 851 543 q 802 178 851 276 q 663 27 753 79 q 456 -25 574 -25 q 249 28 339 -25 q 110 178 160 81 q 60 410 60 276 q 109 641 60 543 q 248 791 158 739 q 454 843 338 843 m 456 722 q 272 642 336 722 q 208 410 208 561 q 272 177 208 258 q 456 96 336 96 q 639 177 575 96 q 703 410 703 258 q 639 642 703 561 q 456 722 575 722 m 232 1050 l 678 1050 l 678 954 l 232 954 l 232 1050 m 682 1293 l 714 1172 l 364 1114 l 344 1172 l 682 1293 z "},"Ṑ":{"ha":911,"x_min":60,"x_max":851,"o":"m 454 843 q 662 791 572 843 q 801 641 751 739 q 851 410 851 543 q 802 178 851 276 q 663 27 753 79 q 456 -25 574 -25 q 249 28 339 -25 q 110 178 160 81 q 60 410 60 276 q 109 641 60 543 q 248 791 158 739 q 454 843 338 843 m 456 722 q 272 642 336 722 q 208 410 208 561 q 272 177 208 258 q 456 96 336 96 q 639 177 575 96 q 703 410 703 258 q 639 642 703 561 q 456 722 575 722 m 232 1050 l 678 1050 l 678 954 l 232 954 l 232 1050 m 224 1290 l 561 1169 l 543 1113 l 192 1171 l 224 1290 z "},"Ǫ":{"ha":911,"x_min":60,"x_max":851,"o":"m 618 6 q 521 -133 521 -53 q 544 -182 521 -164 q 604 -200 567 -200 q 672 -186 633 -200 l 672 -281 q 554 -307 611 -307 q 431 -271 478 -307 q 385 -178 385 -235 q 461 -25 385 -89 l 456 -25 q 249 28 339 -25 q 110 178 160 81 q 60 410 60 276 q 109 641 60 543 q 248 791 158 739 q 454 843 338 843 q 662 791 572 843 q 801 641 751 739 q 851 410 851 543 q 790 155 851 260 q 618 6 728 50 m 208 410 q 272 177 208 258 q 456 96 336 96 q 639 177 575 96 q 703 410 703 258 q 639 642 703 561 q 456 722 575 722 q 272 642 336 722 q 208 410 208 561 z "},"Ø":{"ha":911,"x_min":60,"x_max":851,"o":"m 704 761 q 813 616 775 706 q 851 410 851 526 q 802 178 851 276 q 663 27 753 79 q 456 -25 574 -25 q 339 -10 396 -25 l 300 -96 l 178 -96 l 238 35 q 106 184 153 88 q 60 410 60 281 q 109 641 60 543 q 248 791 158 739 q 454 843 338 843 q 608 817 536 843 l 649 904 l 771 904 l 704 761 m 456 722 q 272 642 336 722 q 208 410 208 561 q 300 149 208 228 l 554 706 q 456 722 511 722 m 456 96 q 639 177 575 96 q 703 410 703 258 q 640 640 703 561 l 396 101 q 456 96 419 96 z "},"Ǿ":{"ha":911,"x_min":60,"x_max":851,"o":"m 704 761 q 813 616 775 706 q 851 410 851 526 q 802 178 851 276 q 663 27 753 79 q 456 -25 574 -25 q 339 -10 396 -25 l 300 -96 l 178 -96 l 238 35 q 106 184 153 88 q 60 410 60 281 q 109 641 60 543 q 248 791 158 739 q 454 843 338 843 q 608 817 536 843 l 649 904 l 771 904 l 704 761 m 456 722 q 272 642 336 722 q 208 410 208 561 q 300 149 208 228 l 554 706 q 456 722 511 722 m 456 96 q 639 177 575 96 q 703 410 703 258 q 640 640 703 561 l 396 101 q 456 96 419 96 m 669 1088 l 701 967 l 351 908 l 332 967 l 669 1088 z "},"Õ":{"ha":911,"x_min":60,"x_max":851,"o":"m 454 843 q 662 791 572 843 q 801 641 751 739 q 851 410 851 543 q 802 178 851 276 q 663 27 753 79 q 456 -25 574 -25 q 249 28 339 -25 q 110 178 160 81 q 60 410 60 276 q 109 641 60 543 q 248 791 158 739 q 454 843 338 843 m 456 722 q 272 642 336 722 q 208 410 208 561 q 272 177 208 258 q 456 96 336 96 q 639 177 575 96 q 703 410 703 258 q 639 642 703 561 q 456 722 575 722 m 236 1007 q 317 1057 283 1043 q 397 1071 351 1071 q 447 1063 425 1071 q 501 1040 468 1056 q 575 1015 544 1015 q 620 1024 600 1015 q 676 1058 640 1033 l 713 974 q 639 922 671 936 q 563 908 607 908 q 523 916 542 908 q 478 938 504 924 q 433 958 451 951 q 394 965 415 965 q 347 959 367 965 q 306 942 328 953 q 272 926 283 932 l 236 1007 z "},"Ṍ":{"ha":911,"x_min":60,"x_max":851,"o":"m 454 843 q 662 791 572 843 q 801 641 751 739 q 851 410 851 543 q 802 178 851 276 q 663 27 753 79 q 456 -25 574 -25 q 249 28 339 -25 q 110 178 160 81 q 60 410 60 276 q 109 641 60 543 q 248 791 158 739 q 454 843 338 843 m 456 722 q 272 642 336 722 q 208 410 208 561 q 272 177 208 258 q 456 96 336 96 q 639 177 575 96 q 703 410 703 258 q 639 642 703 561 q 456 722 575 722 m 236 1007 q 317 1057 283 1043 q 397 1071 351 1071 q 447 1063 425 1071 q 501 1040 468 1056 q 575 1015 544 1015 q 620 1024 600 1015 q 676 1058 640 1033 l 713 974 q 639 922 671 936 q 563 908 607 908 q 523 916 542 908 q 478 938 504 924 q 433 958 451 951 q 394 965 415 965 q 347 959 367 965 q 306 942 328 953 q 272 926 283 932 l 236 1007 m 656 1306 l 688 1185 l 338 1126 l 318 1185 l 656 1306 z "},"Ṏ":{"ha":911,"x_min":60,"x_max":851,"o":"m 454 843 q 662 791 572 843 q 801 641 751 739 q 851 410 851 543 q 802 178 851 276 q 663 27 753 79 q 456 -25 574 -25 q 249 28 339 -25 q 110 178 160 81 q 60 410 60 276 q 109 641 60 543 q 248 791 158 739 q 454 843 338 843 m 456 722 q 272 642 336 722 q 208 410 208 561 q 272 177 208 258 q 456 96 336 96 q 639 177 575 96 q 703 410 703 258 q 639 642 703 561 q 456 722 575 722 m 236 1007 q 317 1057 283 1043 q 397 1071 351 1071 q 447 1063 425 1071 q 501 1040 468 1056 q 575 1015 544 1015 q 620 1024 600 1015 q 676 1058 640 1033 l 713 974 q 639 922 671 936 q 563 908 607 908 q 523 916 542 908 q 478 938 504 924 q 433 958 451 951 q 394 965 415 965 q 347 959 367 965 q 306 942 328 953 q 272 926 283 932 l 236 1007 m 311 1317 q 373 1290 346 1317 q 400 1228 400 1264 q 374 1165 400 1192 q 311 1139 347 1139 q 249 1165 275 1139 q 222 1228 222 1192 q 249 1290 222 1264 q 311 1317 275 1317 m 569 1317 q 631 1290 604 1317 q 657 1228 657 1264 q 631 1165 657 1192 q 569 1139 606 1139 q 507 1165 533 1139 q 481 1228 481 1192 q 507 1290 481 1264 q 569 1317 533 1317 z "},"Ȭ":{"ha":911,"x_min":60,"x_max":851,"o":"m 454 843 q 662 791 572 843 q 801 641 751 739 q 851 410 851 543 q 802 178 851 276 q 663 27 753 79 q 456 -25 574 -25 q 249 28 339 -25 q 110 178 160 81 q 60 410 60 276 q 109 641 60 543 q 248 791 158 739 q 454 843 338 843 m 456 722 q 272 642 336 722 q 208 410 208 561 q 272 177 208 258 q 456 96 336 96 q 639 177 575 96 q 703 410 703 258 q 639 642 703 561 q 456 722 575 722 m 236 1007 q 317 1057 283 1043 q 397 1071 351 1071 q 447 1063 425 1071 q 501 1040 468 1056 q 575 1015 544 1015 q 620 1024 600 1015 q 676 1058 640 1033 l 713 974 q 639 922 671 936 q 563 908 607 908 q 523 916 542 908 q 478 938 504 924 q 433 958 451 951 q 394 965 415 965 q 347 959 367 965 q 306 942 328 953 q 272 926 283 932 l 236 1007 m 217 1267 l 663 1267 l 663 1171 l 217 1171 l 217 1267 z "},"Œ":{"ha":1236,"x_min":60,"x_max":1192,"o":"m 471 0 q 257 47 350 0 q 112 186 164 93 q 60 414 60 279 q 169 723 60 628 q 476 818 278 818 l 1082 818 l 1161 583 l 1044 544 l 992 694 l 725 694 l 725 479 l 968 479 l 968 358 l 724 358 l 724 124 l 1022 124 l 1075 267 l 1192 226 l 1114 0 l 471 0 m 478 696 q 329 673 388 696 q 240 588 271 650 q 208 414 208 526 q 279 194 208 267 q 486 122 350 122 l 582 124 l 582 696 l 478 696 z "},"P":{"ha":768,"x_min":56,"x_max":740,"o":"m 419 818 q 658 751 576 818 q 740 556 740 683 q 658 356 740 425 q 419 288 576 288 l 318 288 l 318 124 l 468 124 l 468 0 l 56 0 l 56 124 l 176 124 l 176 694 l 56 694 l 56 818 l 419 818 m 418 403 q 592 553 592 403 q 549 660 592 625 q 418 694 506 694 l 319 694 l 319 403 l 418 403 z "},"Þ":{"ha":767,"x_min":56,"x_max":739,"o":"m 56 124 l 176 124 l 176 706 l 56 706 l 56 818 l 438 818 l 438 706 l 319 706 l 319 638 l 440 638 q 665 587 592 638 q 739 432 739 536 q 665 267 739 322 q 449 211 590 211 l 318 211 l 318 124 l 478 124 l 478 0 l 56 0 l 56 124 m 435 329 q 551 349 513 329 q 590 425 590 369 q 551 501 590 481 q 433 522 513 522 l 319 522 l 319 329 l 435 329 z "},"Q":{"ha":944,"x_min":60,"x_max":917,"o":"m 653 22 q 456 -25 567 -25 q 249 27 339 -25 q 110 177 160 79 q 60 410 60 275 q 110 642 60 544 q 249 792 160 740 q 454 843 338 843 q 662 792 572 843 q 801 642 751 740 q 851 410 851 544 q 743 93 851 210 l 917 -8 l 825 -122 l 653 22 m 456 724 q 271 643 333 724 q 208 410 208 563 q 271 176 208 257 q 456 94 333 94 q 640 176 578 94 q 703 410 703 257 q 640 643 703 563 q 456 724 578 724 z "},"R":{"ha":865,"x_min":56,"x_max":826,"o":"m 826 124 l 826 0 l 600 0 l 439 296 l 319 296 l 319 124 l 397 124 l 397 0 l 56 0 l 56 124 l 176 124 l 176 694 l 56 694 l 56 818 l 422 818 q 667 753 597 818 q 738 557 738 689 q 699 399 738 460 q 579 314 660 339 l 692 124 l 826 124 m 419 419 q 550 448 511 419 q 589 557 589 476 q 549 666 589 638 q 419 694 508 694 l 321 694 l 321 419 l 419 419 z "},"Ŕ":{"ha":865,"x_min":56,"x_max":826,"o":"m 826 124 l 826 0 l 600 0 l 439 296 l 319 296 l 319 124 l 397 124 l 397 0 l 56 0 l 56 124 l 176 124 l 176 694 l 56 694 l 56 818 l 422 818 q 667 753 597 818 q 738 557 738 689 q 699 399 738 460 q 579 314 660 339 l 692 124 l 826 124 m 419 419 q 550 448 511 419 q 589 557 589 476 q 549 666 589 638 q 419 694 508 694 l 321 694 l 321 419 l 419 419 m 599 1088 l 631 967 l 281 908 l 261 967 l 599 1088 z "},"Ř":{"ha":865,"x_min":56,"x_max":826,"o":"m 826 124 l 826 0 l 600 0 l 439 296 l 319 296 l 319 124 l 397 124 l 397 0 l 56 0 l 56 124 l 176 124 l 176 694 l 56 694 l 56 818 l 422 818 q 667 753 597 818 q 738 557 738 689 q 699 399 738 460 q 579 314 660 339 l 692 124 l 826 124 m 419 419 q 550 448 511 419 q 589 557 589 476 q 549 666 589 638 q 419 694 508 694 l 321 694 l 321 419 l 419 419 m 386 889 l 161 1040 l 204 1106 l 388 1007 l 564 1107 l 607 1040 l 386 889 z "},"Ŗ":{"ha":865,"x_min":56,"x_max":826,"o":"m 826 124 l 826 0 l 600 0 l 439 296 l 319 296 l 319 124 l 397 124 l 397 0 l 56 0 l 56 124 l 176 124 l 176 694 l 56 694 l 56 818 l 422 818 q 667 753 597 818 q 738 557 738 689 q 699 399 738 460 q 579 314 660 339 l 692 124 l 826 124 m 419 419 q 550 448 511 419 q 589 557 589 476 q 549 666 589 638 q 419 694 508 694 l 321 694 l 321 419 l 419 419 m 344 -394 q 374 -351 351 -385 q 410 -286 396 -317 q 350 -253 371 -279 q 329 -194 329 -228 q 358 -123 329 -150 q 432 -96 386 -96 q 506 -128 474 -96 q 538 -201 538 -160 q 394 -444 539 -311 l 344 -394 z "},"Ȑ":{"ha":865,"x_min":31,"x_max":826,"o":"m 826 124 l 826 0 l 600 0 l 439 296 l 319 296 l 319 124 l 397 124 l 397 0 l 56 0 l 56 124 l 176 124 l 176 694 l 56 694 l 56 818 l 422 818 q 667 753 597 818 q 738 557 738 689 q 699 399 738 460 q 579 314 660 339 l 692 124 l 826 124 m 419 419 q 550 448 511 419 q 589 557 589 476 q 549 666 589 638 q 419 694 508 694 l 321 694 l 321 419 l 419 419 m 369 1218 l 547 944 l 486 901 l 271 1144 l 369 1218 m 111 1189 l 339 956 l 286 901 l 31 1101 l 111 1189 z "},"Ṛ":{"ha":865,"x_min":56,"x_max":826,"o":"m 826 124 l 826 0 l 600 0 l 439 296 l 319 296 l 319 124 l 397 124 l 397 0 l 56 0 l 56 124 l 176 124 l 176 694 l 56 694 l 56 818 l 422 818 q 667 753 597 818 q 738 557 738 689 q 699 399 738 460 q 579 314 660 339 l 692 124 l 826 124 m 419 419 q 550 448 511 419 q 589 557 589 476 q 549 666 589 638 q 419 694 508 694 l 321 694 l 321 419 l 419 419 m 431 -81 q 498 -106 472 -81 q 524 -174 524 -132 q 498 -240 524 -215 q 431 -265 472 -265 q 365 -240 390 -265 q 340 -174 340 -215 q 365 -106 340 -132 q 431 -81 390 -81 z "},"Ȓ":{"ha":865,"x_min":56,"x_max":826,"o":"m 826 124 l 826 0 l 600 0 l 439 296 l 319 296 l 319 124 l 397 124 l 397 0 l 56 0 l 56 124 l 176 124 l 176 694 l 56 694 l 56 818 l 422 818 q 667 753 597 818 q 738 557 738 689 q 699 399 738 460 q 579 314 660 339 l 692 124 l 826 124 m 419 419 q 550 448 511 419 q 589 557 589 476 q 549 666 589 638 q 419 694 508 694 l 321 694 l 321 419 l 419 419 m 383 1124 q 543 1076 485 1124 q 617 939 601 1029 l 515 924 q 478 999 511 974 q 383 1025 444 1025 q 253 924 265 1025 l 153 939 q 226 1076 167 1029 q 383 1124 285 1124 z "},"Ṟ":{"ha":865,"x_min":56,"x_max":826,"o":"m 826 124 l 826 0 l 600 0 l 439 296 l 319 296 l 319 124 l 397 124 l 397 0 l 56 0 l 56 124 l 176 124 l 176 694 l 56 694 l 56 818 l 422 818 q 667 753 597 818 q 738 557 738 689 q 699 399 738 460 q 579 314 660 339 l 692 124 l 826 124 m 419 419 q 550 448 511 419 q 589 557 589 476 q 549 666 589 638 q 419 694 508 694 l 321 694 l 321 419 l 419 419 m 211 -68 l 656 -68 l 656 -167 l 211 -167 l 211 -68 z "},"S":{"ha":765,"x_min":60,"x_max":706,"o":"m 386 -25 q 86 28 222 -25 l 60 210 l 176 224 l 193 121 q 379 90 285 90 q 519 123 464 90 q 574 224 574 156 q 543 309 574 276 q 433 354 513 342 l 331 371 q 142 451 207 390 q 78 610 78 513 q 163 781 78 718 q 390 843 247 843 q 526 831 465 843 q 651 793 588 819 l 676 601 l 556 589 l 538 708 q 388 731 468 731 q 254 701 303 731 q 206 618 206 671 q 241 536 206 565 q 351 496 276 507 l 464 476 q 706 242 706 440 q 612 40 706 106 q 386 -25 518 -25 z "},"Ś":{"ha":765,"x_min":60,"x_max":706,"o":"m 386 -25 q 86 28 222 -25 l 60 210 l 176 224 l 193 121 q 379 90 285 90 q 519 123 464 90 q 574 224 574 156 q 543 309 574 276 q 433 354 513 342 l 331 371 q 142 451 207 390 q 78 610 78 513 q 163 781 78 718 q 390 843 247 843 q 526 831 465 843 q 651 793 588 819 l 676 601 l 556 589 l 538 708 q 388 731 468 731 q 254 701 303 731 q 206 618 206 671 q 241 536 206 565 q 351 496 276 507 l 464 476 q 706 242 706 440 q 612 40 706 106 q 386 -25 518 -25 m 596 1088 l 628 967 l 278 908 l 258 967 l 596 1088 z "},"Ṥ":{"ha":765,"x_min":60,"x_max":706,"o":"m 386 -25 q 86 28 222 -25 l 60 210 l 176 224 l 193 121 q 379 90 285 90 q 519 123 464 90 q 574 224 574 156 q 543 309 574 276 q 433 354 513 342 l 331 371 q 142 451 207 390 q 78 610 78 513 q 163 781 78 718 q 390 843 247 843 q 526 831 465 843 q 651 793 588 819 l 676 601 l 556 589 l 538 708 q 388 731 468 731 q 254 701 303 731 q 206 618 206 671 q 241 536 206 565 q 351 496 276 507 l 464 476 q 706 242 706 440 q 612 40 706 106 q 386 -25 518 -25 m 596 1088 l 628 967 l 278 908 l 258 967 l 596 1088 m 442 1289 q 509 1263 483 1289 q 535 1196 535 1238 q 509 1129 535 1154 q 442 1104 483 1104 q 376 1129 401 1104 q 351 1196 351 1154 q 376 1263 351 1238 q 442 1289 401 1289 z "},"Š":{"ha":765,"x_min":60,"x_max":706,"o":"m 386 -25 q 86 28 222 -25 l 60 210 l 176 224 l 193 121 q 379 90 285 90 q 519 123 464 90 q 574 224 574 156 q 543 309 574 276 q 433 354 513 342 l 331 371 q 142 451 207 390 q 78 610 78 513 q 163 781 78 718 q 390 843 247 843 q 526 831 465 843 q 651 793 588 819 l 676 601 l 556 589 l 538 708 q 388 731 468 731 q 254 701 303 731 q 206 618 206 671 q 241 536 206 565 q 351 496 276 507 l 464 476 q 706 242 706 440 q 612 40 706 106 q 386 -25 518 -25 m 383 889 l 158 1040 l 201 1106 l 385 1007 l 561 1107 l 604 1040 l 383 889 z "},"Ṧ":{"ha":765,"x_min":60,"x_max":706,"o":"m 386 -25 q 86 28 222 -25 l 60 210 l 176 224 l 193 121 q 379 90 285 90 q 519 123 464 90 q 574 224 574 156 q 543 309 574 276 q 433 354 513 342 l 331 371 q 142 451 207 390 q 78 610 78 513 q 163 781 78 718 q 390 843 247 843 q 526 831 465 843 q 651 793 588 819 l 676 601 l 556 589 l 538 708 q 388 731 468 731 q 254 701 303 731 q 206 618 206 671 q 241 536 206 565 q 351 496 276 507 l 464 476 q 706 242 706 440 q 612 40 706 106 q 386 -25 518 -25 m 383 889 l 158 1040 l 201 1106 l 385 1007 l 561 1107 l 604 1040 l 383 889 m 381 1310 q 448 1284 422 1310 q 474 1217 474 1258 q 448 1150 474 1175 q 381 1125 422 1125 q 315 1150 340 1125 q 290 1217 290 1175 q 315 1284 290 1258 q 381 1310 340 1310 z "},"Ş":{"ha":765,"x_min":60,"x_max":706,"o":"m 706 242 q 640 65 706 129 q 469 -18 574 0 l 469 -78 q 594 -103 553 -75 q 635 -192 635 -132 q 589 -286 635 -253 q 468 -319 543 -319 q 374 -301 413 -319 q 304 -261 336 -283 l 343 -200 q 467 -239 400 -239 q 532 -189 532 -239 q 514 -153 532 -165 q 451 -142 496 -142 l 382 -142 l 382 -25 q 86 28 219 -25 l 60 210 l 176 224 l 193 121 q 379 90 285 90 q 519 123 464 90 q 574 224 574 156 q 543 309 574 276 q 433 354 513 342 l 331 371 q 142 451 207 390 q 78 610 78 513 q 163 781 78 718 q 390 843 247 843 q 526 831 465 843 q 651 793 588 819 l 676 601 l 556 589 l 538 708 q 388 731 468 731 q 254 701 303 731 q 206 618 206 671 q 241 536 206 565 q 351 496 276 507 l 464 476 q 706 242 706 440 z "},"Ŝ":{"ha":765,"x_min":60,"x_max":706,"o":"m 386 -25 q 86 28 222 -25 l 60 210 l 176 224 l 193 121 q 379 90 285 90 q 519 123 464 90 q 574 224 574 156 q 543 309 574 276 q 433 354 513 342 l 331 371 q 142 451 207 390 q 78 610 78 513 q 163 781 78 718 q 390 843 247 843 q 526 831 465 843 q 651 793 588 819 l 676 601 l 556 589 l 538 708 q 388 731 468 731 q 254 701 303 731 q 206 618 206 671 q 241 536 206 565 q 351 496 276 507 l 464 476 q 706 242 706 440 q 612 40 706 106 q 386 -25 518 -25 m 382 1096 l 626 954 l 590 901 l 382 981 l 169 901 l 136 954 l 382 1096 z "},"Ș":{"ha":765,"x_min":60,"x_max":706,"o":"m 386 -25 q 86 28 222 -25 l 60 210 l 176 224 l 193 121 q 379 90 285 90 q 519 123 464 90 q 574 224 574 156 q 543 309 574 276 q 433 354 513 342 l 331 371 q 142 451 207 390 q 78 610 78 513 q 163 781 78 718 q 390 843 247 843 q 526 831 465 843 q 651 793 588 819 l 676 601 l 556 589 l 538 708 q 388 731 468 731 q 254 701 303 731 q 206 618 206 671 q 241 536 206 565 q 351 496 276 507 l 464 476 q 706 242 706 440 q 612 40 706 106 q 386 -25 518 -25 m 293 -394 q 322 -351 300 -385 q 358 -286 344 -317 q 299 -253 319 -279 q 278 -194 278 -228 q 306 -123 278 -150 q 381 -96 335 -96 q 454 -128 422 -96 q 486 -201 486 -160 q 343 -444 488 -311 l 293 -394 z "},"Ṡ":{"ha":765,"x_min":60,"x_max":706,"o":"m 386 -25 q 86 28 222 -25 l 60 210 l 176 224 l 193 121 q 379 90 285 90 q 519 123 464 90 q 574 224 574 156 q 543 309 574 276 q 433 354 513 342 l 331 371 q 142 451 207 390 q 78 610 78 513 q 163 781 78 718 q 390 843 247 843 q 526 831 465 843 q 651 793 588 819 l 676 601 l 556 589 l 538 708 q 388 731 468 731 q 254 701 303 731 q 206 618 206 671 q 241 536 206 565 q 351 496 276 507 l 464 476 q 706 242 706 440 q 612 40 706 106 q 386 -25 518 -25 m 381 1118 q 448 1092 422 1118 q 474 1025 474 1067 q 448 958 474 983 q 381 933 422 933 q 315 958 340 933 q 290 1025 290 983 q 315 1092 290 1067 q 381 1118 340 1118 z "},"Ṣ":{"ha":765,"x_min":60,"x_max":706,"o":"m 386 -25 q 86 28 222 -25 l 60 210 l 176 224 l 193 121 q 379 90 285 90 q 519 123 464 90 q 574 224 574 156 q 543 309 574 276 q 433 354 513 342 l 331 371 q 142 451 207 390 q 78 610 78 513 q 163 781 78 718 q 390 843 247 843 q 526 831 465 843 q 651 793 588 819 l 676 601 l 556 589 l 538 708 q 388 731 468 731 q 254 701 303 731 q 206 618 206 671 q 241 536 206 565 q 351 496 276 507 l 464 476 q 706 242 706 440 q 612 40 706 106 q 386 -25 518 -25 m 379 -81 q 447 -106 421 -81 q 472 -174 472 -132 q 447 -240 472 -215 q 379 -265 421 -265 q 314 -240 339 -265 q 289 -174 289 -215 q 314 -106 289 -132 q 379 -81 339 -81 z "},"Ṩ":{"ha":765,"x_min":60,"x_max":706,"o":"m 386 -25 q 86 28 222 -25 l 60 210 l 176 224 l 193 121 q 379 90 285 90 q 519 123 464 90 q 574 224 574 156 q 543 309 574 276 q 433 354 513 342 l 331 371 q 142 451 207 390 q 78 610 78 513 q 163 781 78 718 q 390 843 247 843 q 526 831 465 843 q 651 793 588 819 l 676 601 l 556 589 l 538 708 q 388 731 468 731 q 254 701 303 731 q 206 618 206 671 q 241 536 206 565 q 351 496 276 507 l 464 476 q 706 242 706 440 q 612 40 706 106 q 386 -25 518 -25 m 379 -81 q 447 -106 421 -81 q 472 -174 472 -132 q 447 -240 472 -215 q 379 -265 421 -265 q 314 -240 339 -265 q 289 -174 289 -215 q 314 -106 289 -132 q 379 -81 339 -81 m 381 1118 q 448 1092 422 1118 q 474 1025 474 1067 q 448 958 474 983 q 381 933 422 933 q 315 958 340 933 q 290 1025 290 983 q 315 1092 290 1067 q 381 1118 340 1118 z "},"ẞ":{"ha":832,"x_min":56,"x_max":790,"o":"m 578 -22 q 472 -3 524 -22 q 396 43 421 15 l 374 165 l 483 188 l 496 111 q 531 92 508 100 q 578 85 554 85 q 639 106 615 85 q 663 161 663 128 q 637 222 663 196 q 557 271 611 249 q 435 347 474 304 q 396 450 396 390 q 421 543 396 508 q 492 615 446 578 q 543 664 526 643 q 560 714 560 685 q 527 776 560 751 q 443 800 494 800 q 342 763 371 800 q 313 635 313 726 l 313 0 l 56 0 l 56 118 l 172 118 l 172 494 l 56 494 l 56 611 l 172 611 l 172 668 q 238 849 172 790 q 436 907 303 907 q 619 855 551 907 q 688 714 688 803 q 662 623 688 658 q 589 549 636 588 q 541 503 556 521 q 526 463 526 486 q 549 413 526 433 q 632 369 572 393 q 751 286 713 336 q 790 167 790 236 q 731 31 790 83 q 578 -22 672 -22 z "},"Ə":{"ha":854,"x_min":36,"x_max":786,"o":"m 381 843 q 594 790 503 843 q 736 640 686 738 q 786 410 786 542 q 738 179 786 278 q 602 28 689 81 q 401 -25 515 -25 q 212 25 294 -25 q 83 168 129 75 q 36 388 36 261 l 36 447 l 642 447 q 564 654 631 585 q 376 724 497 724 q 211 693 283 724 l 186 576 l 64 604 l 97 774 q 381 843 204 843 m 399 96 q 572 160 504 96 q 639 336 639 224 l 175 336 q 236 158 175 219 q 399 96 297 96 z "},"T":{"ha":826,"x_min":44,"x_max":775,"o":"m 44 818 l 775 818 l 775 560 l 647 560 l 647 694 l 482 694 l 481 124 l 603 124 l 603 0 l 214 0 l 214 124 l 338 124 l 338 694 l 174 694 l 174 560 l 44 560 l 44 818 z "},"Ŧ":{"ha":826,"x_min":44,"x_max":775,"o":"m 44 818 l 775 818 l 775 560 l 647 560 l 647 694 l 482 694 l 482 461 l 633 461 l 633 364 l 481 364 l 481 124 l 603 124 l 603 0 l 214 0 l 214 124 l 338 124 l 338 364 l 189 364 l 189 461 l 338 461 l 338 694 l 174 694 l 174 560 l 44 560 l 44 818 z "},"Ť":{"ha":826,"x_min":44,"x_max":775,"o":"m 44 818 l 775 818 l 775 560 l 647 560 l 647 694 l 482 694 l 481 124 l 603 124 l 603 0 l 214 0 l 214 124 l 338 124 l 338 694 l 174 694 l 174 560 l 44 560 l 44 818 m 413 889 l 188 1040 l 231 1106 l 414 1007 l 590 1107 l 633 1040 l 413 889 z "},"Ţ":{"ha":826,"x_min":44,"x_max":775,"o":"m 44 818 l 775 818 l 775 560 l 647 560 l 647 694 l 482 694 l 481 124 l 603 124 l 603 0 l 214 0 l 214 124 l 338 124 l 338 694 l 174 694 l 174 560 l 44 560 l 44 818 m 497 -319 q 403 -301 442 -319 q 333 -261 365 -283 l 372 -200 q 496 -239 429 -239 q 561 -189 561 -239 q 543 -153 561 -165 q 481 -142 525 -142 l 411 -142 l 411 0 l 499 0 l 499 -78 q 623 -103 582 -75 q 664 -192 664 -132 q 618 -286 664 -253 q 497 -319 572 -319 z "},"Ț":{"ha":826,"x_min":44,"x_max":775,"o":"m 44 818 l 775 818 l 775 560 l 647 560 l 647 694 l 482 694 l 481 124 l 603 124 l 603 0 l 214 0 l 214 124 l 338 124 l 338 694 l 174 694 l 174 560 l 44 560 l 44 818 m 322 -394 q 351 -351 329 -385 q 388 -286 374 -317 q 328 -253 349 -279 q 307 -194 307 -228 q 335 -123 307 -150 q 410 -96 364 -96 q 483 -128 451 -96 q 515 -201 515 -160 q 372 -444 517 -311 l 322 -394 z "},"Ṭ":{"ha":826,"x_min":44,"x_max":775,"o":"m 44 818 l 775 818 l 775 560 l 647 560 l 647 694 l 482 694 l 481 124 l 603 124 l 603 0 l 214 0 l 214 124 l 338 124 l 338 694 l 174 694 l 174 560 l 44 560 l 44 818 m 408 -81 q 476 -106 450 -81 q 501 -174 501 -132 q 476 -240 501 -215 q 408 -265 450 -265 q 343 -240 368 -265 q 318 -174 318 -215 q 343 -106 318 -132 q 408 -81 368 -81 z "},"Ṯ":{"ha":826,"x_min":44,"x_max":775,"o":"m 44 818 l 775 818 l 775 560 l 647 560 l 647 694 l 482 694 l 481 124 l 603 124 l 603 0 l 214 0 l 214 124 l 338 124 l 338 694 l 174 694 l 174 560 l 44 560 l 44 818 m 189 -68 l 633 -68 l 633 -167 l 189 -167 l 189 -68 z "},"U":{"ha":950,"x_min":39,"x_max":911,"o":"m 788 297 q 708 59 788 143 q 472 -25 629 -25 q 240 58 318 -25 q 163 297 163 142 l 163 694 l 39 694 l 39 818 l 388 818 l 388 694 l 304 694 l 304 265 q 472 93 304 93 q 644 279 644 93 l 644 694 l 563 694 l 563 818 l 911 818 l 911 694 l 788 694 l 788 297 z "},"Ú":{"ha":950,"x_min":39,"x_max":911,"o":"m 788 297 q 708 59 788 143 q 472 -25 629 -25 q 240 58 318 -25 q 163 297 163 142 l 163 694 l 39 694 l 39 818 l 388 818 l 388 694 l 304 694 l 304 265 q 472 93 304 93 q 644 279 644 93 l 644 694 l 563 694 l 563 818 l 911 818 l 911 694 l 788 694 l 788 297 m 689 1088 l 721 967 l 371 908 l 351 967 l 689 1088 z "},"Ŭ":{"ha":950,"x_min":39,"x_max":911,"o":"m 788 297 q 708 59 788 143 q 472 -25 629 -25 q 240 58 318 -25 q 163 297 163 142 l 163 694 l 39 694 l 39 818 l 388 818 l 388 694 l 304 694 l 304 265 q 472 93 304 93 q 644 279 644 93 l 644 694 l 563 694 l 563 818 l 911 818 l 911 694 l 788 694 l 788 297 m 474 910 q 316 957 375 910 q 243 1094 257 1004 l 343 1110 q 474 1008 356 1008 q 568 1034 535 1008 q 606 1110 601 1060 l 707 1094 q 633 957 692 1004 q 474 910 575 910 z "},"Û":{"ha":950,"x_min":39,"x_max":911,"o":"m 788 297 q 708 59 788 143 q 472 -25 629 -25 q 240 58 318 -25 q 163 297 163 142 l 163 694 l 39 694 l 39 818 l 388 818 l 388 694 l 304 694 l 304 265 q 472 93 304 93 q 644 279 644 93 l 644 694 l 563 694 l 563 818 l 911 818 l 911 694 l 788 694 l 788 297 m 475 1096 l 719 954 l 683 901 l 475 981 l 263 901 l 229 954 l 475 1096 z "},"Ȕ":{"ha":950,"x_min":39,"x_max":911,"o":"m 788 297 q 708 59 788 143 q 472 -25 629 -25 q 240 58 318 -25 q 163 297 163 142 l 163 694 l 39 694 l 39 818 l 388 818 l 388 694 l 304 694 l 304 265 q 472 93 304 93 q 644 279 644 93 l 644 694 l 563 694 l 563 818 l 911 818 l 911 694 l 788 694 l 788 297 m 460 1218 l 638 944 l 576 901 l 361 1144 l 460 1218 m 201 1189 l 429 956 l 376 901 l 121 1101 l 201 1189 z "},"Ü":{"ha":950,"x_min":39,"x_max":911,"o":"m 788 297 q 708 59 788 143 q 472 -25 629 -25 q 240 58 318 -25 q 163 297 163 142 l 163 694 l 39 694 l 39 818 l 388 818 l 388 694 l 304 694 l 304 265 q 472 93 304 93 q 644 279 644 93 l 644 694 l 563 694 l 563 818 l 911 818 l 911 694 l 788 694 l 788 297 m 344 1100 q 406 1074 379 1100 q 433 1011 433 1047 q 407 949 433 975 q 344 922 381 922 q 282 949 308 922 q 256 1011 256 975 q 282 1074 256 1047 q 344 1100 308 1100 m 603 1100 q 664 1074 638 1100 q 690 1011 690 1047 q 665 949 690 975 q 603 922 639 922 q 540 949 567 922 q 514 1011 514 975 q 540 1074 514 1047 q 603 1100 567 1100 z "},"Ụ":{"ha":950,"x_min":39,"x_max":911,"o":"m 788 297 q 708 59 788 143 q 472 -25 629 -25 q 240 58 318 -25 q 163 297 163 142 l 163 694 l 39 694 l 39 818 l 388 818 l 388 694 l 304 694 l 304 265 q 472 93 304 93 q 644 279 644 93 l 644 694 l 563 694 l 563 818 l 911 818 l 911 694 l 788 694 l 788 297 m 463 -81 q 530 -106 504 -81 q 556 -174 556 -132 q 530 -240 556 -215 q 463 -265 504 -265 q 397 -240 422 -265 q 372 -174 372 -215 q 397 -106 372 -132 q 463 -81 422 -81 z "},"Ù":{"ha":950,"x_min":39,"x_max":911,"o":"m 788 297 q 708 59 788 143 q 472 -25 629 -25 q 240 58 318 -25 q 163 297 163 142 l 163 694 l 39 694 l 39 818 l 388 818 l 388 694 l 304 694 l 304 265 q 472 93 304 93 q 644 279 644 93 l 644 694 l 563 694 l 563 818 l 911 818 l 911 694 l 788 694 l 788 297 m 231 1085 l 568 964 l 550 907 l 199 965 l 231 1085 z "},"Ủ":{"ha":950,"x_min":39,"x_max":911,"o":"m 788 297 q 708 59 788 143 q 472 -25 629 -25 q 240 58 318 -25 q 163 297 163 142 l 163 694 l 39 694 l 39 818 l 388 818 l 388 694 l 304 694 l 304 265 q 472 93 304 93 q 644 279 644 93 l 644 694 l 563 694 l 563 818 l 911 818 l 911 694 l 788 694 l 788 297 m 450 935 q 488 976 474 953 q 501 1019 501 999 q 490 1049 501 1038 q 458 1061 479 1061 q 389 1022 424 1061 l 332 1086 q 476 1158 394 1158 q 566 1126 532 1158 q 600 1040 600 1094 q 574 962 600 1001 q 496 888 549 922 l 450 935 z "},"Ư":{"ha":994,"x_min":39,"x_max":926,"o":"m 926 928 q 788 703 926 739 l 788 297 q 708 59 788 143 q 472 -25 629 -25 q 240 58 318 -25 q 163 297 163 142 l 163 694 l 39 694 l 39 818 l 388 818 l 388 694 l 304 694 l 304 265 q 472 93 304 93 q 644 279 644 93 l 644 694 l 563 694 l 563 818 l 719 818 q 791 846 767 818 q 815 928 815 874 l 926 928 z "},"Ứ":{"ha":994,"x_min":39,"x_max":926,"o":"m 926 928 q 788 703 926 739 l 788 297 q 708 59 788 143 q 472 -25 629 -25 q 240 58 318 -25 q 163 297 163 142 l 163 694 l 39 694 l 39 818 l 388 818 l 388 694 l 304 694 l 304 265 q 472 93 304 93 q 644 279 644 93 l 644 694 l 563 694 l 563 818 l 719 818 q 791 846 767 818 q 815 928 815 874 l 926 928 m 692 1088 l 724 967 l 374 908 l 354 967 l 692 1088 z "},"Ự":{"ha":994,"x_min":39,"x_max":926,"o":"m 926 928 q 788 703 926 739 l 788 297 q 708 59 788 143 q 472 -25 629 -25 q 240 58 318 -25 q 163 297 163 142 l 163 694 l 39 694 l 39 818 l 388 818 l 388 694 l 304 694 l 304 265 q 472 93 304 93 q 644 279 644 93 l 644 694 l 563 694 l 563 818 l 719 818 q 791 846 767 818 q 815 928 815 874 l 926 928 m 494 -81 q 562 -106 536 -81 q 588 -174 588 -132 q 562 -240 588 -215 q 494 -265 536 -265 q 429 -240 454 -265 q 404 -174 404 -215 q 429 -106 404 -132 q 494 -81 454 -81 z "},"Ừ":{"ha":994,"x_min":39,"x_max":926,"o":"m 926 928 q 788 703 926 739 l 788 297 q 708 59 788 143 q 472 -25 629 -25 q 240 58 318 -25 q 163 297 163 142 l 163 694 l 39 694 l 39 818 l 388 818 l 388 694 l 304 694 l 304 265 q 472 93 304 93 q 644 279 644 93 l 644 694 l 563 694 l 563 818 l 719 818 q 791 846 767 818 q 815 928 815 874 l 926 928 m 233 1085 l 571 964 l 553 907 l 201 965 l 233 1085 z "},"Ử":{"ha":994,"x_min":39,"x_max":926,"o":"m 926 928 q 788 703 926 739 l 788 297 q 708 59 788 143 q 472 -25 629 -25 q 240 58 318 -25 q 163 297 163 142 l 163 694 l 39 694 l 39 818 l 388 818 l 388 694 l 304 694 l 304 265 q 472 93 304 93 q 644 279 644 93 l 644 694 l 563 694 l 563 818 l 719 818 q 791 846 767 818 q 815 928 815 874 l 926 928 m 453 935 q 490 976 476 953 q 504 1019 504 999 q 493 1049 504 1038 q 461 1061 482 1061 q 392 1022 426 1061 l 335 1086 q 479 1158 397 1158 q 569 1126 535 1158 q 603 1040 603 1094 q 577 962 603 1001 q 499 888 551 922 l 453 935 z "},"Ữ":{"ha":994,"x_min":39,"x_max":926,"o":"m 926 928 q 788 703 926 739 l 788 297 q 708 59 788 143 q 472 -25 629 -25 q 240 58 318 -25 q 163 297 163 142 l 163 694 l 39 694 l 39 818 l 388 818 l 388 694 l 304 694 l 304 265 q 472 93 304 93 q 644 279 644 93 l 644 694 l 563 694 l 563 818 l 719 818 q 791 846 767 818 q 815 928 815 874 l 926 928 m 258 1007 q 340 1057 306 1043 q 419 1071 374 1071 q 469 1063 447 1071 q 524 1040 490 1056 q 597 1015 567 1015 q 642 1024 622 1015 q 699 1058 663 1033 l 735 974 q 661 922 693 936 q 585 908 629 908 q 545 916 564 908 q 500 938 526 924 q 456 958 474 951 q 417 965 438 965 q 369 959 389 965 q 328 942 350 953 q 294 926 306 932 l 258 1007 z "},"Ű":{"ha":950,"x_min":39,"x_max":911,"o":"m 788 297 q 708 59 788 143 q 472 -25 629 -25 q 240 58 318 -25 q 163 297 163 142 l 163 694 l 39 694 l 39 818 l 388 818 l 388 694 l 304 694 l 304 265 q 472 93 304 93 q 644 279 644 93 l 644 694 l 563 694 l 563 818 l 911 818 l 911 694 l 788 694 l 788 297 m 563 1143 l 633 1056 l 401 906 l 365 947 l 563 1143 m 789 1083 l 833 981 l 565 908 l 540 958 l 789 1083 z "},"Ȗ":{"ha":950,"x_min":39,"x_max":911,"o":"m 788 297 q 708 59 788 143 q 472 -25 629 -25 q 240 58 318 -25 q 163 297 163 142 l 163 694 l 39 694 l 39 818 l 388 818 l 388 694 l 304 694 l 304 265 q 472 93 304 93 q 644 279 644 93 l 644 694 l 563 694 l 563 818 l 911 818 l 911 694 l 788 694 l 788 297 m 474 1124 q 633 1076 575 1124 q 707 939 692 1029 l 606 924 q 568 999 601 974 q 474 1025 535 1025 q 343 924 356 1025 l 243 939 q 316 1076 257 1029 q 474 1124 375 1124 z "},"Ū":{"ha":950,"x_min":39,"x_max":911,"o":"m 788 297 q 708 59 788 143 q 472 -25 629 -25 q 240 58 318 -25 q 163 297 163 142 l 163 694 l 39 694 l 39 818 l 388 818 l 388 694 l 304 694 l 304 265 q 472 93 304 93 q 644 279 644 93 l 644 694 l 563 694 l 563 818 l 911 818 l 911 694 l 788 694 l 788 297 m 251 1050 l 697 1050 l 697 954 l 251 954 l 251 1050 z "},"Ṻ":{"ha":950,"x_min":39,"x_max":911,"o":"m 788 297 q 708 59 788 143 q 472 -25 629 -25 q 240 58 318 -25 q 163 297 163 142 l 163 694 l 39 694 l 39 818 l 388 818 l 388 694 l 304 694 l 304 265 q 472 93 304 93 q 644 279 644 93 l 644 694 l 563 694 l 563 818 l 911 818 l 911 694 l 788 694 l 788 297 m 251 1050 l 697 1050 l 697 954 l 251 954 l 251 1050 m 357 1304 q 419 1278 392 1304 q 446 1215 446 1251 q 419 1153 446 1179 q 357 1126 393 1126 q 294 1153 321 1126 q 268 1215 268 1179 q 294 1278 268 1251 q 357 1304 321 1304 m 615 1304 q 676 1278 650 1304 q 703 1215 703 1251 q 677 1153 703 1179 q 615 1126 651 1126 q 553 1153 579 1126 q 526 1215 526 1179 q 553 1278 526 1251 q 615 1304 579 1304 z "},"Ų":{"ha":950,"x_min":39,"x_max":911,"o":"m 911 818 l 911 694 l 788 694 l 788 297 q 743 106 788 182 q 611 -3 699 29 q 528 -133 528 -57 q 551 -182 528 -164 q 611 -200 574 -200 q 679 -186 640 -200 l 679 -281 q 561 -307 618 -307 q 438 -271 485 -307 q 392 -178 392 -235 q 468 -25 392 -89 q 239 60 315 -24 q 163 297 163 143 l 163 694 l 39 694 l 39 818 l 388 818 l 388 694 l 304 694 l 304 265 q 472 93 304 93 q 644 279 644 93 l 644 694 l 563 694 l 563 818 l 911 818 z "},"Ů":{"ha":950,"x_min":39,"x_max":911,"o":"m 788 297 q 708 59 788 143 q 472 -25 629 -25 q 240 58 318 -25 q 163 297 163 142 l 163 694 l 39 694 l 39 818 l 388 818 l 388 694 l 304 694 l 304 265 q 472 93 304 93 q 644 279 644 93 l 644 694 l 563 694 l 563 818 l 911 818 l 911 694 l 788 694 l 788 297 m 475 1185 q 573 1148 536 1185 q 610 1050 610 1111 q 573 952 610 989 q 475 915 536 915 q 377 952 414 915 q 340 1050 340 989 q 377 1148 340 1111 q 475 1185 414 1185 m 475 1113 q 429 1095 447 1113 q 411 1050 411 1078 q 429 1005 411 1022 q 475 988 447 988 q 520 1005 503 988 q 538 1050 538 1022 q 520 1095 538 1078 q 475 1113 503 1113 z "},"Ũ":{"ha":950,"x_min":39,"x_max":911,"o":"m 788 297 q 708 59 788 143 q 472 -25 629 -25 q 240 58 318 -25 q 163 297 163 142 l 163 694 l 39 694 l 39 818 l 388 818 l 388 694 l 304 694 l 304 265 q 472 93 304 93 q 644 279 644 93 l 644 694 l 563 694 l 563 818 l 911 818 l 911 694 l 788 694 l 788 297 m 256 1007 q 337 1057 303 1043 q 417 1071 371 1071 q 466 1063 444 1071 q 521 1040 488 1056 q 594 1015 564 1015 q 640 1024 619 1015 q 696 1058 660 1033 l 732 974 q 658 922 690 936 q 582 908 626 908 q 542 916 561 908 q 497 938 524 924 q 453 958 471 951 q 414 965 435 965 q 367 959 386 965 q 325 942 347 953 q 292 926 303 932 l 256 1007 z "},"Ṹ":{"ha":950,"x_min":39,"x_max":911,"o":"m 788 297 q 708 59 788 143 q 472 -25 629 -25 q 240 58 318 -25 q 163 297 163 142 l 163 694 l 39 694 l 39 818 l 388 818 l 388 694 l 304 694 l 304 265 q 472 93 304 93 q 644 279 644 93 l 644 694 l 563 694 l 563 818 l 911 818 l 911 694 l 788 694 l 788 297 m 256 1007 q 337 1057 303 1043 q 417 1071 371 1071 q 466 1063 444 1071 q 521 1040 488 1056 q 594 1015 564 1015 q 640 1024 619 1015 q 696 1058 660 1033 l 732 974 q 658 922 690 936 q 582 908 626 908 q 542 916 561 908 q 497 938 524 924 q 453 958 471 951 q 414 965 435 965 q 367 959 386 965 q 325 942 347 953 q 292 926 303 932 l 256 1007 m 675 1306 l 707 1185 l 357 1126 l 338 1185 l 675 1306 z "},"V":{"ha":924,"x_min":7,"x_max":915,"o":"m 7 818 l 369 818 l 369 694 l 282 694 l 415 349 l 478 150 l 536 343 l 663 694 l 571 694 l 571 818 l 915 818 l 915 694 l 801 694 l 551 0 l 400 0 l 128 694 l 7 694 l 7 818 z "},"W":{"ha":1285,"x_min":6,"x_max":1281,"o":"m 6 818 l 367 818 l 367 694 l 286 694 l 382 342 l 431 151 l 468 338 l 574 714 l 742 714 l 839 343 l 878 151 l 924 343 l 1026 694 l 939 694 l 939 818 l 1281 818 l 1281 694 l 1168 694 l 949 0 l 783 0 l 694 371 l 653 551 l 604 371 l 510 0 l 349 0 l 129 694 l 6 694 l 6 818 z "},"Ẃ":{"ha":1285,"x_min":6,"x_max":1281,"o":"m 6 818 l 367 818 l 367 694 l 286 694 l 382 342 l 431 151 l 468 338 l 574 714 l 742 714 l 839 343 l 878 151 l 924 343 l 1026 694 l 939 694 l 939 818 l 1281 818 l 1281 694 l 1168 694 l 949 0 l 783 0 l 694 371 l 653 551 l 604 371 l 510 0 l 349 0 l 129 694 l 6 694 l 6 818 m 868 1088 l 900 967 l 550 908 l 531 967 l 868 1088 z "},"Ŵ":{"ha":1285,"x_min":6,"x_max":1281,"o":"m 6 818 l 367 818 l 367 694 l 286 694 l 382 342 l 431 151 l 468 338 l 574 714 l 742 714 l 839 343 l 878 151 l 924 343 l 1026 694 l 939 694 l 939 818 l 1281 818 l 1281 694 l 1168 694 l 949 0 l 783 0 l 694 371 l 653 551 l 604 371 l 510 0 l 349 0 l 129 694 l 6 694 l 6 818 m 654 1096 l 899 954 l 863 901 l 654 981 l 442 901 l 408 954 l 654 1096 z "},"Ẅ":{"ha":1285,"x_min":6,"x_max":1281,"o":"m 6 818 l 367 818 l 367 694 l 286 694 l 382 342 l 431 151 l 468 338 l 574 714 l 742 714 l 839 343 l 878 151 l 924 343 l 1026 694 l 939 694 l 939 818 l 1281 818 l 1281 694 l 1168 694 l 949 0 l 783 0 l 694 371 l 653 551 l 604 371 l 510 0 l 349 0 l 129 694 l 6 694 l 6 818 m 524 1100 q 585 1074 558 1100 q 613 1011 613 1047 q 586 949 613 975 q 524 922 560 922 q 461 949 488 922 q 435 1011 435 975 q 461 1074 435 1047 q 524 1100 488 1100 m 782 1100 q 843 1074 817 1100 q 869 1011 869 1047 q 844 949 869 975 q 782 922 818 922 q 719 949 746 922 q 693 1011 693 975 q 719 1074 693 1047 q 782 1100 746 1100 z "},"Ẁ":{"ha":1285,"x_min":6,"x_max":1281,"o":"m 6 818 l 367 818 l 367 694 l 286 694 l 382 342 l 431 151 l 468 338 l 574 714 l 742 714 l 839 343 l 878 151 l 924 343 l 1026 694 l 939 694 l 939 818 l 1281 818 l 1281 694 l 1168 694 l 949 0 l 783 0 l 694 371 l 653 551 l 604 371 l 510 0 l 349 0 l 129 694 l 6 694 l 6 818 m 410 1085 l 747 964 l 729 907 l 378 965 l 410 1085 z "},"X":{"ha":953,"x_min":33,"x_max":926,"o":"m 33 0 l 33 122 l 164 122 l 388 411 l 156 694 l 39 694 l 39 818 l 404 818 l 404 694 l 321 694 l 475 504 l 626 694 l 542 694 l 542 818 l 900 818 l 900 694 l 772 694 l 557 414 l 792 122 l 926 122 l 926 0 l 539 0 l 539 122 l 629 122 l 469 318 l 313 122 l 394 122 l 394 0 l 33 0 z "},"Y":{"ha":914,"x_min":7,"x_max":907,"o":"m 7 818 l 368 818 l 368 694 l 285 694 l 465 444 l 656 694 l 560 694 l 560 818 l 907 818 l 907 694 l 810 694 l 531 340 l 529 122 l 660 122 l 660 0 l 258 0 l 258 122 l 389 122 l 390 338 l 119 694 l 7 694 l 7 818 z "},"Ý":{"ha":914,"x_min":7,"x_max":907,"o":"m 7 818 l 368 818 l 368 694 l 285 694 l 465 444 l 656 694 l 560 694 l 560 818 l 907 818 l 907 694 l 810 694 l 531 340 l 529 122 l 660 122 l 660 0 l 258 0 l 258 122 l 389 122 l 390 338 l 119 694 l 7 694 l 7 818 m 671 1088 l 703 967 l 353 908 l 333 967 l 671 1088 z "},"Ŷ":{"ha":914,"x_min":7,"x_max":907,"o":"m 7 818 l 368 818 l 368 694 l 285 694 l 465 444 l 656 694 l 560 694 l 560 818 l 907 818 l 907 694 l 810 694 l 531 340 l 529 122 l 660 122 l 660 0 l 258 0 l 258 122 l 389 122 l 390 338 l 119 694 l 7 694 l 7 818 m 457 1096 l 701 954 l 665 901 l 457 981 l 244 901 l 211 954 l 457 1096 z "},"Ÿ":{"ha":914,"x_min":7,"x_max":907,"o":"m 7 818 l 368 818 l 368 694 l 285 694 l 465 444 l 656 694 l 560 694 l 560 818 l 907 818 l 907 694 l 810 694 l 531 340 l 529 122 l 660 122 l 660 0 l 258 0 l 258 122 l 389 122 l 390 338 l 119 694 l 7 694 l 7 818 m 326 1100 q 388 1074 361 1100 q 415 1011 415 1047 q 389 949 415 975 q 326 922 363 922 q 264 949 290 922 q 238 1011 238 975 q 264 1074 238 1047 q 326 1100 290 1100 m 585 1100 q 646 1074 619 1100 q 672 1011 672 1047 q 647 949 672 975 q 585 922 621 922 q 522 949 549 922 q 496 1011 496 975 q 522 1074 496 1047 q 585 1100 549 1100 z "},"Ẏ":{"ha":914,"x_min":7,"x_max":907,"o":"m 7 818 l 368 818 l 368 694 l 285 694 l 465 444 l 656 694 l 560 694 l 560 818 l 907 818 l 907 694 l 810 694 l 531 340 l 529 122 l 660 122 l 660 0 l 258 0 l 258 122 l 389 122 l 390 338 l 119 694 l 7 694 l 7 818 m 456 1118 q 523 1092 497 1118 q 549 1025 549 1067 q 523 958 549 983 q 456 933 497 933 q 390 958 415 933 q 365 1025 365 983 q 390 1092 365 1067 q 456 1118 415 1118 z "},"Ỵ":{"ha":914,"x_min":7,"x_max":907,"o":"m 7 818 l 368 818 l 368 694 l 285 694 l 465 444 l 656 694 l 560 694 l 560 818 l 907 818 l 907 694 l 810 694 l 531 340 l 529 122 l 660 122 l 660 0 l 258 0 l 258 122 l 389 122 l 390 338 l 119 694 l 7 694 l 7 818 m 454 -81 q 522 -106 496 -81 q 547 -174 547 -132 q 522 -240 547 -215 q 454 -265 496 -265 q 389 -240 414 -265 q 364 -174 364 -215 q 389 -106 364 -132 q 454 -81 414 -81 z "},"Ỳ":{"ha":914,"x_min":7,"x_max":907,"o":"m 7 818 l 368 818 l 368 694 l 285 694 l 465 444 l 656 694 l 560 694 l 560 818 l 907 818 l 907 694 l 810 694 l 531 340 l 529 122 l 660 122 l 660 0 l 258 0 l 258 122 l 389 122 l 390 338 l 119 694 l 7 694 l 7 818 m 213 1085 l 550 964 l 532 907 l 181 965 l 213 1085 z "},"Ỷ":{"ha":914,"x_min":7,"x_max":907,"o":"m 7 818 l 368 818 l 368 694 l 285 694 l 465 444 l 656 694 l 560 694 l 560 818 l 907 818 l 907 694 l 810 694 l 531 340 l 529 122 l 660 122 l 660 0 l 258 0 l 258 122 l 389 122 l 390 338 l 119 694 l 7 694 l 7 818 m 432 935 q 469 976 456 953 q 483 1019 483 999 q 472 1049 483 1038 q 440 1061 461 1061 q 371 1022 406 1061 l 314 1086 q 458 1158 376 1158 q 548 1126 514 1158 q 582 1040 582 1094 q 556 962 582 1001 q 478 888 531 922 l 432 935 z "},"Ȳ":{"ha":914,"x_min":7,"x_max":907,"o":"m 7 818 l 368 818 l 368 694 l 285 694 l 465 444 l 656 694 l 560 694 l 560 818 l 907 818 l 907 694 l 810 694 l 531 340 l 529 122 l 660 122 l 660 0 l 258 0 l 258 122 l 389 122 l 390 338 l 119 694 l 7 694 l 7 818 m 233 1050 l 679 1050 l 679 954 l 233 954 l 233 1050 z "},"Ỹ":{"ha":914,"x_min":7,"x_max":907,"o":"m 7 818 l 368 818 l 368 694 l 285 694 l 465 444 l 656 694 l 560 694 l 560 818 l 907 818 l 907 694 l 810 694 l 531 340 l 529 122 l 660 122 l 660 0 l 258 0 l 258 122 l 389 122 l 390 338 l 119 694 l 7 694 l 7 818 m 238 1007 q 319 1057 285 1043 q 399 1071 353 1071 q 448 1063 426 1071 q 503 1040 469 1056 q 576 1015 546 1015 q 622 1024 601 1015 q 678 1058 642 1033 l 714 974 q 640 922 672 936 q 564 908 608 908 q 524 916 543 908 q 479 938 506 924 q 435 958 453 951 q 396 965 417 965 q 349 959 368 965 q 307 942 329 953 q 274 926 285 932 l 238 1007 z "},"Z":{"ha":771,"x_min":46,"x_max":725,"o":"m 86 818 l 690 818 l 690 728 l 247 124 l 556 124 l 607 263 l 725 224 l 649 0 l 63 0 l 63 99 l 500 694 l 192 694 l 164 567 l 46 585 l 86 818 z "},"Ź":{"ha":771,"x_min":46,"x_max":725,"o":"m 86 818 l 690 818 l 690 728 l 247 124 l 556 124 l 607 263 l 725 224 l 649 0 l 63 0 l 63 99 l 500 694 l 192 694 l 164 567 l 46 585 l 86 818 m 600 1088 l 632 967 l 282 908 l 263 967 l 600 1088 z "},"Ž":{"ha":771,"x_min":46,"x_max":725,"o":"m 86 818 l 690 818 l 690 728 l 247 124 l 556 124 l 607 263 l 725 224 l 649 0 l 63 0 l 63 99 l 500 694 l 192 694 l 164 567 l 46 585 l 86 818 m 388 889 l 163 1040 l 206 1106 l 389 1007 l 565 1107 l 608 1040 l 388 889 z "},"Ż":{"ha":771,"x_min":46,"x_max":725,"o":"m 86 818 l 690 818 l 690 728 l 247 124 l 556 124 l 607 263 l 725 224 l 649 0 l 63 0 l 63 99 l 500 694 l 192 694 l 164 567 l 46 585 l 86 818 m 385 1118 q 452 1092 426 1118 q 478 1025 478 1067 q 452 958 478 983 q 385 933 426 933 q 319 958 344 933 q 294 1025 294 983 q 319 1092 294 1067 q 385 1118 344 1118 z "},"Ẓ":{"ha":771,"x_min":46,"x_max":725,"o":"m 86 818 l 690 818 l 690 728 l 247 124 l 556 124 l 607 263 l 725 224 l 649 0 l 63 0 l 63 99 l 500 694 l 192 694 l 164 567 l 46 585 l 86 818 m 383 -81 q 451 -106 425 -81 q 476 -174 476 -132 q 451 -240 476 -215 q 383 -265 425 -265 q 318 -240 343 -265 q 293 -174 293 -215 q 318 -106 293 -132 q 383 -81 343 -81 z "},"a":{"ha":751,"x_min":50,"x_max":722,"o":"m 503 33 q 306 -24 408 -24 q 116 24 181 -24 q 50 167 51 72 q 113 308 50 260 q 296 357 175 357 l 460 356 q 426 485 460 442 q 331 528 393 528 q 214 511 265 528 l 200 439 l 85 457 l 110 596 q 331 636 219 636 q 531 565 463 636 q 600 360 600 494 l 600 125 l 722 85 l 686 -29 l 503 33 m 300 258 q 221 235 249 258 q 193 169 193 213 q 311 83 193 83 q 460 128 394 83 l 460 258 l 300 258 z "},"á":{"ha":751,"x_min":50,"x_max":722,"o":"m 503 33 q 306 -24 408 -24 q 116 24 181 -24 q 50 167 51 72 q 113 308 50 260 q 296 357 175 357 l 460 356 q 426 485 460 442 q 331 528 393 528 q 214 511 265 528 l 200 439 l 85 457 l 110 596 q 331 636 219 636 q 531 565 463 636 q 600 360 600 494 l 600 125 l 722 85 l 686 -29 l 503 33 m 300 258 q 221 235 249 258 q 193 169 193 213 q 311 83 193 83 q 460 128 394 83 l 460 258 l 300 258 m 447 1011 l 546 938 l 331 694 l 269 738 l 447 1011 z "},"ă":{"ha":751,"x_min":50,"x_max":722,"o":"m 503 33 q 306 -24 408 -24 q 116 24 181 -24 q 50 167 51 72 q 113 308 50 260 q 296 357 175 357 l 460 356 q 426 485 460 442 q 331 528 393 528 q 214 511 265 528 l 200 439 l 85 457 l 110 596 q 331 636 219 636 q 531 565 463 636 q 600 360 600 494 l 600 125 l 722 85 l 686 -29 l 503 33 m 300 258 q 221 235 249 258 q 193 169 193 213 q 311 83 193 83 q 460 128 394 83 l 460 258 l 300 258 m 335 703 q 177 750 236 703 q 104 888 118 797 l 204 903 q 335 801 217 801 q 429 827 396 801 q 467 903 463 853 l 568 888 q 494 750 553 797 q 335 703 436 703 z "},"ắ":{"ha":751,"x_min":50,"x_max":722,"o":"m 503 33 q 306 -24 408 -24 q 116 24 181 -24 q 50 167 51 72 q 113 308 50 260 q 296 357 175 357 l 460 356 q 426 485 460 442 q 331 528 393 528 q 214 511 265 528 l 200 439 l 85 457 l 110 596 q 331 636 219 636 q 531 565 463 636 q 600 360 600 494 l 600 125 l 722 85 l 686 -29 l 503 33 m 300 258 q 221 235 249 258 q 193 169 193 213 q 311 83 193 83 q 460 128 394 83 l 460 258 l 300 258 m 410 1126 l 507 1053 l 344 874 l 283 918 l 410 1126 m 333 703 q 176 750 235 703 q 103 888 117 797 l 203 903 q 333 801 215 801 q 428 827 394 801 q 465 903 461 853 l 567 888 q 493 750 551 797 q 333 703 435 703 z "},"ặ":{"ha":751,"x_min":50,"x_max":722,"o":"m 503 33 q 306 -24 408 -24 q 116 24 181 -24 q 50 167 51 72 q 113 308 50 260 q 296 357 175 357 l 460 356 q 426 485 460 442 q 331 528 393 528 q 214 511 265 528 l 200 439 l 85 457 l 110 596 q 331 636 219 636 q 531 565 463 636 q 600 360 600 494 l 600 125 l 722 85 l 686 -29 l 503 33 m 300 258 q 221 235 249 258 q 193 169 193 213 q 311 83 193 83 q 460 128 394 83 l 460 258 l 300 258 m 365 -81 q 433 -106 407 -81 q 458 -174 458 -132 q 433 -240 458 -215 q 365 -265 407 -265 q 300 -240 325 -265 q 275 -174 275 -215 q 300 -106 275 -132 q 365 -81 325 -81 m 335 703 q 177 750 236 703 q 104 888 118 797 l 204 903 q 335 801 217 801 q 429 827 396 801 q 467 903 463 853 l 568 888 q 494 750 553 797 q 335 703 436 703 z "},"ằ":{"ha":751,"x_min":50,"x_max":722,"o":"m 503 33 q 306 -24 408 -24 q 116 24 181 -24 q 50 167 51 72 q 113 308 50 260 q 296 357 175 357 l 460 356 q 426 485 460 442 q 331 528 393 528 q 214 511 265 528 l 200 439 l 85 457 l 110 596 q 331 636 219 636 q 531 565 463 636 q 600 360 600 494 l 600 125 l 722 85 l 686 -29 l 503 33 m 300 258 q 221 235 249 258 q 193 169 193 213 q 311 83 193 83 q 460 128 394 83 l 460 258 l 300 258 m 336 874 l 172 1053 l 271 1125 l 399 918 l 336 874 m 333 703 q 176 750 235 703 q 103 888 117 797 l 203 903 q 333 801 215 801 q 428 827 394 801 q 465 903 461 853 l 567 888 q 493 750 551 797 q 333 703 435 703 z "},"ẳ":{"ha":751,"x_min":50,"x_max":722,"o":"m 503 33 q 306 -24 408 -24 q 116 24 181 -24 q 50 167 51 72 q 113 308 50 260 q 296 357 175 357 l 460 356 q 426 485 460 442 q 331 528 393 528 q 214 511 265 528 l 200 439 l 85 457 l 110 596 q 331 636 219 636 q 531 565 463 636 q 600 360 600 494 l 600 125 l 722 85 l 686 -29 l 503 33 m 300 258 q 221 235 249 258 q 193 169 193 213 q 311 83 193 83 q 460 128 394 83 l 460 258 l 300 258 m 333 703 q 176 750 235 703 q 103 888 117 797 l 203 903 q 333 801 215 801 q 428 827 394 801 q 465 903 461 853 l 567 888 q 493 750 551 797 q 333 703 435 703 m 288 951 q 325 992 311 969 q 339 1036 339 1015 q 328 1066 339 1054 q 296 1078 317 1078 q 226 1039 261 1078 l 169 1103 q 314 1175 232 1175 q 403 1143 369 1175 q 438 1057 438 1111 q 412 978 438 1018 q 333 904 386 939 l 288 951 z "},"ẵ":{"ha":751,"x_min":50,"x_max":722,"o":"m 503 33 q 306 -24 408 -24 q 116 24 181 -24 q 50 167 51 72 q 113 308 50 260 q 296 357 175 357 l 460 356 q 426 485 460 442 q 331 528 393 528 q 214 511 265 528 l 200 439 l 85 457 l 110 596 q 331 636 219 636 q 531 565 463 636 q 600 360 600 494 l 600 125 l 722 85 l 686 -29 l 503 33 m 300 258 q 221 235 249 258 q 193 169 193 213 q 311 83 193 83 q 460 128 394 83 l 460 258 l 300 258 m 106 1038 q 182 1082 151 1069 q 254 1094 213 1094 q 305 1087 283 1094 q 357 1063 326 1079 q 399 1044 383 1050 q 432 1038 414 1038 q 475 1047 456 1038 q 533 1082 494 1056 l 554 997 q 486 951 515 964 q 418 938 457 938 q 333 967 383 938 q 287 988 304 981 q 249 994 269 994 q 201 988 221 994 q 160 972 182 982 q 126 956 138 961 l 106 1038 m 335 703 q 177 750 236 703 q 104 888 118 797 l 204 903 q 335 801 217 801 q 429 827 396 801 q 467 903 463 853 l 568 888 q 494 750 553 797 q 335 703 436 703 z "},"â":{"ha":751,"x_min":50,"x_max":722,"o":"m 503 33 q 306 -24 408 -24 q 116 24 181 -24 q 50 167 51 72 q 113 308 50 260 q 296 357 175 357 l 460 356 q 426 485 460 442 q 331 528 393 528 q 214 511 265 528 l 200 439 l 85 457 l 110 596 q 331 636 219 636 q 531 565 463 636 q 600 360 600 494 l 600 125 l 722 85 l 686 -29 l 503 33 m 300 258 q 221 235 249 258 q 193 169 193 213 q 311 83 193 83 q 460 128 394 83 l 460 258 l 300 258 m 338 914 l 558 763 l 515 696 l 339 796 l 156 697 l 113 763 l 338 914 z "},"ấ":{"ha":751,"x_min":50,"x_max":722,"o":"m 503 33 q 306 -24 408 -24 q 116 24 181 -24 q 50 167 51 72 q 113 308 50 260 q 296 357 175 357 l 460 356 q 426 485 460 442 q 331 528 393 528 q 214 511 265 528 l 200 439 l 85 457 l 110 596 q 331 636 219 636 q 531 565 463 636 q 600 360 600 494 l 600 125 l 722 85 l 686 -29 l 503 33 m 300 258 q 221 235 249 258 q 193 169 193 213 q 311 83 193 83 q 460 128 394 83 l 460 258 l 300 258 m 549 1113 l 646 1039 l 483 860 l 422 904 l 549 1113 m 338 914 l 558 763 l 515 696 l 339 796 l 156 697 l 113 763 l 338 914 z "},"ậ":{"ha":751,"x_min":50,"x_max":722,"o":"m 503 33 q 306 -24 408 -24 q 116 24 181 -24 q 50 167 51 72 q 113 308 50 260 q 296 357 175 357 l 460 356 q 426 485 460 442 q 331 528 393 528 q 214 511 265 528 l 200 439 l 85 457 l 110 596 q 331 636 219 636 q 531 565 463 636 q 600 360 600 494 l 600 125 l 722 85 l 686 -29 l 503 33 m 300 258 q 221 235 249 258 q 193 169 193 213 q 311 83 193 83 q 460 128 394 83 l 460 258 l 300 258 m 365 -81 q 433 -106 407 -81 q 458 -174 458 -132 q 433 -240 458 -215 q 365 -265 407 -265 q 300 -240 325 -265 q 275 -174 275 -215 q 300 -106 275 -132 q 365 -81 325 -81 m 338 914 l 558 763 l 515 696 l 339 796 l 156 697 l 113 763 l 338 914 z "},"ầ":{"ha":751,"x_min":50,"x_max":722,"o":"m 503 33 q 306 -24 408 -24 q 116 24 181 -24 q 50 167 51 72 q 113 308 50 260 q 296 357 175 357 l 460 356 q 426 485 460 442 q 331 528 393 528 q 214 511 265 528 l 200 439 l 85 457 l 110 596 q 331 636 219 636 q 531 565 463 636 q 600 360 600 494 l 600 125 l 722 85 l 686 -29 l 503 33 m 300 258 q 221 235 249 258 q 193 169 193 213 q 311 83 193 83 q 460 128 394 83 l 460 258 l 300 258 m 485 860 l 321 1039 l 419 1111 l 546 904 l 485 860 m 338 914 l 558 763 l 515 696 l 339 796 l 156 697 l 113 763 l 338 914 z "},"ẩ":{"ha":751,"x_min":50,"x_max":722,"o":"m 503 33 q 306 -24 408 -24 q 116 24 181 -24 q 50 167 51 72 q 113 308 50 260 q 296 357 175 357 l 460 356 q 426 485 460 442 q 331 528 393 528 q 214 511 265 528 l 200 439 l 85 457 l 110 596 q 331 636 219 636 q 531 565 463 636 q 600 360 600 494 l 600 125 l 722 85 l 686 -29 l 503 33 m 300 258 q 221 235 249 258 q 193 169 193 213 q 311 83 193 83 q 460 128 394 83 l 460 258 l 300 258 m 338 914 l 558 763 l 515 696 l 339 796 l 156 697 l 113 763 l 338 914 m 463 888 q 500 928 486 906 q 514 972 514 951 q 503 1002 514 990 q 471 1014 492 1014 q 401 975 436 1014 l 344 1039 q 489 1111 407 1111 q 578 1079 544 1111 q 613 993 613 1047 q 587 915 613 954 q 508 840 561 875 l 463 888 z "},"ẫ":{"ha":751,"x_min":50,"x_max":722,"o":"m 503 33 q 306 -24 408 -24 q 116 24 181 -24 q 50 167 51 72 q 113 308 50 260 q 296 357 175 357 l 460 356 q 426 485 460 442 q 331 528 393 528 q 214 511 265 528 l 200 439 l 85 457 l 110 596 q 331 636 219 636 q 531 565 463 636 q 600 360 600 494 l 600 125 l 722 85 l 686 -29 l 503 33 m 300 258 q 221 235 249 258 q 193 169 193 213 q 311 83 193 83 q 460 128 394 83 l 460 258 l 300 258 m 114 1040 q 191 1085 161 1072 q 264 1097 221 1097 q 315 1090 293 1097 q 367 1065 336 1082 q 409 1046 394 1051 q 440 1040 424 1040 q 486 1049 467 1040 q 543 1085 506 1058 l 563 1000 q 495 953 525 967 q 428 940 465 940 q 390 947 407 940 q 343 968 372 954 q 297 990 317 982 q 257 997 278 997 q 210 991 231 997 q 167 974 190 985 q 135 958 144 963 l 114 1040 m 338 914 l 558 763 l 515 696 l 339 796 l 156 697 l 113 763 l 338 914 z "},"ȁ":{"ha":751,"x_min":-18,"x_max":722,"o":"m 503 33 q 306 -24 408 -24 q 116 24 181 -24 q 50 167 51 72 q 113 308 50 260 q 296 357 175 357 l 460 356 q 426 485 460 442 q 331 528 393 528 q 214 511 265 528 l 200 439 l 85 457 l 110 596 q 331 636 219 636 q 531 565 463 636 q 600 360 600 494 l 600 125 l 722 85 l 686 -29 l 503 33 m 300 258 q 221 235 249 258 q 193 169 193 213 q 311 83 193 83 q 460 128 394 83 l 460 258 l 300 258 m 321 1011 l 499 738 l 438 694 l 222 938 l 321 1011 m 63 982 l 290 749 l 238 694 l -18 894 l 63 982 z "},"ä":{"ha":751,"x_min":50,"x_max":722,"o":"m 503 33 q 306 -24 408 -24 q 116 24 181 -24 q 50 167 51 72 q 113 308 50 260 q 296 357 175 357 l 460 356 q 426 485 460 442 q 331 528 393 528 q 214 511 265 528 l 200 439 l 85 457 l 110 596 q 331 636 219 636 q 531 565 463 636 q 600 360 600 494 l 600 125 l 722 85 l 686 -29 l 503 33 m 300 258 q 221 235 249 258 q 193 169 193 213 q 311 83 193 83 q 460 128 394 83 l 460 258 l 300 258 m 206 893 q 267 867 240 893 q 294 804 294 840 q 268 742 294 768 q 206 715 242 715 q 143 742 169 715 q 117 804 117 768 q 143 867 117 840 q 206 893 169 893 m 464 893 q 525 867 499 893 q 551 804 551 840 q 526 742 551 768 q 464 715 500 715 q 401 742 428 715 q 375 804 375 768 q 401 867 375 840 q 464 893 428 893 z "},"ạ":{"ha":751,"x_min":50,"x_max":722,"o":"m 503 33 q 306 -24 408 -24 q 116 24 181 -24 q 50 167 51 72 q 113 308 50 260 q 296 357 175 357 l 460 356 q 426 485 460 442 q 331 528 393 528 q 214 511 265 528 l 200 439 l 85 457 l 110 596 q 331 636 219 636 q 531 565 463 636 q 600 360 600 494 l 600 125 l 722 85 l 686 -29 l 503 33 m 300 258 q 221 235 249 258 q 193 169 193 213 q 311 83 193 83 q 460 128 394 83 l 460 258 l 300 258 m 365 -81 q 433 -106 407 -81 q 458 -174 458 -132 q 433 -240 458 -215 q 365 -265 407 -265 q 300 -240 325 -265 q 275 -174 275 -215 q 300 -106 275 -132 q 365 -81 325 -81 z "},"à":{"ha":751,"x_min":50,"x_max":722,"o":"m 503 33 q 306 -24 408 -24 q 116 24 181 -24 q 50 167 51 72 q 113 308 50 260 q 296 357 175 357 l 460 356 q 426 485 460 442 q 331 528 393 528 q 214 511 265 528 l 200 439 l 85 457 l 110 596 q 331 636 219 636 q 531 565 463 636 q 600 360 600 494 l 600 125 l 722 85 l 686 -29 l 503 33 m 300 258 q 221 235 249 258 q 193 169 193 213 q 311 83 193 83 q 460 128 394 83 l 460 258 l 300 258 m 332 694 l 118 938 l 215 1011 l 394 738 l 332 694 z "},"ả":{"ha":751,"x_min":50,"x_max":722,"o":"m 503 33 q 306 -24 408 -24 q 116 24 181 -24 q 50 167 51 72 q 113 308 50 260 q 296 357 175 357 l 460 356 q 426 485 460 442 q 331 528 393 528 q 214 511 265 528 l 200 439 l 85 457 l 110 596 q 331 636 219 636 q 531 565 463 636 q 600 360 600 494 l 600 125 l 722 85 l 686 -29 l 503 33 m 300 258 q 221 235 249 258 q 193 169 193 213 q 311 83 193 83 q 460 128 394 83 l 460 258 l 300 258 m 311 728 q 349 769 335 746 q 363 813 363 792 q 351 842 363 831 q 319 854 340 854 q 250 815 285 854 l 193 879 q 338 951 256 951 q 427 919 393 951 q 461 833 461 888 q 435 755 461 794 q 357 681 410 715 l 311 728 z "},"ȃ":{"ha":751,"x_min":50,"x_max":722,"o":"m 503 33 q 306 -24 408 -24 q 116 24 181 -24 q 50 167 51 72 q 113 308 50 260 q 296 357 175 357 l 460 356 q 426 485 460 442 q 331 528 393 528 q 214 511 265 528 l 200 439 l 85 457 l 110 596 q 331 636 219 636 q 531 565 463 636 q 600 360 600 494 l 600 125 l 722 85 l 686 -29 l 503 33 m 300 258 q 221 235 249 258 q 193 169 193 213 q 311 83 193 83 q 460 128 394 83 l 460 258 l 300 258 m 335 917 q 494 869 436 917 q 568 732 553 822 l 467 717 q 429 792 463 767 q 335 818 396 818 q 204 717 217 818 l 104 732 q 177 869 118 822 q 335 917 236 917 z "},"ā":{"ha":751,"x_min":50,"x_max":722,"o":"m 503 33 q 306 -24 408 -24 q 116 24 181 -24 q 50 167 51 72 q 113 308 50 260 q 296 357 175 357 l 460 356 q 426 485 460 442 q 331 528 393 528 q 214 511 265 528 l 200 439 l 85 457 l 110 596 q 331 636 219 636 q 531 565 463 636 q 600 360 600 494 l 600 125 l 722 85 l 686 -29 l 503 33 m 300 258 q 221 235 249 258 q 193 169 193 213 q 311 83 193 83 q 460 128 394 83 l 460 258 l 300 258 m 113 843 l 558 843 l 558 747 l 113 747 l 113 843 z "},"ą":{"ha":751,"x_min":50,"x_max":725,"o":"m 657 -243 q 725 -229 686 -243 l 725 -324 q 607 -350 664 -350 q 484 -314 531 -350 q 438 -221 438 -278 q 481 -101 438 -154 q 618 -6 525 -47 l 503 33 q 306 -24 408 -24 q 116 24 181 -24 q 50 167 51 72 q 113 308 50 260 q 296 357 175 357 l 460 356 q 426 485 460 442 q 331 528 393 528 q 214 511 265 528 l 200 439 l 85 457 l 110 596 q 331 636 219 636 q 531 565 463 636 q 600 360 600 494 l 600 125 l 722 85 l 686 -29 q 574 -176 574 -89 q 597 -225 574 -207 q 657 -243 619 -243 m 460 258 l 300 258 q 221 235 249 258 q 193 169 193 213 q 311 83 193 83 q 460 128 394 83 l 460 258 z "},"å":{"ha":751,"x_min":50,"x_max":722,"o":"m 503 33 q 306 -24 408 -24 q 116 24 181 -24 q 50 167 51 72 q 113 308 50 260 q 296 357 175 357 l 460 356 q 426 485 460 442 q 331 528 393 528 q 214 511 265 528 l 200 439 l 85 457 l 110 596 q 331 636 219 636 q 531 565 463 636 q 600 360 600 494 l 600 125 l 722 85 l 686 -29 l 503 33 m 300 258 q 221 235 249 258 q 193 169 193 213 q 311 83 193 83 q 460 128 394 83 l 460 258 l 300 258 m 336 978 q 434 941 397 978 q 471 843 471 904 q 434 745 471 782 q 336 708 397 708 q 238 745 275 708 q 201 843 201 782 q 238 941 201 904 q 336 978 275 978 m 336 906 q 290 888 308 906 q 272 843 272 871 q 290 798 272 815 q 336 781 308 781 q 381 798 364 781 q 399 843 399 815 q 381 888 399 871 q 336 906 364 906 z "},"ǻ":{"ha":751,"x_min":50,"x_max":722,"o":"m 503 33 q 306 -24 408 -24 q 116 24 181 -24 q 50 167 51 72 q 113 308 50 260 q 296 357 175 357 l 460 356 q 426 485 460 442 q 331 528 393 528 q 214 511 265 528 l 200 439 l 85 457 l 110 596 q 331 636 219 636 q 531 565 463 636 q 600 360 600 494 l 600 125 l 722 85 l 686 -29 l 503 33 m 300 258 q 221 235 249 258 q 193 169 193 213 q 311 83 193 83 q 460 128 394 83 l 460 258 l 300 258 m 336 978 q 434 941 397 978 q 471 843 471 904 q 434 745 471 782 q 336 708 397 708 q 238 745 275 708 q 201 843 201 782 q 238 941 201 904 q 336 978 275 978 m 336 906 q 290 888 308 906 q 272 843 272 871 q 290 798 272 815 q 336 781 308 781 q 381 798 364 781 q 399 843 399 815 q 381 888 399 871 q 336 906 364 906 m 447 1378 l 546 1304 l 331 1061 l 269 1104 l 447 1378 z "},"ã":{"ha":751,"x_min":50,"x_max":722,"o":"m 503 33 q 306 -24 408 -24 q 116 24 181 -24 q 50 167 51 72 q 113 308 50 260 q 296 357 175 357 l 460 356 q 426 485 460 442 q 331 528 393 528 q 214 511 265 528 l 200 439 l 85 457 l 110 596 q 331 636 219 636 q 531 565 463 636 q 600 360 600 494 l 600 125 l 722 85 l 686 -29 l 503 33 m 300 258 q 221 235 249 258 q 193 169 193 213 q 311 83 193 83 q 460 128 394 83 l 460 258 l 300 258 m 117 800 q 198 850 164 836 q 278 864 232 864 q 327 856 306 864 q 382 833 349 849 q 456 808 425 808 q 501 817 481 808 q 557 851 521 826 l 593 767 q 519 715 551 729 q 443 701 488 701 q 403 709 422 701 q 358 731 385 717 q 314 751 332 744 q 275 758 296 758 q 228 752 247 758 q 186 735 208 746 q 153 719 164 725 l 117 800 z "},"æ":{"ha":1100,"x_min":50,"x_max":1044,"o":"m 108 586 q 213 619 165 608 q 321 629 260 629 q 468 595 411 629 q 547 501 525 561 q 651 596 589 563 q 785 629 713 629 q 915 595 857 629 q 1006 495 972 561 q 1039 338 1039 429 q 1033 265 1039 299 l 596 264 q 651 133 603 179 q 776 86 699 86 q 899 107 851 86 q 983 153 947 128 l 1044 72 q 1008 41 1042 65 q 914 -4 974 17 q 775 -25 854 -25 q 549 57 632 -25 q 435 1 507 28 q 306 -25 363 -25 q 119 28 188 -25 q 50 167 51 81 q 118 315 50 267 q 296 363 186 363 l 467 361 q 456 444 467 413 q 415 493 446 476 q 326 510 385 510 q 214 496 275 510 l 201 425 l 85 446 l 108 586 m 919 369 q 776 515 917 515 q 658 477 706 515 q 597 369 611 439 l 919 369 m 300 257 q 222 238 251 257 q 193 169 193 219 q 227 108 193 129 q 311 88 261 88 q 407 104 354 88 q 493 142 460 121 q 465 256 469 200 l 300 257 z "},"ǽ":{"ha":1100,"x_min":50,"x_max":1044,"o":"m 108 586 q 213 619 165 608 q 321 629 260 629 q 468 595 411 629 q 547 501 525 561 q 651 596 589 563 q 785 629 713 629 q 915 595 857 629 q 1006 495 972 561 q 1039 338 1039 429 q 1033 265 1039 299 l 596 264 q 651 133 603 179 q 776 86 699 86 q 899 107 851 86 q 983 153 947 128 l 1044 72 q 1008 41 1042 65 q 914 -4 974 17 q 775 -25 854 -25 q 549 57 632 -25 q 435 1 507 28 q 306 -25 363 -25 q 119 28 188 -25 q 50 167 51 81 q 118 315 50 267 q 296 363 186 363 l 467 361 q 456 444 467 413 q 415 493 446 476 q 326 510 385 510 q 214 496 275 510 l 201 425 l 85 446 l 108 586 m 919 369 q 776 515 917 515 q 658 477 706 515 q 597 369 611 439 l 919 369 m 300 257 q 222 238 251 257 q 193 169 193 219 q 227 108 193 129 q 311 88 261 88 q 407 104 354 88 q 493 142 460 121 q 465 256 469 200 l 300 257 m 668 1011 l 767 938 l 551 694 l 490 738 l 668 1011 z "},"b":{"ha":744,"x_min":-44,"x_max":686,"o":"m 369 -24 q 92 54 203 -24 l 92 758 l -44 806 l -6 921 l 229 840 l 229 593 q 383 636 306 636 q 611 556 536 636 q 686 315 686 476 q 608 60 686 144 q 369 -24 529 -24 m 368 89 q 501 145 457 89 q 544 315 544 201 q 504 471 544 419 q 382 522 464 522 q 229 474 301 522 l 229 115 q 368 89 283 89 z "},"c":{"ha":675,"x_min":56,"x_max":625,"o":"m 489 513 q 385 529 435 529 q 246 472 294 529 q 197 303 197 414 q 249 147 197 203 q 382 90 301 90 q 567 154 476 90 l 624 69 q 506 -2 560 19 q 374 -24 451 -24 q 141 63 226 -24 q 56 303 56 149 q 144 551 56 464 q 383 638 232 638 q 485 628 436 638 q 597 597 535 618 l 625 428 l 508 403 l 489 513 z "},"ć":{"ha":675,"x_min":56,"x_max":625,"o":"m 489 513 q 385 529 435 529 q 246 472 294 529 q 197 303 197 414 q 249 147 197 203 q 382 90 301 90 q 567 154 476 90 l 624 69 q 506 -2 560 19 q 374 -24 451 -24 q 141 63 226 -24 q 56 303 56 149 q 144 551 56 464 q 383 638 232 638 q 485 628 436 638 q 597 597 535 618 l 625 428 l 508 403 l 489 513 m 496 1011 l 594 938 l 379 694 l 318 738 l 496 1011 z "},"č":{"ha":675,"x_min":56,"x_max":625,"o":"m 489 513 q 385 529 435 529 q 246 472 294 529 q 197 303 197 414 q 249 147 197 203 q 382 90 301 90 q 567 154 476 90 l 624 69 q 506 -2 560 19 q 374 -24 451 -24 q 141 63 226 -24 q 56 303 56 149 q 144 551 56 464 q 383 638 232 638 q 485 628 436 638 q 597 597 535 618 l 625 428 l 508 403 l 489 513 m 386 682 l 161 833 l 204 899 l 388 800 l 564 900 l 607 833 l 386 682 z "},"ç":{"ha":675,"x_min":56,"x_max":625,"o":"m 624 69 q 529 8 572 29 q 432 -19 486 -12 l 432 -78 q 556 -103 515 -75 q 597 -192 597 -132 q 551 -286 597 -253 q 431 -319 506 -319 q 337 -301 375 -319 q 267 -261 299 -283 l 306 -200 q 429 -239 363 -239 q 494 -189 494 -239 q 476 -153 494 -165 q 414 -142 458 -142 l 344 -142 l 344 -22 q 133 72 211 -14 q 56 303 56 157 q 144 551 56 464 q 383 638 232 638 q 485 628 436 638 q 597 597 535 618 l 625 428 l 508 403 l 489 513 q 385 529 435 529 q 246 472 294 529 q 197 303 197 414 q 249 147 197 203 q 382 90 301 90 q 567 154 476 90 l 624 69 z "},"ḉ":{"ha":675,"x_min":56,"x_max":625,"o":"m 594 938 l 379 694 l 318 738 l 496 1011 l 594 938 m 624 69 q 529 8 572 29 q 432 -19 486 -12 l 432 -78 q 556 -103 515 -75 q 597 -192 597 -132 q 551 -286 597 -253 q 431 -319 506 -319 q 337 -301 375 -319 q 267 -261 299 -283 l 306 -200 q 429 -239 363 -239 q 494 -189 494 -239 q 476 -153 494 -165 q 414 -142 458 -142 l 344 -142 l 344 -22 q 133 72 211 -14 q 56 303 56 157 q 144 551 56 464 q 383 638 232 638 q 485 628 436 638 q 597 597 535 618 l 625 428 l 508 403 l 489 513 q 385 529 435 529 q 246 472 294 529 q 197 303 197 414 q 249 147 197 203 q 382 90 301 90 q 567 154 476 90 l 624 69 z "},"ĉ":{"ha":675,"x_min":56,"x_max":625,"o":"m 489 513 q 385 529 435 529 q 246 472 294 529 q 197 303 197 414 q 249 147 197 203 q 382 90 301 90 q 567 154 476 90 l 624 69 q 506 -2 560 19 q 374 -24 451 -24 q 141 63 226 -24 q 56 303 56 149 q 144 551 56 464 q 383 638 232 638 q 485 628 436 638 q 597 597 535 618 l 625 428 l 508 403 l 489 513 m 386 914 l 607 763 l 564 696 l 388 796 l 204 697 l 161 763 l 386 914 z "},"ċ":{"ha":675,"x_min":56,"x_max":625,"o":"m 489 513 q 385 529 435 529 q 246 472 294 529 q 197 303 197 414 q 249 147 197 203 q 382 90 301 90 q 567 154 476 90 l 624 69 q 506 -2 560 19 q 374 -24 451 -24 q 141 63 226 -24 q 56 303 56 149 q 144 551 56 464 q 383 638 232 638 q 485 628 436 638 q 597 597 535 618 l 625 428 l 508 403 l 489 513 m 383 911 q 451 885 425 911 q 476 818 476 860 q 451 751 476 776 q 383 726 425 726 q 318 751 343 726 q 293 818 293 776 q 318 885 293 860 q 383 911 343 911 z "},"d":{"ha":804,"x_min":56,"x_max":775,"o":"m 557 33 q 470 -8 518 7 q 375 -24 422 -24 q 140 65 224 -24 q 56 314 56 154 q 140 551 56 467 q 375 636 224 636 q 513 610 442 636 l 513 758 l 378 806 l 417 921 l 651 840 l 651 131 l 775 88 l 738 -29 l 557 33 m 376 89 q 446 100 408 89 q 513 129 483 111 l 513 492 q 447 514 485 506 q 376 522 410 522 q 247 465 296 522 q 197 315 197 408 q 247 151 197 214 q 376 89 296 89 z "},"ð":{"ha":753,"x_min":53,"x_max":692,"o":"m 429 810 q 617 624 546 746 q 692 364 689 501 q 603 71 692 168 q 371 -26 514 -26 q 211 9 283 -26 q 96 118 139 44 q 53 301 53 192 q 94 463 53 394 q 206 569 136 532 q 357 606 276 606 q 504 576 447 606 q 356 729 451 668 l 294 661 l 221 729 l 265 778 q 139 829 210 803 l 164 918 q 338 858 285 883 l 403 929 l 475 861 l 429 810 m 376 503 q 242 449 289 503 q 194 296 194 394 q 240 140 194 193 q 372 88 285 88 q 506 157 460 88 q 553 343 553 226 q 536 463 553 396 q 464 492 507 481 q 376 503 421 503 z "},"ď":{"ha":804,"x_min":56,"x_max":800,"o":"m 557 33 q 470 -8 518 7 q 375 -24 422 -24 q 140 65 224 -24 q 56 314 56 154 q 140 551 56 467 q 375 636 224 636 q 513 610 442 636 l 513 758 l 378 806 l 417 921 l 651 840 l 651 131 l 775 88 l 738 -29 l 557 33 m 376 89 q 446 100 408 89 q 513 129 483 111 l 513 492 q 447 514 485 506 q 376 522 410 522 q 247 465 296 522 q 197 315 197 408 q 247 151 197 214 q 376 89 296 89 m 579 918 l 354 1069 l 397 1135 l 581 1036 l 757 1136 l 800 1069 l 579 918 z "},"đ":{"ha":804,"x_min":56,"x_max":775,"o":"m 775 88 l 738 -29 l 557 33 q 470 -8 518 7 q 375 -24 422 -24 q 140 60 224 -24 q 56 294 56 144 q 140 517 56 436 q 375 599 225 599 q 513 574 440 599 l 513 643 l 319 643 l 319 728 l 513 728 l 513 758 l 378 806 l 417 921 l 651 840 l 651 728 l 764 728 l 764 643 l 651 643 l 651 131 l 775 88 m 513 456 q 448 477 486 469 q 376 485 410 485 q 247 432 296 485 q 197 294 197 379 q 247 145 197 201 q 376 89 296 89 q 513 129 447 89 l 513 456 z "},"ḍ":{"ha":804,"x_min":56,"x_max":775,"o":"m 557 33 q 470 -8 518 7 q 375 -24 422 -24 q 140 65 224 -24 q 56 314 56 154 q 140 551 56 467 q 375 636 224 636 q 513 610 442 636 l 513 758 l 378 806 l 417 921 l 651 840 l 651 131 l 775 88 l 738 -29 l 557 33 m 376 89 q 446 100 408 89 q 513 129 483 111 l 513 492 q 447 514 485 506 q 376 522 410 522 q 247 465 296 522 q 197 315 197 408 q 247 151 197 214 q 376 89 296 89 m 410 -81 q 477 -106 451 -81 q 503 -174 503 -132 q 477 -240 503 -215 q 410 -265 451 -265 q 344 -240 369 -265 q 319 -174 319 -215 q 344 -106 319 -132 q 410 -81 369 -81 z "},"ḏ":{"ha":804,"x_min":56,"x_max":775,"o":"m 557 33 q 470 -8 518 7 q 375 -24 422 -24 q 140 65 224 -24 q 56 314 56 154 q 140 551 56 467 q 375 636 224 636 q 513 610 442 636 l 513 758 l 378 806 l 417 921 l 651 840 l 651 131 l 775 88 l 738 -29 l 557 33 m 376 89 q 446 100 408 89 q 513 129 483 111 l 513 492 q 447 514 485 506 q 376 522 410 522 q 247 465 296 522 q 197 315 197 408 q 247 151 197 214 q 376 89 296 89 m 190 -68 l 635 -68 l 635 -167 l 190 -167 l 190 -68 z "},"e":{"ha":708,"x_min":51,"x_max":664,"o":"m 643 74 q 389 -24 529 -24 q 142 65 233 -24 q 51 306 51 154 q 91 478 51 403 q 201 594 131 553 q 365 636 272 636 q 583 553 503 636 q 664 332 664 469 q 658 264 664 308 l 186 263 q 248 131 192 175 q 386 88 304 88 q 590 158 503 88 l 643 74 m 525 363 q 482 480 525 435 q 368 525 439 525 q 247 479 297 525 q 189 363 196 433 l 525 363 z "},"é":{"ha":708,"x_min":51,"x_max":664,"o":"m 643 74 q 389 -24 529 -24 q 142 65 233 -24 q 51 306 51 154 q 91 478 51 403 q 201 594 131 553 q 365 636 272 636 q 583 553 503 636 q 664 332 664 469 q 658 264 664 308 l 186 263 q 248 131 192 175 q 386 88 304 88 q 590 158 503 88 l 643 74 m 525 363 q 482 480 525 435 q 368 525 439 525 q 247 479 297 525 q 189 363 196 433 l 525 363 m 472 1011 l 571 938 l 356 694 l 294 738 l 472 1011 z "},"ĕ":{"ha":708,"x_min":51,"x_max":664,"o":"m 643 74 q 389 -24 529 -24 q 142 65 233 -24 q 51 306 51 154 q 91 478 51 403 q 201 594 131 553 q 365 636 272 636 q 583 553 503 636 q 664 332 664 469 q 658 264 664 308 l 186 263 q 248 131 192 175 q 386 88 304 88 q 590 158 503 88 l 643 74 m 525 363 q 482 480 525 435 q 368 525 439 525 q 247 479 297 525 q 189 363 196 433 l 525 363 m 360 703 q 202 750 261 703 q 129 888 143 797 l 229 903 q 360 801 242 801 q 454 827 421 801 q 492 903 488 853 l 593 888 q 519 750 578 797 q 360 703 461 703 z "},"ě":{"ha":708,"x_min":51,"x_max":664,"o":"m 643 74 q 389 -24 529 -24 q 142 65 233 -24 q 51 306 51 154 q 91 478 51 403 q 201 594 131 553 q 365 636 272 636 q 583 553 503 636 q 664 332 664 469 q 658 264 664 308 l 186 263 q 248 131 192 175 q 386 88 304 88 q 590 158 503 88 l 643 74 m 525 363 q 482 480 525 435 q 368 525 439 525 q 247 479 297 525 q 189 363 196 433 l 525 363 m 363 682 l 138 833 l 181 899 l 364 800 l 540 900 l 583 833 l 363 682 z "},"ḝ":{"ha":708,"x_min":51,"x_max":664,"o":"m 360 703 q 202 750 261 703 q 129 888 143 797 l 229 903 q 360 801 242 801 q 454 827 421 801 q 492 903 488 853 l 593 888 q 519 750 578 797 q 360 703 461 703 m 664 332 q 658 264 664 308 l 186 263 q 248 131 192 175 q 386 88 304 88 q 590 158 503 88 l 643 74 q 440 -21 551 -6 l 440 -78 q 565 -103 524 -75 q 606 -192 606 -132 q 560 -286 606 -253 q 439 -319 514 -319 q 345 -301 383 -319 q 275 -261 307 -283 l 314 -200 q 438 -239 371 -239 q 503 -189 503 -239 q 485 -153 503 -165 q 422 -142 467 -142 l 353 -142 l 353 -22 q 132 76 213 -11 q 51 306 51 164 q 91 478 51 403 q 201 594 131 553 q 365 636 272 636 q 583 553 503 636 q 664 332 664 469 m 525 363 q 482 480 525 435 q 368 525 439 525 q 247 479 297 525 q 189 363 196 433 l 525 363 z "},"ê":{"ha":708,"x_min":51,"x_max":664,"o":"m 643 74 q 389 -24 529 -24 q 142 65 233 -24 q 51 306 51 154 q 91 478 51 403 q 201 594 131 553 q 365 636 272 636 q 583 553 503 636 q 664 332 664 469 q 658 264 664 308 l 186 263 q 248 131 192 175 q 386 88 304 88 q 590 158 503 88 l 643 74 m 525 363 q 482 480 525 435 q 368 525 439 525 q 247 479 297 525 q 189 363 196 433 l 525 363 m 363 914 l 583 763 l 540 696 l 364 796 l 181 697 l 138 763 l 363 914 z "},"ế":{"ha":708,"x_min":51,"x_max":671,"o":"m 643 74 q 389 -24 529 -24 q 142 65 233 -24 q 51 306 51 154 q 91 478 51 403 q 201 594 131 553 q 365 636 272 636 q 583 553 503 636 q 664 332 664 469 q 658 264 664 308 l 186 263 q 248 131 192 175 q 386 88 304 88 q 590 158 503 88 l 643 74 m 525 363 q 482 480 525 435 q 368 525 439 525 q 247 479 297 525 q 189 363 196 433 l 525 363 m 574 1113 l 671 1039 l 508 860 l 447 904 l 574 1113 m 363 914 l 583 763 l 540 696 l 364 796 l 181 697 l 138 763 l 363 914 z "},"ệ":{"ha":708,"x_min":51,"x_max":664,"o":"m 643 74 q 389 -24 529 -24 q 142 65 233 -24 q 51 306 51 154 q 91 478 51 403 q 201 594 131 553 q 365 636 272 636 q 583 553 503 636 q 664 332 664 469 q 658 264 664 308 l 186 263 q 248 131 192 175 q 386 88 304 88 q 590 158 503 88 l 643 74 m 525 363 q 482 480 525 435 q 368 525 439 525 q 247 479 297 525 q 189 363 196 433 l 525 363 m 350 -81 q 417 -106 392 -81 q 443 -174 443 -132 q 417 -240 443 -215 q 350 -265 392 -265 q 285 -240 310 -265 q 260 -174 260 -215 q 285 -106 260 -132 q 350 -81 310 -81 m 363 914 l 583 763 l 540 696 l 364 796 l 181 697 l 138 763 l 363 914 z "},"ề":{"ha":708,"x_min":51,"x_max":664,"o":"m 643 74 q 389 -24 529 -24 q 142 65 233 -24 q 51 306 51 154 q 91 478 51 403 q 201 594 131 553 q 365 636 272 636 q 583 553 503 636 q 664 332 664 469 q 658 264 664 308 l 186 263 q 248 131 192 175 q 386 88 304 88 q 590 158 503 88 l 643 74 m 525 363 q 482 480 525 435 q 368 525 439 525 q 247 479 297 525 q 189 363 196 433 l 525 363 m 510 860 l 346 1039 l 444 1111 l 571 904 l 510 860 m 363 914 l 583 763 l 540 696 l 364 796 l 181 697 l 138 763 l 363 914 z "},"ể":{"ha":708,"x_min":51,"x_max":664,"o":"m 643 74 q 389 -24 529 -24 q 142 65 233 -24 q 51 306 51 154 q 91 478 51 403 q 201 594 131 553 q 365 636 272 636 q 583 553 503 636 q 664 332 664 469 q 658 264 664 308 l 186 263 q 248 131 192 175 q 386 88 304 88 q 590 158 503 88 l 643 74 m 525 363 q 482 480 525 435 q 368 525 439 525 q 247 479 297 525 q 189 363 196 433 l 525 363 m 363 914 l 583 763 l 540 696 l 364 796 l 181 697 l 138 763 l 363 914 m 488 888 q 525 928 511 906 q 539 972 539 951 q 528 1002 539 990 q 496 1014 517 1014 q 426 975 461 1014 l 369 1039 q 514 1111 432 1111 q 603 1079 569 1111 q 638 993 638 1047 q 612 915 638 954 q 533 840 586 875 l 488 888 z "},"ễ":{"ha":708,"x_min":51,"x_max":664,"o":"m 643 74 q 389 -24 529 -24 q 142 65 233 -24 q 51 306 51 154 q 91 478 51 403 q 201 594 131 553 q 365 636 272 636 q 583 553 503 636 q 664 332 664 469 q 658 264 664 308 l 186 263 q 248 131 192 175 q 386 88 304 88 q 590 158 503 88 l 643 74 m 525 363 q 482 480 525 435 q 368 525 439 525 q 247 479 297 525 q 189 363 196 433 l 525 363 m 139 1040 q 216 1085 186 1072 q 289 1097 246 1097 q 340 1090 318 1097 q 392 1065 361 1082 q 434 1046 419 1051 q 465 1040 449 1040 q 511 1049 492 1040 q 568 1085 531 1058 l 588 1000 q 520 953 550 967 q 453 940 490 940 q 415 947 432 940 q 368 968 397 954 q 322 990 342 982 q 282 997 303 997 q 235 991 256 997 q 192 974 215 985 q 160 958 169 963 l 139 1040 m 363 914 l 583 763 l 540 696 l 364 796 l 181 697 l 138 763 l 363 914 z "},"ȅ":{"ha":708,"x_min":7,"x_max":664,"o":"m 643 74 q 389 -24 529 -24 q 142 65 233 -24 q 51 306 51 154 q 91 478 51 403 q 201 594 131 553 q 365 636 272 636 q 583 553 503 636 q 664 332 664 469 q 658 264 664 308 l 186 263 q 248 131 192 175 q 386 88 304 88 q 590 158 503 88 l 643 74 m 525 363 q 482 480 525 435 q 368 525 439 525 q 247 479 297 525 q 189 363 196 433 l 525 363 m 346 1011 l 524 738 l 463 694 l 247 938 l 346 1011 m 88 982 l 315 749 l 263 694 l 7 894 l 88 982 z "},"ë":{"ha":708,"x_min":51,"x_max":664,"o":"m 643 74 q 389 -24 529 -24 q 142 65 233 -24 q 51 306 51 154 q 91 478 51 403 q 201 594 131 553 q 365 636 272 636 q 583 553 503 636 q 664 332 664 469 q 658 264 664 308 l 186 263 q 248 131 192 175 q 386 88 304 88 q 590 158 503 88 l 643 74 m 525 363 q 482 480 525 435 q 368 525 439 525 q 247 479 297 525 q 189 363 196 433 l 525 363 m 231 893 q 292 867 265 893 q 319 804 319 840 q 293 742 319 768 q 231 715 267 715 q 168 742 194 715 q 142 804 142 768 q 168 867 142 840 q 231 893 194 893 m 489 893 q 550 867 524 893 q 576 804 576 840 q 551 742 576 768 q 489 715 525 715 q 426 742 453 715 q 400 804 400 768 q 426 867 400 840 q 489 893 453 893 z "},"ė":{"ha":708,"x_min":51,"x_max":664,"o":"m 643 74 q 389 -24 529 -24 q 142 65 233 -24 q 51 306 51 154 q 91 478 51 403 q 201 594 131 553 q 365 636 272 636 q 583 553 503 636 q 664 332 664 469 q 658 264 664 308 l 186 263 q 248 131 192 175 q 386 88 304 88 q 590 158 503 88 l 643 74 m 525 363 q 482 480 525 435 q 368 525 439 525 q 247 479 297 525 q 189 363 196 433 l 525 363 m 360 911 q 427 885 401 911 q 453 818 453 860 q 427 751 453 776 q 360 726 401 726 q 294 751 319 726 q 269 818 269 776 q 294 885 269 860 q 360 911 319 911 z "},"ẹ":{"ha":708,"x_min":51,"x_max":664,"o":"m 643 74 q 389 -24 529 -24 q 142 65 233 -24 q 51 306 51 154 q 91 478 51 403 q 201 594 131 553 q 365 636 272 636 q 583 553 503 636 q 664 332 664 469 q 658 264 664 308 l 186 263 q 248 131 192 175 q 386 88 304 88 q 590 158 503 88 l 643 74 m 525 363 q 482 480 525 435 q 368 525 439 525 q 247 479 297 525 q 189 363 196 433 l 525 363 m 350 -81 q 417 -106 392 -81 q 443 -174 443 -132 q 417 -240 443 -215 q 350 -265 392 -265 q 285 -240 310 -265 q 260 -174 260 -215 q 285 -106 260 -132 q 350 -81 310 -81 z "},"è":{"ha":708,"x_min":51,"x_max":664,"o":"m 643 74 q 389 -24 529 -24 q 142 65 233 -24 q 51 306 51 154 q 91 478 51 403 q 201 594 131 553 q 365 636 272 636 q 583 553 503 636 q 664 332 664 469 q 658 264 664 308 l 186 263 q 248 131 192 175 q 386 88 304 88 q 590 158 503 88 l 643 74 m 525 363 q 482 480 525 435 q 368 525 439 525 q 247 479 297 525 q 189 363 196 433 l 525 363 m 357 694 l 143 938 l 240 1011 l 419 738 l 357 694 z "},"ẻ":{"ha":708,"x_min":51,"x_max":664,"o":"m 643 74 q 389 -24 529 -24 q 142 65 233 -24 q 51 306 51 154 q 91 478 51 403 q 201 594 131 553 q 365 636 272 636 q 583 553 503 636 q 664 332 664 469 q 658 264 664 308 l 186 263 q 248 131 192 175 q 386 88 304 88 q 590 158 503 88 l 643 74 m 525 363 q 482 480 525 435 q 368 525 439 525 q 247 479 297 525 q 189 363 196 433 l 525 363 m 336 728 q 374 769 360 746 q 388 813 388 792 q 376 842 388 831 q 344 854 365 854 q 275 815 310 854 l 218 879 q 363 951 281 951 q 452 919 418 951 q 486 833 486 888 q 460 755 486 794 q 382 681 435 715 l 336 728 z "},"ȇ":{"ha":708,"x_min":51,"x_max":664,"o":"m 643 74 q 389 -24 529 -24 q 142 65 233 -24 q 51 306 51 154 q 91 478 51 403 q 201 594 131 553 q 365 636 272 636 q 583 553 503 636 q 664 332 664 469 q 658 264 664 308 l 186 263 q 248 131 192 175 q 386 88 304 88 q 590 158 503 88 l 643 74 m 525 363 q 482 480 525 435 q 368 525 439 525 q 247 479 297 525 q 189 363 196 433 l 525 363 m 360 917 q 519 869 461 917 q 593 732 578 822 l 492 717 q 454 792 488 767 q 360 818 421 818 q 229 717 242 818 l 129 732 q 202 869 143 822 q 360 917 261 917 z "},"ē":{"ha":708,"x_min":51,"x_max":664,"o":"m 643 74 q 389 -24 529 -24 q 142 65 233 -24 q 51 306 51 154 q 91 478 51 403 q 201 594 131 553 q 365 636 272 636 q 583 553 503 636 q 664 332 664 469 q 658 264 664 308 l 186 263 q 248 131 192 175 q 386 88 304 88 q 590 158 503 88 l 643 74 m 525 363 q 482 480 525 435 q 368 525 439 525 q 247 479 297 525 q 189 363 196 433 l 525 363 m 138 843 l 583 843 l 583 747 l 138 747 l 138 843 z "},"ḗ":{"ha":708,"x_min":51,"x_max":664,"o":"m 643 74 q 389 -24 529 -24 q 142 65 233 -24 q 51 306 51 154 q 91 478 51 403 q 201 594 131 553 q 365 636 272 636 q 583 553 503 636 q 664 332 664 469 q 658 264 664 308 l 186 263 q 248 131 192 175 q 386 88 304 88 q 590 158 503 88 l 643 74 m 525 363 q 482 480 525 435 q 368 525 439 525 q 247 479 297 525 q 189 363 196 433 l 525 363 m 138 843 l 583 843 l 583 747 l 138 747 l 138 843 m 485 1215 l 583 1142 l 368 899 l 307 942 l 485 1215 z "},"ḕ":{"ha":708,"x_min":51,"x_max":664,"o":"m 643 74 q 389 -24 529 -24 q 142 65 233 -24 q 51 306 51 154 q 91 478 51 403 q 201 594 131 553 q 365 636 272 636 q 583 553 503 636 q 664 332 664 469 q 658 264 664 308 l 186 263 q 248 131 192 175 q 386 88 304 88 q 590 158 503 88 l 643 74 m 525 363 q 482 480 525 435 q 368 525 439 525 q 247 479 297 525 q 189 363 196 433 l 525 363 m 138 843 l 583 843 l 583 747 l 138 747 l 138 843 m 369 899 l 156 1142 l 253 1215 l 432 942 l 369 899 z "},"ę":{"ha":708,"x_min":51,"x_max":664,"o":"m 664 332 q 658 264 664 308 l 186 263 q 248 131 192 175 q 386 88 304 88 q 590 158 503 88 l 643 74 q 556 15 601 39 q 476 -112 476 -40 q 499 -161 476 -143 q 560 -179 522 -179 q 628 -165 589 -179 l 628 -260 q 510 -286 567 -286 q 387 -250 433 -286 q 340 -157 340 -214 q 396 -24 340 -81 l 389 -24 q 142 65 233 -24 q 51 306 51 154 q 91 478 51 403 q 201 594 131 553 q 365 636 272 636 q 583 553 503 636 q 664 332 664 469 m 525 363 q 482 480 525 435 q 368 525 439 525 q 247 479 297 525 q 189 363 196 433 l 525 363 z "},"ẽ":{"ha":708,"x_min":51,"x_max":664,"o":"m 643 74 q 389 -24 529 -24 q 142 65 233 -24 q 51 306 51 154 q 91 478 51 403 q 201 594 131 553 q 365 636 272 636 q 583 553 503 636 q 664 332 664 469 q 658 264 664 308 l 186 263 q 248 131 192 175 q 386 88 304 88 q 590 158 503 88 l 643 74 m 525 363 q 482 480 525 435 q 368 525 439 525 q 247 479 297 525 q 189 363 196 433 l 525 363 m 142 800 q 223 850 189 836 q 303 864 257 864 q 352 856 331 864 q 407 833 374 849 q 481 808 450 808 q 526 817 506 808 q 582 851 546 826 l 618 767 q 544 715 576 729 q 468 701 513 701 q 428 709 447 701 q 383 731 410 717 q 339 751 357 744 q 300 758 321 758 q 253 752 272 758 q 211 735 233 746 q 178 719 189 725 l 142 800 z "},"ə":{"ha":708,"x_min":44,"x_max":657,"o":"m 65 538 q 319 635 179 635 q 566 546 475 635 q 657 306 657 457 q 617 133 657 208 q 507 17 578 58 q 343 -25 436 -25 q 125 58 206 -25 q 44 279 44 142 q 50 347 44 303 l 522 349 q 460 480 517 436 q 322 524 404 524 q 118 453 206 524 l 65 538 m 183 249 q 226 131 183 176 q 340 86 269 86 q 462 132 411 86 q 519 249 513 178 l 183 249 z "},"f":{"ha":522,"x_min":57,"x_max":614,"o":"m 174 679 q 239 865 174 800 q 429 929 304 929 q 533 914 485 929 q 614 871 581 899 l 564 774 q 436 815 507 815 q 343 778 376 815 q 310 669 310 740 l 310 611 l 482 611 l 482 501 l 310 501 l 310 111 l 435 111 l 435 0 l 57 0 l 57 111 l 174 111 l 174 501 l 57 501 l 57 611 l 174 611 l 174 679 z "},"g":{"ha":776,"x_min":33,"x_max":751,"o":"m 418 58 q 595 12 536 58 q 654 -124 654 -35 q 569 -274 654 -222 q 344 -325 485 -325 q 167 -303 256 -325 q 33 -256 78 -281 l 83 -147 q 344 -207 210 -207 q 476 -186 433 -207 q 519 -128 519 -165 q 490 -74 519 -92 q 394 -56 461 -56 l 183 -56 l 183 186 q 81 264 117 213 q 44 389 44 315 q 123 569 44 503 q 335 636 201 636 q 504 599 438 636 l 710 672 l 751 551 l 585 521 q 625 397 625 472 q 544 222 625 282 q 333 161 464 161 q 301 163 311 161 l 301 58 l 418 58 m 336 528 q 219 494 260 528 q 179 397 179 460 q 222 303 179 339 q 336 268 264 268 q 449 303 407 268 q 492 397 492 339 q 451 494 492 460 q 336 528 411 528 z "},"ğ":{"ha":776,"x_min":33,"x_max":751,"o":"m 418 58 q 595 12 536 58 q 654 -124 654 -35 q 569 -274 654 -222 q 344 -325 485 -325 q 167 -303 256 -325 q 33 -256 78 -281 l 83 -147 q 344 -207 210 -207 q 476 -186 433 -207 q 519 -128 519 -165 q 490 -74 519 -92 q 394 -56 461 -56 l 183 -56 l 183 186 q 81 264 117 213 q 44 389 44 315 q 123 569 44 503 q 335 636 201 636 q 504 599 438 636 l 710 672 l 751 551 l 585 521 q 625 397 625 472 q 544 222 625 282 q 333 161 464 161 q 301 163 311 161 l 301 58 l 418 58 m 336 528 q 219 494 260 528 q 179 397 179 460 q 222 303 179 339 q 336 268 264 268 q 449 303 407 268 q 492 397 492 339 q 451 494 492 460 q 336 528 411 528 m 335 703 q 177 750 236 703 q 104 888 118 797 l 204 903 q 335 801 217 801 q 429 827 396 801 q 467 903 463 853 l 568 888 q 494 750 553 797 q 335 703 436 703 z "},"ǧ":{"ha":776,"x_min":33,"x_max":751,"o":"m 418 58 q 595 12 536 58 q 654 -124 654 -35 q 569 -274 654 -222 q 344 -325 485 -325 q 167 -303 256 -325 q 33 -256 78 -281 l 83 -147 q 344 -207 210 -207 q 476 -186 433 -207 q 519 -128 519 -165 q 490 -74 519 -92 q 394 -56 461 -56 l 183 -56 l 183 186 q 81 264 117 213 q 44 389 44 315 q 123 569 44 503 q 335 636 201 636 q 504 599 438 636 l 710 672 l 751 551 l 585 521 q 625 397 625 472 q 544 222 625 282 q 333 161 464 161 q 301 163 311 161 l 301 58 l 418 58 m 336 528 q 219 494 260 528 q 179 397 179 460 q 222 303 179 339 q 336 268 264 268 q 449 303 407 268 q 492 397 492 339 q 451 494 492 460 q 336 528 411 528 m 338 682 l 113 833 l 156 899 l 339 800 l 515 900 l 558 833 l 338 682 z "},"ĝ":{"ha":776,"x_min":33,"x_max":751,"o":"m 418 58 q 595 12 536 58 q 654 -124 654 -35 q 569 -274 654 -222 q 344 -325 485 -325 q 167 -303 256 -325 q 33 -256 78 -281 l 83 -147 q 344 -207 210 -207 q 476 -186 433 -207 q 519 -128 519 -165 q 490 -74 519 -92 q 394 -56 461 -56 l 183 -56 l 183 186 q 81 264 117 213 q 44 389 44 315 q 123 569 44 503 q 335 636 201 636 q 504 599 438 636 l 710 672 l 751 551 l 585 521 q 625 397 625 472 q 544 222 625 282 q 333 161 464 161 q 301 163 311 161 l 301 58 l 418 58 m 336 528 q 219 494 260 528 q 179 397 179 460 q 222 303 179 339 q 336 268 264 268 q 449 303 407 268 q 492 397 492 339 q 451 494 492 460 q 336 528 411 528 m 338 914 l 558 763 l 515 696 l 339 796 l 156 697 l 113 763 l 338 914 z "},"ģ":{"ha":776,"x_min":33,"x_max":751,"o":"m 418 58 q 595 12 536 58 q 654 -124 654 -35 q 569 -274 654 -222 q 344 -325 485 -325 q 167 -303 256 -325 q 33 -256 78 -281 l 83 -147 q 344 -207 210 -207 q 476 -186 433 -207 q 519 -128 519 -165 q 490 -74 519 -92 q 394 -56 461 -56 l 183 -56 l 183 186 q 81 264 117 213 q 44 389 44 315 q 123 569 44 503 q 335 636 201 636 q 504 599 438 636 l 710 672 l 751 551 l 585 521 q 625 397 625 472 q 544 222 625 282 q 333 161 464 161 q 301 163 311 161 l 301 58 l 418 58 m 336 528 q 219 494 260 528 q 179 397 179 460 q 222 303 179 339 q 336 268 264 268 q 449 303 407 268 q 492 397 492 339 q 451 494 492 460 q 336 528 411 528 m 425 1000 q 396 956 418 990 q 360 892 374 922 q 419 859 399 885 q 440 800 440 833 q 412 728 440 756 q 338 701 383 701 q 264 734 296 701 q 232 808 232 767 q 375 1050 232 918 l 425 1000 z "},"ġ":{"ha":776,"x_min":33,"x_max":751,"o":"m 418 58 q 595 12 536 58 q 654 -124 654 -35 q 569 -274 654 -222 q 344 -325 485 -325 q 167 -303 256 -325 q 33 -256 78 -281 l 83 -147 q 344 -207 210 -207 q 476 -186 433 -207 q 519 -128 519 -165 q 490 -74 519 -92 q 394 -56 461 -56 l 183 -56 l 183 186 q 81 264 117 213 q 44 389 44 315 q 123 569 44 503 q 335 636 201 636 q 504 599 438 636 l 710 672 l 751 551 l 585 521 q 625 397 625 472 q 544 222 625 282 q 333 161 464 161 q 301 163 311 161 l 301 58 l 418 58 m 336 528 q 219 494 260 528 q 179 397 179 460 q 222 303 179 339 q 336 268 264 268 q 449 303 407 268 q 492 397 492 339 q 451 494 492 460 q 336 528 411 528 m 335 911 q 402 885 376 911 q 428 818 428 860 q 402 751 428 776 q 335 726 376 726 q 269 751 294 726 q 244 818 244 776 q 269 885 244 860 q 335 911 294 911 z "},"ḡ":{"ha":776,"x_min":33,"x_max":751,"o":"m 418 58 q 595 12 536 58 q 654 -124 654 -35 q 569 -274 654 -222 q 344 -325 485 -325 q 167 -303 256 -325 q 33 -256 78 -281 l 83 -147 q 344 -207 210 -207 q 476 -186 433 -207 q 519 -128 519 -165 q 490 -74 519 -92 q 394 -56 461 -56 l 183 -56 l 183 186 q 81 264 117 213 q 44 389 44 315 q 123 569 44 503 q 335 636 201 636 q 504 599 438 636 l 710 672 l 751 551 l 585 521 q 625 397 625 472 q 544 222 625 282 q 333 161 464 161 q 301 163 311 161 l 301 58 l 418 58 m 336 528 q 219 494 260 528 q 179 397 179 460 q 222 303 179 339 q 336 268 264 268 q 449 303 407 268 q 492 397 492 339 q 451 494 492 460 q 336 528 411 528 m 113 843 l 558 843 l 558 747 l 113 747 l 113 843 z "},"h":{"ha":867,"x_min":14,"x_max":833,"o":"m 29 111 l 146 111 l 146 764 l 14 810 l 50 921 l 285 842 l 285 581 q 378 622 326 607 q 479 636 429 636 q 657 574 597 636 q 717 389 717 511 l 717 111 l 833 111 l 833 0 l 518 0 l 518 111 l 576 111 l 576 367 q 545 483 576 447 q 446 519 514 519 q 364 508 408 519 q 286 479 319 497 l 286 111 l 346 111 l 346 0 l 29 0 l 29 111 z "},"ħ":{"ha":867,"x_min":14,"x_max":833,"o":"m 833 111 l 833 0 l 518 0 l 518 111 l 576 111 l 576 317 q 545 433 576 397 q 446 469 514 469 q 364 458 408 469 q 286 429 319 447 l 286 111 l 346 111 l 346 0 l 29 0 l 29 111 l 146 111 l 146 643 l 21 643 l 21 728 l 146 728 l 146 764 l 14 810 l 50 921 l 285 842 l 285 728 l 460 728 l 460 643 l 285 643 l 285 532 q 378 572 328 558 q 479 586 429 586 q 657 524 597 586 q 717 339 717 461 l 717 111 l 833 111 z "},"ḫ":{"ha":867,"x_min":14,"x_max":833,"o":"m 29 111 l 146 111 l 146 764 l 14 810 l 50 921 l 285 842 l 285 581 q 378 622 326 607 q 479 636 429 636 q 657 574 597 636 q 717 389 717 511 l 717 111 l 833 111 l 833 0 l 518 0 l 518 111 l 576 111 l 576 367 q 545 483 576 447 q 446 519 514 519 q 364 508 408 519 q 286 479 319 497 l 286 111 l 346 111 l 346 0 l 29 0 l 29 111 m 426 -272 q 269 -225 328 -272 q 196 -87 210 -178 l 296 -72 q 426 -174 308 -174 q 521 -148 488 -174 q 558 -72 554 -122 l 660 -87 q 586 -225 644 -178 q 426 -272 528 -272 z "},"ĥ":{"ha":867,"x_min":-83,"x_max":833,"o":"m 29 111 l 146 111 l 146 764 l 14 810 l 50 921 l 285 842 l 285 581 q 378 622 326 607 q 479 636 429 636 q 657 574 597 636 q 717 389 717 511 l 717 111 l 833 111 l 833 0 l 518 0 l 518 111 l 576 111 l 576 367 q 545 483 576 447 q 446 519 514 519 q 364 508 408 519 q 286 479 319 497 l 286 111 l 346 111 l 346 0 l 29 0 l 29 111 m 163 1121 l 407 979 l 371 926 l 163 1006 l -50 926 l -83 979 l 163 1121 z "},"ḥ":{"ha":867,"x_min":14,"x_max":833,"o":"m 29 111 l 146 111 l 146 764 l 14 810 l 50 921 l 285 842 l 285 581 q 378 622 326 607 q 479 636 429 636 q 657 574 597 636 q 717 389 717 511 l 717 111 l 833 111 l 833 0 l 518 0 l 518 111 l 576 111 l 576 367 q 545 483 576 447 q 446 519 514 519 q 364 508 408 519 q 286 479 319 497 l 286 111 l 346 111 l 346 0 l 29 0 l 29 111 m 425 -81 q 492 -106 467 -81 q 518 -174 518 -132 q 492 -240 518 -215 q 425 -265 467 -265 q 360 -240 385 -265 q 335 -174 335 -215 q 360 -106 335 -132 q 425 -81 385 -81 z "},"i":{"ha":458,"x_min":54,"x_max":425,"o":"m 54 611 l 310 611 l 310 111 l 425 111 l 425 0 l 54 0 l 54 111 l 169 111 l 169 501 l 54 501 l 54 611 m 224 911 q 291 885 265 911 q 317 818 317 860 q 291 751 317 776 q 224 726 265 726 q 158 751 183 726 q 133 818 133 776 q 158 885 133 860 q 224 911 183 911 z "},"ı":{"ha":458,"x_min":54,"x_max":425,"o":"m 54 611 l 310 611 l 310 111 l 425 111 l 425 0 l 54 0 l 54 111 l 169 111 l 169 501 l 54 501 l 54 611 z "},"í":{"ha":458,"x_min":54,"x_max":436,"o":"m 54 611 l 310 611 l 310 111 l 425 111 l 425 0 l 54 0 l 54 111 l 169 111 l 169 501 l 54 501 l 54 611 m 338 1011 l 436 938 l 221 694 l 160 738 l 338 1011 z "},"ĭ":{"ha":458,"x_min":21,"x_max":429,"o":"m 54 611 l 310 611 l 310 111 l 425 111 l 425 0 l 54 0 l 54 111 l 169 111 l 169 501 l 54 501 l 54 611 m 225 703 q 21 888 49 703 l 122 903 q 225 801 131 801 q 299 827 272 801 q 329 903 325 853 l 429 888 q 365 750 417 797 q 225 703 314 703 z "},"î":{"ha":458,"x_min":3,"x_max":449,"o":"m 54 611 l 310 611 l 310 111 l 425 111 l 425 0 l 54 0 l 54 111 l 169 111 l 169 501 l 54 501 l 54 611 m 228 914 l 449 763 l 406 696 l 229 796 l 46 697 l 3 763 l 228 914 z "},"ȉ":{"ha":458,"x_min":-128,"x_max":425,"o":"m 54 611 l 310 611 l 310 111 l 425 111 l 425 0 l 54 0 l 54 111 l 169 111 l 169 501 l 54 501 l 54 611 m 211 1011 l 389 738 l 328 694 l 113 938 l 211 1011 m -47 982 l 181 749 l 128 694 l -128 894 l -47 982 z "},"ï":{"ha":458,"x_min":7,"x_max":442,"o":"m 54 611 l 310 611 l 310 111 l 425 111 l 425 0 l 54 0 l 54 111 l 169 111 l 169 501 l 54 501 l 54 611 m 96 893 q 158 867 131 893 q 185 804 185 840 q 158 742 185 768 q 96 715 132 715 q 33 742 60 715 q 7 804 7 768 q 33 867 7 840 q 96 893 60 893 m 354 893 q 415 867 389 893 q 442 804 442 840 q 416 742 442 768 q 354 715 390 715 q 292 742 318 715 q 265 804 265 768 q 292 867 265 840 q 354 893 318 893 z "},"ḯ":{"ha":458,"x_min":7,"x_max":442,"o":"m 54 611 l 310 611 l 310 111 l 425 111 l 425 0 l 54 0 l 54 111 l 169 111 l 169 501 l 54 501 l 54 611 m 96 893 q 158 867 131 893 q 185 804 185 840 q 158 742 185 768 q 96 715 132 715 q 33 742 60 715 q 7 804 7 768 q 33 867 7 840 q 96 893 60 893 m 354 893 q 415 867 389 893 q 442 804 442 840 q 416 742 442 768 q 354 715 390 715 q 292 742 318 715 q 265 804 265 768 q 292 867 265 840 q 354 893 318 893 m 338 1215 l 436 1142 l 221 899 l 160 942 l 338 1215 z "},"ị":{"ha":458,"x_min":54,"x_max":425,"o":"m 54 611 l 310 611 l 310 111 l 425 111 l 425 0 l 54 0 l 54 111 l 169 111 l 169 501 l 54 501 l 54 611 m 224 911 q 291 885 265 911 q 317 818 317 860 q 291 751 317 776 q 224 726 265 726 q 158 751 183 726 q 133 818 133 776 q 158 885 133 860 q 224 911 183 911 m 283 -81 q 351 -106 325 -81 q 376 -174 376 -132 q 351 -240 376 -215 q 283 -265 325 -265 q 218 -240 243 -265 q 193 -174 193 -215 q 218 -106 193 -132 q 283 -81 243 -81 z "},"ì":{"ha":458,"x_min":8,"x_max":425,"o":"m 54 611 l 310 611 l 310 111 l 425 111 l 425 0 l 54 0 l 54 111 l 169 111 l 169 501 l 54 501 l 54 611 m 222 694 l 8 938 l 106 1011 l 285 738 l 222 694 z "},"ỉ":{"ha":458,"x_min":54,"x_max":425,"o":"m 54 611 l 310 611 l 310 111 l 425 111 l 425 0 l 54 0 l 54 111 l 169 111 l 169 501 l 54 501 l 54 611 m 201 728 q 239 769 225 746 q 253 813 253 792 q 242 842 253 831 q 210 854 231 854 q 140 815 175 854 l 83 879 q 228 951 146 951 q 317 919 283 951 q 351 833 351 888 q 326 755 351 794 q 247 681 300 715 l 201 728 z "},"ȋ":{"ha":458,"x_min":29,"x_max":425,"o":"m 54 611 l 310 611 l 310 111 l 425 111 l 425 0 l 54 0 l 54 111 l 169 111 l 169 501 l 54 501 l 54 611 m 225 917 q 364 870 314 917 q 424 733 414 824 l 333 717 q 225 818 329 818 q 118 717 124 818 l 29 733 q 88 870 38 824 q 225 917 138 917 z "},"ī":{"ha":458,"x_min":44,"x_max":425,"o":"m 54 611 l 310 611 l 310 111 l 425 111 l 425 0 l 54 0 l 54 111 l 169 111 l 169 501 l 54 501 l 54 611 m 44 843 l 407 843 l 407 747 l 44 747 l 44 843 z "},"į":{"ha":458,"x_min":54,"x_max":425,"o":"m 225 726 q 160 751 185 726 q 135 818 135 776 q 160 885 135 860 q 225 911 185 911 q 292 885 267 911 q 318 818 318 860 q 292 751 318 776 q 225 726 267 726 m 340 0 q 228 -147 228 -60 q 251 -196 228 -178 q 311 -214 274 -214 q 379 -200 340 -214 l 379 -294 q 261 -321 318 -321 q 138 -285 185 -321 q 92 -192 92 -249 q 226 0 92 -76 l 54 0 l 54 111 l 169 111 l 169 501 l 54 501 l 54 611 l 310 611 l 310 111 l 425 111 l 425 0 l 340 0 z "},"ĩ":{"ha":458,"x_min":29,"x_max":440,"o":"m 54 611 l 310 611 l 310 111 l 425 111 l 425 0 l 54 0 l 54 111 l 169 111 l 169 501 l 54 501 l 54 611 m 29 800 q 99 850 71 836 q 168 864 128 864 q 210 856 190 864 q 251 833 229 847 q 288 815 275 821 q 317 808 301 808 q 358 817 340 808 q 410 851 376 826 l 440 767 q 378 715 407 729 q 303 701 349 701 q 271 708 286 701 q 233 729 256 715 q 215 740 229 732 q 186 753 200 749 q 160 758 172 758 q 125 752 140 758 q 91 735 110 746 q 64 719 72 724 l 29 800 z "},"j":{"ha":376,"x_min":-61,"x_max":299,"o":"m 289 -46 q 276 -187 289 -131 q 206 -284 263 -243 q 31 -325 150 -325 q -23 -321 7 -325 q -61 -315 -53 -317 l -44 -206 q 25 -210 -15 -210 q 112 -187 85 -210 q 144 -137 139 -165 q 150 -60 150 -108 l 150 501 l 33 501 l 33 611 l 289 611 l 289 -46 m 206 911 q 273 885 247 911 q 299 818 299 860 q 273 751 299 776 q 206 726 247 726 q 140 751 165 726 q 115 818 115 776 q 140 885 115 860 q 206 911 165 911 z "},"ȷ":{"ha":376,"x_min":-61,"x_max":289,"o":"m 289 -46 q 276 -187 289 -131 q 206 -284 263 -243 q 31 -325 150 -325 q -23 -321 7 -325 q -61 -315 -53 -317 l -44 -206 q 25 -210 -15 -210 q 112 -187 85 -210 q 144 -137 139 -165 q 150 -60 150 -108 l 150 501 l 33 501 l 33 611 l 289 611 l 289 -46 z "},"ĵ":{"ha":376,"x_min":-61,"x_max":431,"o":"m 289 -46 q 276 -187 289 -131 q 206 -284 263 -243 q 31 -325 150 -325 q -23 -321 7 -325 q -61 -315 -53 -317 l -44 -206 q 25 -210 -15 -210 q 112 -187 85 -210 q 144 -137 139 -165 q 150 -60 150 -108 l 150 501 l 33 501 l 33 611 l 289 611 l 289 -46 m 210 914 l 431 763 l 388 696 l 211 796 l 28 697 l -15 763 l 210 914 z "},"k":{"ha":796,"x_min":18,"x_max":747,"o":"m 54 922 l 289 842 l 289 361 l 400 361 l 482 501 l 411 501 l 411 611 l 729 611 l 729 501 l 619 501 l 501 311 l 631 111 l 747 111 l 747 0 l 556 0 l 401 251 l 289 251 l 289 111 l 342 111 l 342 0 l 33 0 l 33 111 l 150 111 l 150 765 l 18 811 l 54 922 z "},"ķ":{"ha":796,"x_min":18,"x_max":747,"o":"m 54 922 l 289 842 l 289 361 l 400 361 l 482 501 l 411 501 l 411 611 l 729 611 l 729 501 l 619 501 l 501 311 l 631 111 l 747 111 l 747 0 l 556 0 l 401 251 l 289 251 l 289 111 l 342 111 l 342 0 l 33 0 l 33 111 l 150 111 l 150 765 l 18 811 l 54 922 m 339 -394 q 368 -351 346 -385 q 404 -286 390 -317 q 344 -253 365 -279 q 324 -194 324 -228 q 352 -123 324 -150 q 426 -96 381 -96 q 500 -128 468 -96 q 532 -201 532 -160 q 389 -444 533 -311 l 339 -394 z "},"ĸ":{"ha":831,"x_min":63,"x_max":782,"o":"m 63 611 l 371 611 l 371 501 l 318 501 l 318 357 l 432 357 l 526 501 l 456 501 l 456 611 l 775 611 l 775 501 l 665 501 l 533 307 l 665 111 l 782 111 l 782 0 l 583 0 l 419 246 l 318 246 l 318 111 l 371 111 l 371 0 l 63 0 l 63 111 l 179 111 l 179 501 l 63 501 l 63 611 z "},"l":{"ha":443,"x_min":18,"x_max":410,"o":"m 38 0 l 38 111 l 154 111 l 154 772 l 18 810 l 51 922 l 293 854 l 293 111 l 410 111 l 410 0 l 38 0 z "},"ĺ":{"ha":443,"x_min":18,"x_max":449,"o":"m 38 0 l 38 111 l 154 111 l 154 772 l 18 810 l 51 922 l 293 854 l 293 111 l 410 111 l 410 0 l 38 0 m 417 1144 l 449 1024 l 99 965 l 79 1024 l 417 1144 z "},"ľ":{"ha":443,"x_min":-24,"x_max":428,"o":"m 22 1049 l 203 960 l 386 1049 l 428 989 l 203 835 l -24 989 l 22 1049 m 38 0 l 38 111 l 154 111 l 154 663 l 18 700 l 51 813 l 293 744 l 293 111 l 410 111 l 410 0 l 38 0 z "},"ļ":{"ha":443,"x_min":18,"x_max":410,"o":"m 38 0 l 38 111 l 154 111 l 154 772 l 18 810 l 51 922 l 293 854 l 293 111 l 410 111 l 410 0 l 38 0 m 129 -394 q 158 -351 136 -385 q 194 -286 181 -317 q 135 -253 156 -279 q 114 -194 114 -228 q 142 -123 114 -150 q 217 -96 171 -96 q 290 -128 258 -96 q 322 -201 322 -160 q 179 -444 324 -311 l 129 -394 z "},"ŀ":{"ha":569,"x_min":18,"x_max":542,"o":"m 38 0 l 38 111 l 154 111 l 154 772 l 18 810 l 51 922 l 293 854 l 293 111 l 410 111 l 410 0 l 38 0 m 440 507 q 511 477 481 507 q 542 406 542 447 q 511 334 542 364 q 440 304 481 304 q 369 334 399 304 q 339 406 339 364 q 369 477 339 447 q 440 507 399 507 z "},"ḷ":{"ha":443,"x_min":18,"x_max":410,"o":"m 38 0 l 38 111 l 154 111 l 154 772 l 18 810 l 51 922 l 293 854 l 293 111 l 410 111 l 410 0 l 38 0 m 215 -81 q 283 -106 257 -81 q 308 -174 308 -132 q 283 -240 308 -215 q 215 -265 257 -265 q 150 -240 175 -265 q 125 -174 125 -215 q 150 -106 125 -132 q 215 -81 175 -81 z "},"ḻ":{"ha":443,"x_min":-4,"x_max":440,"o":"m 38 0 l 38 111 l 154 111 l 154 772 l 18 810 l 51 922 l 293 854 l 293 111 l 410 111 l 410 0 l 38 0 m -4 -68 l 440 -68 l 440 -167 l -4 -167 l -4 -68 z "},"ł":{"ha":443,"x_min":18,"x_max":410,"o":"m 293 111 l 410 111 l 410 0 l 38 0 l 38 111 l 154 111 l 154 339 l 56 253 l 56 372 l 154 458 l 154 772 l 18 810 l 51 922 l 293 854 l 293 579 l 400 672 l 400 554 l 293 461 l 293 111 z "},"m":{"ha":1261,"x_min":44,"x_max":1228,"o":"m 61 111 l 176 111 l 176 475 l 44 518 l 81 629 l 274 565 q 367 617 314 599 q 471 636 419 636 q 583 617 533 636 q 663 560 632 597 q 757 615 703 594 q 865 636 811 636 q 1052 576 994 636 q 1110 379 1110 517 l 1110 111 l 1228 111 l 1228 0 l 914 0 l 914 111 l 971 111 l 971 365 q 943 483 971 447 q 849 518 915 518 q 774 505 813 518 q 714 471 736 492 l 714 111 l 771 111 l 771 0 l 515 0 l 515 111 l 574 111 l 574 365 q 547 483 574 449 q 453 518 519 518 q 378 505 417 518 q 317 471 340 492 l 317 111 l 375 111 l 375 0 l 61 0 l 61 111 z "},"ṃ":{"ha":1261,"x_min":44,"x_max":1228,"o":"m 61 111 l 176 111 l 176 475 l 44 518 l 81 629 l 274 565 q 367 617 314 599 q 471 636 419 636 q 583 617 533 636 q 663 560 632 597 q 757 615 703 594 q 865 636 811 636 q 1052 576 994 636 q 1110 379 1110 517 l 1110 111 l 1228 111 l 1228 0 l 914 0 l 914 111 l 971 111 l 971 365 q 943 483 971 447 q 849 518 915 518 q 774 505 813 518 q 714 471 736 492 l 714 111 l 771 111 l 771 0 l 515 0 l 515 111 l 574 111 l 574 365 q 547 483 574 449 q 453 518 519 518 q 378 505 417 518 q 317 471 340 492 l 317 111 l 375 111 l 375 0 l 61 0 l 61 111 m 629 -81 q 697 -106 671 -81 q 722 -174 722 -132 q 697 -240 722 -215 q 629 -265 671 -265 q 564 -240 589 -265 q 539 -174 539 -215 q 564 -106 539 -132 q 629 -81 589 -81 z "},"n":{"ha":897,"x_min":44,"x_max":863,"o":"m 61 111 l 178 111 l 178 471 l 44 517 l 82 629 l 271 564 q 381 618 325 600 q 501 636 436 636 q 682 569 617 636 q 747 386 747 501 l 747 111 l 863 111 l 863 0 l 549 0 l 549 111 l 608 111 l 608 364 q 573 478 608 439 q 471 517 538 517 q 393 503 433 517 q 317 469 353 490 l 317 111 l 376 111 l 376 0 l 61 0 l 61 111 z "},"ń":{"ha":897,"x_min":44,"x_max":863,"o":"m 61 111 l 178 111 l 178 471 l 44 517 l 82 629 l 271 564 q 381 618 325 600 q 501 636 436 636 q 682 569 617 636 q 747 386 747 501 l 747 111 l 863 111 l 863 0 l 549 0 l 549 111 l 608 111 l 608 364 q 573 478 608 439 q 471 517 538 517 q 393 503 433 517 q 317 469 353 490 l 317 111 l 376 111 l 376 0 l 61 0 l 61 111 m 560 1011 l 658 938 l 443 694 l 382 738 l 560 1011 z "},"ň":{"ha":897,"x_min":44,"x_max":863,"o":"m 61 111 l 178 111 l 178 471 l 44 517 l 82 629 l 271 564 q 381 618 325 600 q 501 636 436 636 q 682 569 617 636 q 747 386 747 501 l 747 111 l 863 111 l 863 0 l 549 0 l 549 111 l 608 111 l 608 364 q 573 478 608 439 q 471 517 538 517 q 393 503 433 517 q 317 469 353 490 l 317 111 l 376 111 l 376 0 l 61 0 l 61 111 m 450 682 l 225 833 l 268 899 l 451 800 l 628 900 l 671 833 l 450 682 z "},"ņ":{"ha":897,"x_min":44,"x_max":863,"o":"m 61 111 l 178 111 l 178 471 l 44 517 l 82 629 l 271 564 q 381 618 325 600 q 501 636 436 636 q 682 569 617 636 q 747 386 747 501 l 747 111 l 863 111 l 863 0 l 549 0 l 549 111 l 608 111 l 608 364 q 573 478 608 439 q 471 517 538 517 q 393 503 433 517 q 317 469 353 490 l 317 111 l 376 111 l 376 0 l 61 0 l 61 111 m 360 -394 q 389 -351 367 -385 q 425 -286 411 -317 q 365 -253 386 -279 q 344 -194 344 -228 q 373 -123 344 -150 q 447 -96 401 -96 q 521 -128 489 -96 q 553 -201 553 -160 q 410 -444 554 -311 l 360 -394 z "},"ṅ":{"ha":897,"x_min":44,"x_max":863,"o":"m 61 111 l 178 111 l 178 471 l 44 517 l 82 629 l 271 564 q 381 618 325 600 q 501 636 436 636 q 682 569 617 636 q 747 386 747 501 l 747 111 l 863 111 l 863 0 l 549 0 l 549 111 l 608 111 l 608 364 q 573 478 608 439 q 471 517 538 517 q 393 503 433 517 q 317 469 353 490 l 317 111 l 376 111 l 376 0 l 61 0 l 61 111 m 447 911 q 515 885 489 911 q 540 818 540 860 q 515 751 540 776 q 447 726 489 726 q 382 751 407 726 q 357 818 357 776 q 382 885 357 860 q 447 911 407 911 z "},"ṇ":{"ha":897,"x_min":44,"x_max":863,"o":"m 61 111 l 178 111 l 178 471 l 44 517 l 82 629 l 271 564 q 381 618 325 600 q 501 636 436 636 q 682 569 617 636 q 747 386 747 501 l 747 111 l 863 111 l 863 0 l 549 0 l 549 111 l 608 111 l 608 364 q 573 478 608 439 q 471 517 538 517 q 393 503 433 517 q 317 469 353 490 l 317 111 l 376 111 l 376 0 l 61 0 l 61 111 m 446 -81 q 513 -106 488 -81 q 539 -174 539 -132 q 513 -240 539 -215 q 446 -265 488 -265 q 381 -240 406 -265 q 356 -174 356 -215 q 381 -106 356 -132 q 446 -81 406 -81 z "},"ŋ":{"ha":817,"x_min":44,"x_max":747,"o":"m 501 636 q 682 569 617 636 q 747 386 747 503 l 747 10 q 681 -238 747 -151 q 494 -325 615 -325 q 300 -285 394 -325 l 333 -182 q 467 -208 407 -208 q 572 -161 536 -208 q 608 -18 608 -114 l 608 364 q 574 478 608 439 q 471 517 539 517 q 394 504 435 517 q 317 469 353 492 l 317 111 l 376 111 l 376 0 l 61 0 l 61 111 l 178 111 l 178 471 l 44 517 l 82 629 l 271 564 q 383 619 328 601 q 501 636 438 636 z "},"ṉ":{"ha":897,"x_min":44,"x_max":863,"o":"m 61 111 l 178 111 l 178 471 l 44 517 l 82 629 l 271 564 q 381 618 325 600 q 501 636 436 636 q 682 569 617 636 q 747 386 747 501 l 747 111 l 863 111 l 863 0 l 549 0 l 549 111 l 608 111 l 608 364 q 573 478 608 439 q 471 517 538 517 q 393 503 433 517 q 317 469 353 490 l 317 111 l 376 111 l 376 0 l 61 0 l 61 111 m 226 -68 l 671 -68 l 671 -167 l 226 -167 l 226 -68 z "},"ñ":{"ha":897,"x_min":44,"x_max":863,"o":"m 61 111 l 178 111 l 178 471 l 44 517 l 82 629 l 271 564 q 381 618 325 600 q 501 636 436 636 q 682 569 617 636 q 747 386 747 501 l 747 111 l 863 111 l 863 0 l 549 0 l 549 111 l 608 111 l 608 364 q 573 478 608 439 q 471 517 538 517 q 393 503 433 517 q 317 469 353 490 l 317 111 l 376 111 l 376 0 l 61 0 l 61 111 m 229 800 q 310 850 276 836 q 390 864 344 864 q 440 856 418 864 q 494 833 461 849 q 568 808 538 808 q 613 817 593 808 q 669 851 633 826 l 706 767 q 632 715 664 729 q 556 701 600 701 q 516 709 535 701 q 471 731 497 717 q 426 751 444 744 q 388 758 408 758 q 340 752 360 758 q 299 735 321 746 q 265 719 276 725 l 229 800 z "},"o":{"ha":753,"x_min":58,"x_max":696,"o":"m 375 636 q 610 548 524 636 q 696 304 696 460 q 610 63 696 150 q 375 -24 525 -24 q 143 64 228 -24 q 58 304 58 151 q 144 547 58 458 q 375 636 229 636 m 376 522 q 243 466 289 522 q 197 304 197 410 q 243 144 197 200 q 376 89 289 89 q 511 144 465 89 q 557 304 557 200 q 511 466 557 410 q 376 522 465 522 z "},"ó":{"ha":753,"x_min":58,"x_max":696,"o":"m 375 636 q 610 548 524 636 q 696 304 696 460 q 610 63 696 150 q 375 -24 525 -24 q 143 64 228 -24 q 58 304 58 151 q 144 547 58 458 q 375 636 229 636 m 376 522 q 243 466 289 522 q 197 304 197 410 q 243 144 197 200 q 376 89 289 89 q 511 144 465 89 q 557 304 557 200 q 511 466 557 410 q 376 522 465 522 m 489 1011 l 588 938 l 372 694 l 311 738 l 489 1011 z "},"ŏ":{"ha":753,"x_min":58,"x_max":696,"o":"m 375 636 q 610 548 524 636 q 696 304 696 460 q 610 63 696 150 q 375 -24 525 -24 q 143 64 228 -24 q 58 304 58 151 q 144 547 58 458 q 375 636 229 636 m 376 522 q 243 466 289 522 q 197 304 197 410 q 243 144 197 200 q 376 89 289 89 q 511 144 465 89 q 557 304 557 200 q 511 466 557 410 q 376 522 465 522 m 376 703 q 219 750 278 703 q 146 888 160 797 l 246 903 q 376 801 258 801 q 471 827 438 801 q 508 903 504 853 l 610 888 q 536 750 594 797 q 376 703 478 703 z "},"ô":{"ha":753,"x_min":58,"x_max":696,"o":"m 375 636 q 610 548 524 636 q 696 304 696 460 q 610 63 696 150 q 375 -24 525 -24 q 143 64 228 -24 q 58 304 58 151 q 144 547 58 458 q 375 636 229 636 m 376 522 q 243 466 289 522 q 197 304 197 410 q 243 144 197 200 q 376 89 289 89 q 511 144 465 89 q 557 304 557 200 q 511 466 557 410 q 376 522 465 522 m 379 914 l 600 763 l 557 696 l 381 796 l 197 697 l 154 763 l 379 914 z "},"ố":{"ha":753,"x_min":58,"x_max":696,"o":"m 375 636 q 610 548 524 636 q 696 304 696 460 q 610 63 696 150 q 375 -24 525 -24 q 143 64 228 -24 q 58 304 58 151 q 144 547 58 458 q 375 636 229 636 m 376 522 q 243 466 289 522 q 197 304 197 410 q 243 144 197 200 q 376 89 289 89 q 511 144 465 89 q 557 304 557 200 q 511 466 557 410 q 376 522 465 522 m 590 1113 l 688 1039 l 525 860 l 464 904 l 590 1113 m 379 914 l 600 763 l 557 696 l 381 796 l 197 697 l 154 763 l 379 914 z "},"ộ":{"ha":753,"x_min":58,"x_max":696,"o":"m 375 636 q 610 548 524 636 q 696 304 696 460 q 610 63 696 150 q 375 -24 525 -24 q 143 64 228 -24 q 58 304 58 151 q 144 547 58 458 q 375 636 229 636 m 376 522 q 243 466 289 522 q 197 304 197 410 q 243 144 197 200 q 376 89 289 89 q 511 144 465 89 q 557 304 557 200 q 511 466 557 410 q 376 522 465 522 m 375 -81 q 442 -106 417 -81 q 468 -174 468 -132 q 442 -240 468 -215 q 375 -265 417 -265 q 310 -240 335 -265 q 285 -174 285 -215 q 310 -106 285 -132 q 375 -81 335 -81 m 379 914 l 600 763 l 557 696 l 381 796 l 197 697 l 154 763 l 379 914 z "},"ồ":{"ha":753,"x_min":58,"x_max":696,"o":"m 375 636 q 610 548 524 636 q 696 304 696 460 q 610 63 696 150 q 375 -24 525 -24 q 143 64 228 -24 q 58 304 58 151 q 144 547 58 458 q 375 636 229 636 m 376 522 q 243 466 289 522 q 197 304 197 410 q 243 144 197 200 q 376 89 289 89 q 511 144 465 89 q 557 304 557 200 q 511 466 557 410 q 376 522 465 522 m 526 860 l 363 1039 l 461 1111 l 588 904 l 526 860 m 379 914 l 600 763 l 557 696 l 381 796 l 197 697 l 154 763 l 379 914 z "},"ổ":{"ha":753,"x_min":58,"x_max":696,"o":"m 375 636 q 610 548 524 636 q 696 304 696 460 q 610 63 696 150 q 375 -24 525 -24 q 143 64 228 -24 q 58 304 58 151 q 144 547 58 458 q 375 636 229 636 m 376 522 q 243 466 289 522 q 197 304 197 410 q 243 144 197 200 q 376 89 289 89 q 511 144 465 89 q 557 304 557 200 q 511 466 557 410 q 376 522 465 522 m 379 914 l 600 763 l 557 696 l 381 796 l 197 697 l 154 763 l 379 914 m 504 888 q 542 928 528 906 q 556 972 556 951 q 544 1002 556 990 q 513 1014 533 1014 q 443 975 478 1014 l 386 1039 q 531 1111 449 1111 q 620 1079 586 1111 q 654 993 654 1047 q 628 915 654 954 q 550 840 603 875 l 504 888 z "},"ỗ":{"ha":753,"x_min":58,"x_max":696,"o":"m 375 636 q 610 548 524 636 q 696 304 696 460 q 610 63 696 150 q 375 -24 525 -24 q 143 64 228 -24 q 58 304 58 151 q 144 547 58 458 q 375 636 229 636 m 376 522 q 243 466 289 522 q 197 304 197 410 q 243 144 197 200 q 376 89 289 89 q 511 144 465 89 q 557 304 557 200 q 511 466 557 410 q 376 522 465 522 m 156 1040 q 233 1085 203 1072 q 306 1097 263 1097 q 356 1090 335 1097 q 408 1065 378 1082 q 451 1046 436 1051 q 482 1040 465 1040 q 528 1049 508 1040 q 585 1085 547 1058 l 604 1000 q 537 953 567 967 q 469 940 507 940 q 431 947 449 940 q 385 968 414 954 q 339 990 358 982 q 299 997 319 997 q 252 991 272 997 q 209 974 232 985 q 176 958 186 963 l 156 1040 m 379 914 l 600 763 l 557 696 l 381 796 l 197 697 l 154 763 l 379 914 z "},"ȍ":{"ha":753,"x_min":24,"x_max":696,"o":"m 375 636 q 610 548 524 636 q 696 304 696 460 q 610 63 696 150 q 375 -24 525 -24 q 143 64 228 -24 q 58 304 58 151 q 144 547 58 458 q 375 636 229 636 m 376 522 q 243 466 289 522 q 197 304 197 410 q 243 144 197 200 q 376 89 289 89 q 511 144 465 89 q 557 304 557 200 q 511 466 557 410 q 376 522 465 522 m 363 1011 l 540 738 l 479 694 l 264 938 l 363 1011 m 104 982 l 332 749 l 279 694 l 24 894 l 104 982 z "},"ö":{"ha":753,"x_min":58,"x_max":696,"o":"m 375 636 q 610 548 524 636 q 696 304 696 460 q 610 63 696 150 q 375 -24 525 -24 q 143 64 228 -24 q 58 304 58 151 q 144 547 58 458 q 375 636 229 636 m 376 522 q 243 466 289 522 q 197 304 197 410 q 243 144 197 200 q 376 89 289 89 q 511 144 465 89 q 557 304 557 200 q 511 466 557 410 q 376 522 465 522 m 247 893 q 309 867 282 893 q 336 804 336 840 q 310 742 336 768 q 247 715 283 715 q 185 742 211 715 q 158 804 158 768 q 185 867 158 840 q 247 893 211 893 m 506 893 q 567 867 540 893 q 593 804 593 840 q 567 742 593 768 q 506 715 542 715 q 443 742 469 715 q 417 804 417 768 q 443 867 417 840 q 506 893 469 893 z "},"ȫ":{"ha":753,"x_min":58,"x_max":696,"o":"m 375 636 q 610 548 524 636 q 696 304 696 460 q 610 63 696 150 q 375 -24 525 -24 q 143 64 228 -24 q 58 304 58 151 q 144 547 58 458 q 375 636 229 636 m 376 522 q 243 466 289 522 q 197 304 197 410 q 243 144 197 200 q 376 89 289 89 q 511 144 465 89 q 557 304 557 200 q 511 466 557 410 q 376 522 465 522 m 247 893 q 309 867 282 893 q 336 804 336 840 q 310 742 336 768 q 247 715 283 715 q 185 742 211 715 q 158 804 158 768 q 185 867 158 840 q 247 893 211 893 m 506 893 q 567 867 540 893 q 593 804 593 840 q 567 742 593 768 q 506 715 542 715 q 443 742 469 715 q 417 804 417 768 q 443 867 417 840 q 506 893 469 893 m 154 1047 l 600 1047 l 600 951 l 154 951 l 154 1047 z "},"ȱ":{"ha":753,"x_min":58,"x_max":696,"o":"m 375 636 q 610 548 524 636 q 696 304 696 460 q 610 63 696 150 q 375 -24 525 -24 q 143 64 228 -24 q 58 304 58 151 q 144 547 58 458 q 375 636 229 636 m 376 522 q 243 466 289 522 q 197 304 197 410 q 243 144 197 200 q 376 89 289 89 q 511 144 465 89 q 557 304 557 200 q 511 466 557 410 q 376 522 465 522 m 376 911 q 444 885 418 911 q 469 818 469 860 q 444 751 469 776 q 376 726 418 726 q 311 751 336 726 q 286 818 286 776 q 311 885 286 860 q 376 911 336 911 m 153 1060 l 599 1060 l 599 964 l 153 964 l 153 1060 z "},"ọ":{"ha":753,"x_min":58,"x_max":696,"o":"m 375 636 q 610 548 524 636 q 696 304 696 460 q 610 63 696 150 q 375 -24 525 -24 q 143 64 228 -24 q 58 304 58 151 q 144 547 58 458 q 375 636 229 636 m 376 522 q 243 466 289 522 q 197 304 197 410 q 243 144 197 200 q 376 89 289 89 q 511 144 465 89 q 557 304 557 200 q 511 466 557 410 q 376 522 465 522 m 375 -81 q 442 -106 417 -81 q 468 -174 468 -132 q 442 -240 468 -215 q 375 -265 417 -265 q 310 -240 335 -265 q 285 -174 285 -215 q 310 -106 285 -132 q 375 -81 335 -81 z "},"ò":{"ha":753,"x_min":58,"x_max":696,"o":"m 375 636 q 610 548 524 636 q 696 304 696 460 q 610 63 696 150 q 375 -24 525 -24 q 143 64 228 -24 q 58 304 58 151 q 144 547 58 458 q 375 636 229 636 m 376 522 q 243 466 289 522 q 197 304 197 410 q 243 144 197 200 q 376 89 289 89 q 511 144 465 89 q 557 304 557 200 q 511 466 557 410 q 376 522 465 522 m 374 694 l 160 938 l 257 1011 l 436 738 l 374 694 z "},"ỏ":{"ha":753,"x_min":58,"x_max":696,"o":"m 375 636 q 610 548 524 636 q 696 304 696 460 q 610 63 696 150 q 375 -24 525 -24 q 143 64 228 -24 q 58 304 58 151 q 144 547 58 458 q 375 636 229 636 m 376 522 q 243 466 289 522 q 197 304 197 410 q 243 144 197 200 q 376 89 289 89 q 511 144 465 89 q 557 304 557 200 q 511 466 557 410 q 376 522 465 522 m 353 728 q 390 769 376 746 q 404 813 404 792 q 393 842 404 831 q 361 854 382 854 q 292 815 326 854 l 235 879 q 379 951 297 951 q 469 919 435 951 q 503 833 503 888 q 477 755 503 794 q 399 681 451 715 l 353 728 z "},"ơ":{"ha":753,"x_min":58,"x_max":704,"o":"m 704 721 q 624 533 704 586 q 696 304 696 443 q 610 63 696 150 q 375 -24 525 -24 q 143 64 228 -24 q 58 304 58 151 q 144 547 58 458 q 375 636 229 636 q 513 613 450 636 q 593 721 593 621 l 704 721 m 376 89 q 511 144 465 89 q 557 304 557 200 q 511 466 557 410 q 376 522 465 522 q 243 466 289 522 q 197 304 197 410 q 243 144 197 200 q 376 89 289 89 z "},"ớ":{"ha":753,"x_min":58,"x_max":704,"o":"m 704 721 q 624 533 704 586 q 696 304 696 443 q 610 63 696 150 q 375 -24 525 -24 q 143 64 228 -24 q 58 304 58 151 q 144 547 58 458 q 375 636 229 636 q 513 613 450 636 q 593 721 593 621 l 704 721 m 376 89 q 511 144 465 89 q 557 304 557 200 q 511 466 557 410 q 376 522 465 522 q 243 466 289 522 q 197 304 197 410 q 243 144 197 200 q 376 89 289 89 m 489 1011 l 588 938 l 372 694 l 311 738 l 489 1011 z "},"ợ":{"ha":753,"x_min":58,"x_max":704,"o":"m 704 721 q 624 533 704 586 q 696 304 696 443 q 610 63 696 150 q 375 -24 525 -24 q 143 64 228 -24 q 58 304 58 151 q 144 547 58 458 q 375 636 229 636 q 513 613 450 636 q 593 721 593 621 l 704 721 m 376 89 q 511 144 465 89 q 557 304 557 200 q 511 466 557 410 q 376 522 465 522 q 243 466 289 522 q 197 304 197 410 q 243 144 197 200 q 376 89 289 89 m 375 -81 q 442 -106 417 -81 q 468 -174 468 -132 q 442 -240 468 -215 q 375 -265 417 -265 q 310 -240 335 -265 q 285 -174 285 -215 q 310 -106 285 -132 q 375 -81 335 -81 z "},"ờ":{"ha":753,"x_min":58,"x_max":704,"o":"m 704 721 q 624 533 704 586 q 696 304 696 443 q 610 63 696 150 q 375 -24 525 -24 q 143 64 228 -24 q 58 304 58 151 q 144 547 58 458 q 375 636 229 636 q 513 613 450 636 q 593 721 593 621 l 704 721 m 376 89 q 511 144 465 89 q 557 304 557 200 q 511 466 557 410 q 376 522 465 522 q 243 466 289 522 q 197 304 197 410 q 243 144 197 200 q 376 89 289 89 m 374 694 l 160 938 l 257 1011 l 436 738 l 374 694 z "},"ở":{"ha":753,"x_min":58,"x_max":704,"o":"m 704 721 q 624 533 704 586 q 696 304 696 443 q 610 63 696 150 q 375 -24 525 -24 q 143 64 228 -24 q 58 304 58 151 q 144 547 58 458 q 375 636 229 636 q 513 613 450 636 q 593 721 593 621 l 704 721 m 376 89 q 511 144 465 89 q 557 304 557 200 q 511 466 557 410 q 376 522 465 522 q 243 466 289 522 q 197 304 197 410 q 243 144 197 200 q 376 89 289 89 m 353 728 q 390 769 376 746 q 404 813 404 792 q 393 842 404 831 q 361 854 382 854 q 292 815 326 854 l 235 879 q 379 951 297 951 q 469 919 435 951 q 503 833 503 888 q 477 755 503 794 q 399 681 451 715 l 353 728 z "},"ỡ":{"ha":753,"x_min":58,"x_max":704,"o":"m 704 721 q 624 533 704 586 q 696 304 696 443 q 610 63 696 150 q 375 -24 525 -24 q 143 64 228 -24 q 58 304 58 151 q 144 547 58 458 q 375 636 229 636 q 513 613 450 636 q 593 721 593 621 l 704 721 m 376 89 q 511 144 465 89 q 557 304 557 200 q 511 466 557 410 q 376 522 465 522 q 243 466 289 522 q 197 304 197 410 q 243 144 197 200 q 376 89 289 89 m 158 800 q 240 850 206 836 q 319 864 274 864 q 369 856 347 864 q 424 833 390 849 q 497 808 467 808 q 542 817 522 808 q 599 851 563 826 l 635 767 q 561 715 593 729 q 485 701 529 701 q 445 709 464 701 q 400 731 426 717 q 356 751 374 744 q 317 758 338 758 q 269 752 289 758 q 228 735 250 746 q 194 719 206 725 l 158 800 z "},"ő":{"ha":753,"x_min":58,"x_max":726,"o":"m 375 636 q 610 548 524 636 q 696 304 696 460 q 610 63 696 150 q 375 -24 525 -24 q 143 64 228 -24 q 58 304 58 151 q 144 547 58 458 q 375 636 229 636 m 376 522 q 243 466 289 522 q 197 304 197 410 q 243 144 197 200 q 376 89 289 89 q 511 144 465 89 q 557 304 557 200 q 511 466 557 410 q 376 522 465 522 m 388 1011 l 486 938 l 271 694 l 210 738 l 388 1011 m 646 982 l 726 894 l 471 694 l 418 749 l 646 982 z "},"ȏ":{"ha":753,"x_min":58,"x_max":696,"o":"m 375 636 q 610 548 524 636 q 696 304 696 460 q 610 63 696 150 q 375 -24 525 -24 q 143 64 228 -24 q 58 304 58 151 q 144 547 58 458 q 375 636 229 636 m 376 522 q 243 466 289 522 q 197 304 197 410 q 243 144 197 200 q 376 89 289 89 q 511 144 465 89 q 557 304 557 200 q 511 466 557 410 q 376 522 465 522 m 376 917 q 536 869 478 917 q 610 732 594 822 l 508 717 q 471 792 504 767 q 376 818 438 818 q 246 717 258 818 l 146 732 q 219 869 160 822 q 376 917 278 917 z "},"ō":{"ha":753,"x_min":58,"x_max":696,"o":"m 375 636 q 610 548 524 636 q 696 304 696 460 q 610 63 696 150 q 375 -24 525 -24 q 143 64 228 -24 q 58 304 58 151 q 144 547 58 458 q 375 636 229 636 m 376 522 q 243 466 289 522 q 197 304 197 410 q 243 144 197 200 q 376 89 289 89 q 511 144 465 89 q 557 304 557 200 q 511 466 557 410 q 376 522 465 522 m 154 843 l 600 843 l 600 747 l 154 747 l 154 843 z "},"ṓ":{"ha":753,"x_min":58,"x_max":696,"o":"m 375 636 q 610 548 524 636 q 696 304 696 460 q 610 63 696 150 q 375 -24 525 -24 q 143 64 228 -24 q 58 304 58 151 q 144 547 58 458 q 375 636 229 636 m 376 522 q 243 466 289 522 q 197 304 197 410 q 243 144 197 200 q 376 89 289 89 q 511 144 465 89 q 557 304 557 200 q 511 466 557 410 q 376 522 465 522 m 154 843 l 600 843 l 600 747 l 154 747 l 154 843 m 501 1215 l 600 1142 l 385 899 l 324 942 l 501 1215 z "},"ṑ":{"ha":753,"x_min":58,"x_max":696,"o":"m 375 636 q 610 548 524 636 q 696 304 696 460 q 610 63 696 150 q 375 -24 525 -24 q 143 64 228 -24 q 58 304 58 151 q 144 547 58 458 q 375 636 229 636 m 376 522 q 243 466 289 522 q 197 304 197 410 q 243 144 197 200 q 376 89 289 89 q 511 144 465 89 q 557 304 557 200 q 511 466 557 410 q 376 522 465 522 m 154 843 l 600 843 l 600 747 l 154 747 l 154 843 m 386 899 l 172 1142 l 269 1215 l 449 942 l 386 899 z "},"ǫ":{"ha":753,"x_min":58,"x_max":696,"o":"m 696 304 q 662 139 696 210 q 565 26 628 68 l 560 24 l 546 15 q 453 -121 453 -40 q 476 -169 453 -151 q 536 -187 499 -187 q 604 -174 565 -187 l 604 -268 q 486 -294 543 -294 q 363 -258 410 -294 q 317 -165 317 -222 q 381 -24 317 -86 l 375 -24 q 143 64 228 -24 q 58 304 58 151 q 144 547 58 458 q 375 636 229 636 q 610 548 524 636 q 696 304 696 460 m 197 304 q 243 144 197 200 q 376 89 289 89 q 511 144 465 89 q 557 304 557 200 q 511 466 557 410 q 376 522 465 522 q 243 466 289 522 q 197 304 197 410 z "},"ø":{"ha":753,"x_min":58,"x_max":696,"o":"m 540 600 q 656 485 615 561 q 696 304 696 410 q 610 63 696 150 q 375 -24 525 -24 q 279 -12 326 -24 l 242 -101 l 163 -101 l 211 13 q 98 126 138 51 q 58 304 58 201 q 144 547 58 458 q 375 636 229 636 q 471 625 424 636 l 506 706 l 585 706 l 540 600 m 197 304 q 260 126 197 181 l 425 517 q 376 522 404 522 q 243 466 289 522 q 197 304 197 410 m 376 89 q 511 144 465 89 q 557 304 557 200 q 492 486 557 432 l 325 94 q 376 89 346 89 z "},"ǿ":{"ha":753,"x_min":58,"x_max":696,"o":"m 540 600 q 656 485 615 561 q 696 304 696 410 q 610 63 696 150 q 375 -24 525 -24 q 279 -12 326 -24 l 242 -101 l 163 -101 l 211 13 q 98 126 138 51 q 58 304 58 201 q 144 547 58 458 q 375 636 229 636 q 471 625 424 636 l 506 706 l 585 706 l 540 600 m 197 304 q 260 126 197 181 l 425 517 q 376 522 404 522 q 243 466 289 522 q 197 304 197 410 m 376 89 q 511 144 465 89 q 557 304 557 200 q 492 486 557 432 l 325 94 q 376 89 346 89 m 489 1011 l 588 938 l 372 694 l 311 738 l 489 1011 z "},"õ":{"ha":753,"x_min":58,"x_max":696,"o":"m 375 636 q 610 548 524 636 q 696 304 696 460 q 610 63 696 150 q 375 -24 525 -24 q 143 64 228 -24 q 58 304 58 151 q 144 547 58 458 q 375 636 229 636 m 376 522 q 243 466 289 522 q 197 304 197 410 q 243 144 197 200 q 376 89 289 89 q 511 144 465 89 q 557 304 557 200 q 511 466 557 410 q 376 522 465 522 m 158 800 q 240 850 206 836 q 319 864 274 864 q 369 856 347 864 q 424 833 390 849 q 497 808 467 808 q 542 817 522 808 q 599 851 563 826 l 635 767 q 561 715 593 729 q 485 701 529 701 q 445 709 464 701 q 400 731 426 717 q 356 751 374 744 q 317 758 338 758 q 269 752 289 758 q 228 735 250 746 q 194 719 206 725 l 158 800 z "},"ṍ":{"ha":753,"x_min":58,"x_max":696,"o":"m 375 636 q 610 548 524 636 q 696 304 696 460 q 610 63 696 150 q 375 -24 525 -24 q 143 64 228 -24 q 58 304 58 151 q 144 547 58 458 q 375 636 229 636 m 376 522 q 243 466 289 522 q 197 304 197 410 q 243 144 197 200 q 376 89 289 89 q 511 144 465 89 q 557 304 557 200 q 511 466 557 410 q 376 522 465 522 m 158 800 q 240 850 206 836 q 319 864 274 864 q 369 856 347 864 q 424 833 390 849 q 497 808 467 808 q 542 817 522 808 q 599 851 563 826 l 635 767 q 561 715 593 729 q 485 701 529 701 q 445 709 464 701 q 400 731 426 717 q 356 751 374 744 q 317 758 338 758 q 269 752 289 758 q 228 735 250 746 q 194 719 206 725 l 158 800 m 475 1228 l 574 1154 l 358 911 l 297 954 l 475 1228 z "},"ṏ":{"ha":753,"x_min":58,"x_max":696,"o":"m 375 636 q 610 548 524 636 q 696 304 696 460 q 610 63 696 150 q 375 -24 525 -24 q 143 64 228 -24 q 58 304 58 151 q 144 547 58 458 q 375 636 229 636 m 376 522 q 243 466 289 522 q 197 304 197 410 q 243 144 197 200 q 376 89 289 89 q 511 144 465 89 q 557 304 557 200 q 511 466 557 410 q 376 522 465 522 m 158 800 q 240 850 206 836 q 319 864 274 864 q 369 856 347 864 q 424 833 390 849 q 497 808 467 808 q 542 817 522 808 q 599 851 563 826 l 635 767 q 561 715 593 729 q 485 701 529 701 q 445 709 464 701 q 400 731 426 717 q 356 751 374 744 q 317 758 338 758 q 269 752 289 758 q 228 735 250 746 q 194 719 206 725 l 158 800 m 233 1110 q 295 1083 268 1110 q 322 1021 322 1057 q 296 958 322 985 q 233 932 269 932 q 171 958 197 932 q 144 1021 144 985 q 171 1083 144 1057 q 233 1110 197 1110 m 492 1110 q 553 1083 526 1110 q 579 1021 579 1057 q 553 958 579 985 q 492 932 528 932 q 429 958 456 932 q 403 1021 403 985 q 429 1083 403 1057 q 492 1110 456 1110 z "},"ȭ":{"ha":753,"x_min":58,"x_max":696,"o":"m 375 636 q 610 548 524 636 q 696 304 696 460 q 610 63 696 150 q 375 -24 525 -24 q 143 64 228 -24 q 58 304 58 151 q 144 547 58 458 q 375 636 229 636 m 376 522 q 243 466 289 522 q 197 304 197 410 q 243 144 197 200 q 376 89 289 89 q 511 144 465 89 q 557 304 557 200 q 511 466 557 410 q 376 522 465 522 m 158 800 q 240 850 206 836 q 319 864 274 864 q 369 856 347 864 q 424 833 390 849 q 497 808 467 808 q 542 817 522 808 q 599 851 563 826 l 635 767 q 561 715 593 729 q 485 701 529 701 q 445 709 464 701 q 400 731 426 717 q 356 751 374 744 q 317 758 338 758 q 269 752 289 758 q 228 735 250 746 q 194 719 206 725 l 158 800 m 139 1060 l 585 1060 l 585 964 l 139 964 l 139 1060 z "},"œ":{"ha":1065,"x_min":54,"x_max":1007,"o":"m 1001 72 q 964 41 999 65 q 869 -4 929 17 q 731 -25 810 -25 q 557 29 631 -25 q 374 -25 476 -25 q 207 15 279 -25 q 94 129 135 54 q 54 307 54 204 q 95 477 54 404 q 209 590 136 550 q 374 629 282 629 q 567 578 485 629 q 733 629 644 629 q 933 558 860 629 q 1007 335 1007 488 q 1001 258 1007 300 l 561 257 q 611 130 568 174 q 732 86 654 86 q 939 153 850 86 l 1001 72 m 375 515 q 244 459 292 515 q 196 308 196 403 q 242 145 196 204 q 375 86 288 86 q 479 113 431 86 q 431 301 431 186 q 485 494 431 418 q 375 515 435 515 m 881 369 q 843 477 881 439 q 732 515 806 515 q 619 478 663 515 q 564 369 576 440 l 881 369 z "},"p":{"ha":810,"x_min":28,"x_max":754,"o":"m 42 -189 l 158 -189 l 158 479 l 28 522 l 64 636 l 257 569 q 352 619 301 601 q 449 636 403 636 q 673 551 592 636 q 754 317 754 465 q 715 138 754 215 q 603 17 675 60 q 436 -25 531 -25 q 299 -6 358 -25 l 299 -189 l 415 -189 l 415 -299 l 42 -299 l 42 -189 m 435 88 q 566 147 519 88 q 613 315 613 207 q 569 469 613 417 q 443 522 526 522 q 363 508 403 522 q 297 471 322 494 l 297 115 q 358 95 321 103 q 435 88 396 88 z "},"þ":{"ha":747,"x_min":-39,"x_max":692,"o":"m 235 593 q 304 622 265 611 q 383 632 343 632 q 608 548 525 632 q 692 315 692 464 q 652 137 692 214 q 540 17 613 60 q 374 -25 468 -25 q 235 -6 297 -25 l 235 -189 l 351 -189 l 351 -299 l -21 -299 l -21 -189 l 96 -189 l 96 761 l -39 807 l 0 924 l 235 843 l 235 593 m 235 115 q 272 101 238 114 q 372 88 307 88 q 503 149 457 88 q 550 315 550 210 q 506 466 550 414 q 378 518 463 518 q 235 471 306 518 l 235 115 z "},"q":{"ha":743,"x_min":56,"x_max":758,"o":"m 385 -189 l 514 -189 l 514 13 q 443 -15 482 -6 q 365 -24 404 -24 q 138 67 219 -24 q 56 318 56 157 q 144 551 56 467 q 389 636 233 636 q 528 616 460 636 q 653 557 597 596 l 653 -189 l 758 -189 l 758 -299 l 385 -299 l 385 -189 m 372 89 q 444 99 406 89 q 514 126 483 110 l 514 486 q 374 522 456 522 q 246 467 294 522 q 197 319 197 411 q 246 152 197 215 q 372 89 294 89 z "},"r":{"ha":628,"x_min":44,"x_max":607,"o":"m 279 563 q 501 633 389 633 q 583 621 554 633 l 607 460 l 492 435 l 478 511 q 391 497 433 510 q 318 463 349 483 l 317 111 l 453 111 l 453 0 l 61 0 l 61 111 l 178 111 l 178 472 l 44 517 l 82 629 l 279 563 z "},"ŕ":{"ha":628,"x_min":44,"x_max":607,"o":"m 279 563 q 501 633 389 633 q 583 621 554 633 l 607 460 l 492 435 l 478 511 q 391 497 433 510 q 318 463 349 483 l 317 111 l 453 111 l 453 0 l 61 0 l 61 111 l 178 111 l 178 472 l 44 517 l 82 629 l 279 563 m 418 1011 l 517 938 l 301 694 l 240 738 l 418 1011 z "},"ř":{"ha":628,"x_min":44,"x_max":607,"o":"m 279 563 q 501 633 389 633 q 583 621 554 633 l 607 460 l 492 435 l 478 511 q 391 497 433 510 q 318 463 349 483 l 317 111 l 453 111 l 453 0 l 61 0 l 61 111 l 178 111 l 178 472 l 44 517 l 82 629 l 279 563 m 308 682 l 83 833 l 126 899 l 310 800 l 486 900 l 529 833 l 308 682 z "},"ŗ":{"ha":628,"x_min":44,"x_max":607,"o":"m 279 563 q 501 633 389 633 q 583 621 554 633 l 607 460 l 492 435 l 478 511 q 391 497 433 510 q 318 463 349 483 l 317 111 l 453 111 l 453 0 l 61 0 l 61 111 l 178 111 l 178 472 l 44 517 l 82 629 l 279 563 m 157 -394 q 186 -351 164 -385 q 222 -286 208 -317 q 163 -253 183 -279 q 142 -194 142 -228 q 170 -123 142 -150 q 244 -96 199 -96 q 318 -128 286 -96 q 350 -201 350 -160 q 207 -444 351 -311 l 157 -394 z "},"ȑ":{"ha":628,"x_min":-47,"x_max":607,"o":"m 279 563 q 501 633 389 633 q 583 621 554 633 l 607 460 l 492 435 l 478 511 q 391 497 433 510 q 318 463 349 483 l 317 111 l 453 111 l 453 0 l 61 0 l 61 111 l 178 111 l 178 472 l 44 517 l 82 629 l 279 563 m 292 1011 l 469 738 l 408 694 l 193 938 l 292 1011 m 33 982 l 261 749 l 208 694 l -47 894 l 33 982 z "},"ṛ":{"ha":628,"x_min":44,"x_max":607,"o":"m 279 563 q 501 633 389 633 q 583 621 554 633 l 607 460 l 492 435 l 478 511 q 391 497 433 510 q 318 463 349 483 l 317 111 l 453 111 l 453 0 l 61 0 l 61 111 l 178 111 l 178 472 l 44 517 l 82 629 l 279 563 m 243 -81 q 310 -106 285 -81 q 336 -174 336 -132 q 310 -240 336 -215 q 243 -265 285 -265 q 178 -240 203 -265 q 153 -174 153 -215 q 178 -106 153 -132 q 243 -81 203 -81 z "},"ȓ":{"ha":628,"x_min":44,"x_max":607,"o":"m 279 563 q 501 633 389 633 q 583 621 554 633 l 607 460 l 492 435 l 478 511 q 391 497 433 510 q 318 463 349 483 l 317 111 l 453 111 l 453 0 l 61 0 l 61 111 l 178 111 l 178 472 l 44 517 l 82 629 l 279 563 m 306 917 q 465 869 407 917 q 539 732 524 822 l 438 717 q 400 792 433 767 q 306 818 367 818 q 175 717 188 818 l 75 732 q 148 869 89 822 q 306 917 207 917 z "},"ṟ":{"ha":628,"x_min":24,"x_max":607,"o":"m 279 563 q 501 633 389 633 q 583 621 554 633 l 607 460 l 492 435 l 478 511 q 391 497 433 510 q 318 463 349 483 l 317 111 l 453 111 l 453 0 l 61 0 l 61 111 l 178 111 l 178 472 l 44 517 l 82 629 l 279 563 m 24 -68 l 468 -68 l 468 -167 l 24 -167 l 24 -68 z "},"s":{"ha":639,"x_min":50,"x_max":588,"o":"m 435 511 q 319 533 376 533 q 228 512 265 533 q 190 453 190 490 q 218 396 190 417 q 308 368 246 375 l 382 358 q 539 300 490 344 q 588 176 588 256 q 513 28 588 82 q 324 -25 438 -25 q 74 38 185 -25 l 50 182 l 168 204 l 185 121 q 317 89 244 89 q 420 111 378 89 q 463 174 463 133 q 438 226 463 208 q 350 251 414 243 l 278 261 q 121 322 176 275 q 65 444 65 369 q 138 585 65 533 q 319 636 210 636 q 539 579 447 636 l 564 446 l 458 425 l 435 511 z "},"ś":{"ha":639,"x_min":50,"x_max":588,"o":"m 435 511 q 319 533 376 533 q 228 512 265 533 q 190 453 190 490 q 218 396 190 417 q 308 368 246 375 l 382 358 q 539 300 490 344 q 588 176 588 256 q 513 28 588 82 q 324 -25 438 -25 q 74 38 185 -25 l 50 182 l 168 204 l 185 121 q 317 89 244 89 q 420 111 378 89 q 463 174 463 133 q 438 226 463 208 q 350 251 414 243 l 278 261 q 121 322 176 275 q 65 444 65 369 q 138 585 65 533 q 319 636 210 636 q 539 579 447 636 l 564 446 l 458 425 l 435 511 m 428 1011 l 526 938 l 311 694 l 250 738 l 428 1011 z "},"ṥ":{"ha":639,"x_min":50,"x_max":588,"o":"m 435 511 q 319 533 376 533 q 228 512 265 533 q 190 453 190 490 q 218 396 190 417 q 308 368 246 375 l 382 358 q 539 300 490 344 q 588 176 588 256 q 513 28 588 82 q 324 -25 438 -25 q 74 38 185 -25 l 50 182 l 168 204 l 185 121 q 317 89 244 89 q 420 111 378 89 q 463 174 463 133 q 438 226 463 208 q 350 251 414 243 l 278 261 q 121 322 176 275 q 65 444 65 369 q 138 585 65 533 q 319 636 210 636 q 539 579 447 636 l 564 446 l 458 425 l 435 511 m 428 1011 l 526 938 l 311 694 l 250 738 l 428 1011 m 414 1233 q 481 1208 456 1233 q 507 1140 507 1182 q 481 1074 507 1099 q 414 1049 456 1049 q 349 1074 374 1049 q 324 1140 324 1099 q 349 1208 324 1182 q 414 1233 374 1233 z "},"š":{"ha":639,"x_min":50,"x_max":588,"o":"m 435 511 q 319 533 376 533 q 228 512 265 533 q 190 453 190 490 q 218 396 190 417 q 308 368 246 375 l 382 358 q 539 300 490 344 q 588 176 588 256 q 513 28 588 82 q 324 -25 438 -25 q 74 38 185 -25 l 50 182 l 168 204 l 185 121 q 317 89 244 89 q 420 111 378 89 q 463 174 463 133 q 438 226 463 208 q 350 251 414 243 l 278 261 q 121 322 176 275 q 65 444 65 369 q 138 585 65 533 q 319 636 210 636 q 539 579 447 636 l 564 446 l 458 425 l 435 511 m 318 682 l 93 833 l 136 899 l 319 800 l 496 900 l 539 833 l 318 682 z "},"ṧ":{"ha":639,"x_min":50,"x_max":588,"o":"m 435 511 q 319 533 376 533 q 228 512 265 533 q 190 453 190 490 q 218 396 190 417 q 308 368 246 375 l 382 358 q 539 300 490 344 q 588 176 588 256 q 513 28 588 82 q 324 -25 438 -25 q 74 38 185 -25 l 50 182 l 168 204 l 185 121 q 317 89 244 89 q 420 111 378 89 q 463 174 463 133 q 438 226 463 208 q 350 251 414 243 l 278 261 q 121 322 176 275 q 65 444 65 369 q 138 585 65 533 q 319 636 210 636 q 539 579 447 636 l 564 446 l 458 425 l 435 511 m 318 682 l 93 833 l 136 899 l 319 800 l 496 900 l 539 833 l 318 682 m 315 1103 q 383 1077 357 1103 q 408 1010 408 1051 q 383 943 408 968 q 315 918 357 918 q 250 943 275 918 q 225 1010 225 968 q 250 1077 225 1051 q 315 1103 275 1103 z "},"ş":{"ha":639,"x_min":50,"x_max":588,"o":"m 404 -78 q 528 -103 488 -75 q 569 -192 569 -132 q 524 -286 569 -253 q 403 -319 478 -319 q 309 -301 347 -319 q 239 -261 271 -283 l 278 -200 q 401 -239 335 -239 q 467 -189 467 -239 q 449 -153 467 -165 q 386 -142 431 -142 l 317 -142 l 317 -25 q 74 38 183 -24 l 50 182 l 168 204 l 185 121 q 317 89 244 89 q 420 111 378 89 q 463 174 463 133 q 438 226 463 208 q 350 251 414 243 l 278 261 q 121 322 176 275 q 65 444 65 369 q 138 585 65 533 q 319 636 210 636 q 539 579 447 636 l 564 446 l 458 425 l 435 511 q 319 533 376 533 q 228 512 265 533 q 190 453 190 490 q 218 396 190 417 q 308 368 246 375 l 382 358 q 539 300 490 344 q 588 176 588 256 q 538 50 588 100 q 404 -17 488 0 l 404 -78 z "},"ŝ":{"ha":639,"x_min":50,"x_max":588,"o":"m 435 511 q 319 533 376 533 q 228 512 265 533 q 190 453 190 490 q 218 396 190 417 q 308 368 246 375 l 382 358 q 539 300 490 344 q 588 176 588 256 q 513 28 588 82 q 324 -25 438 -25 q 74 38 185 -25 l 50 182 l 168 204 l 185 121 q 317 89 244 89 q 420 111 378 89 q 463 174 463 133 q 438 226 463 208 q 350 251 414 243 l 278 261 q 121 322 176 275 q 65 444 65 369 q 138 585 65 533 q 319 636 210 636 q 539 579 447 636 l 564 446 l 458 425 l 435 511 m 318 914 l 539 763 l 496 696 l 319 796 l 136 697 l 93 763 l 318 914 z "},"ș":{"ha":639,"x_min":50,"x_max":588,"o":"m 435 511 q 319 533 376 533 q 228 512 265 533 q 190 453 190 490 q 218 396 190 417 q 308 368 246 375 l 382 358 q 539 300 490 344 q 588 176 588 256 q 513 28 588 82 q 324 -25 438 -25 q 74 38 185 -25 l 50 182 l 168 204 l 185 121 q 317 89 244 89 q 420 111 378 89 q 463 174 463 133 q 438 226 463 208 q 350 251 414 243 l 278 261 q 121 322 176 275 q 65 444 65 369 q 138 585 65 533 q 319 636 210 636 q 539 579 447 636 l 564 446 l 458 425 l 435 511 m 228 -394 q 257 -351 235 -385 q 293 -286 279 -317 q 233 -253 254 -279 q 213 -194 213 -228 q 241 -123 213 -150 q 315 -96 269 -96 q 389 -128 357 -96 q 421 -201 421 -160 q 278 -444 422 -311 l 228 -394 z "},"ṡ":{"ha":639,"x_min":50,"x_max":588,"o":"m 435 511 q 319 533 376 533 q 228 512 265 533 q 190 453 190 490 q 218 396 190 417 q 308 368 246 375 l 382 358 q 539 300 490 344 q 588 176 588 256 q 513 28 588 82 q 324 -25 438 -25 q 74 38 185 -25 l 50 182 l 168 204 l 185 121 q 317 89 244 89 q 420 111 378 89 q 463 174 463 133 q 438 226 463 208 q 350 251 414 243 l 278 261 q 121 322 176 275 q 65 444 65 369 q 138 585 65 533 q 319 636 210 636 q 539 579 447 636 l 564 446 l 458 425 l 435 511 m 315 911 q 383 885 357 911 q 408 818 408 860 q 383 751 408 776 q 315 726 357 726 q 250 751 275 726 q 225 818 225 776 q 250 885 225 860 q 315 911 275 911 z "},"ṣ":{"ha":639,"x_min":50,"x_max":588,"o":"m 435 511 q 319 533 376 533 q 228 512 265 533 q 190 453 190 490 q 218 396 190 417 q 308 368 246 375 l 382 358 q 539 300 490 344 q 588 176 588 256 q 513 28 588 82 q 324 -25 438 -25 q 74 38 185 -25 l 50 182 l 168 204 l 185 121 q 317 89 244 89 q 420 111 378 89 q 463 174 463 133 q 438 226 463 208 q 350 251 414 243 l 278 261 q 121 322 176 275 q 65 444 65 369 q 138 585 65 533 q 319 636 210 636 q 539 579 447 636 l 564 446 l 458 425 l 435 511 m 314 -81 q 381 -106 356 -81 q 407 -174 407 -132 q 381 -240 407 -215 q 314 -265 356 -265 q 249 -240 274 -265 q 224 -174 224 -215 q 249 -106 224 -132 q 314 -81 274 -81 z "},"ṩ":{"ha":639,"x_min":50,"x_max":588,"o":"m 435 511 q 319 533 376 533 q 228 512 265 533 q 190 453 190 490 q 218 396 190 417 q 308 368 246 375 l 382 358 q 539 300 490 344 q 588 176 588 256 q 513 28 588 82 q 324 -25 438 -25 q 74 38 185 -25 l 50 182 l 168 204 l 185 121 q 317 89 244 89 q 420 111 378 89 q 463 174 463 133 q 438 226 463 208 q 350 251 414 243 l 278 261 q 121 322 176 275 q 65 444 65 369 q 138 585 65 533 q 319 636 210 636 q 539 579 447 636 l 564 446 l 458 425 l 435 511 m 314 -81 q 381 -106 356 -81 q 407 -174 407 -132 q 381 -240 407 -215 q 314 -265 356 -265 q 249 -240 274 -265 q 224 -174 224 -215 q 249 -106 224 -132 q 314 -81 274 -81 m 315 911 q 383 885 357 911 q 408 818 408 860 q 383 751 408 776 q 315 726 357 726 q 250 751 275 726 q 225 818 225 776 q 250 885 225 860 q 315 911 275 911 z "},"ß":{"ha":832,"x_min":56,"x_max":790,"o":"m 578 -22 q 472 -3 524 -22 q 396 43 421 15 l 374 165 l 483 188 l 496 111 q 531 92 508 100 q 578 85 554 85 q 639 106 615 85 q 663 161 663 128 q 637 222 663 196 q 557 271 611 249 q 435 347 474 304 q 396 450 396 390 q 421 543 396 508 q 492 615 446 578 q 543 664 526 643 q 560 714 560 685 q 527 776 560 751 q 443 800 494 800 q 342 763 371 800 q 313 635 313 726 l 313 0 l 56 0 l 56 118 l 172 118 l 172 494 l 56 494 l 56 611 l 172 611 l 172 668 q 238 849 172 790 q 436 907 303 907 q 619 855 551 907 q 688 714 688 803 q 662 623 688 658 q 589 549 636 588 q 541 503 556 521 q 526 463 526 486 q 549 413 526 433 q 632 369 572 393 q 751 286 713 336 q 790 167 790 236 q 731 31 790 83 q 578 -22 672 -22 z "},"t":{"ha":538,"x_min":36,"x_max":501,"o":"m 365 -24 q 209 35 267 -24 q 151 218 151 93 l 151 501 l 36 501 l 36 611 l 151 611 l 151 736 l 286 775 l 286 611 l 456 611 l 456 501 l 286 501 l 286 269 q 308 133 286 179 q 381 86 329 86 q 475 113 421 86 l 501 11 q 365 -24 421 -24 z "}}}
